<svg xmlns="http://www.w3.org/2000/svg" viewBox="0 0 500 500"><style><![CDATA[.B{fill:none}.C{stroke-linecap:round}.D{stroke-linejoin:round}.E{stroke:#00ad9f}.F{fill:#0056ec}.G{fill:#516fca}.H{opacity:.2}.I{stroke:#0b43a4}.J{fill:#0c2340}.K{fill:#ffb9a3}.L{fill:#c8dbfb}.M{fill:#5193f4}.N{fill:#52d2bc}.O{fill:#4a49ca}.P{fill:#0b43a4}.Q{stroke:#c8dbfb}.R{fill:#00ad9f}.S{stroke-dasharray:4}.T{fill:#fb9545}]]></style><path d="M112.4 95.34c15.62 1 22.16-9.6 29.5-23.3 20.1-37.5 64.83-33.9 79.84-10.8 10.64 16.36 33.56 13 52.1 6.6 18.25-6.3 49.35-12.35 74.12-4.82 21.64 6.6 30.52 30.3 50.24 28.84 43-3.18 64.72 39.3 56.92 57.82-5.08 12.1-7.6 25.62-3.47 38.06 4.55 13.7 15 24.55 23.36 36.33s15.18 26.5 11 40.32c-3.57 11.83-14.24 20-20.87 30.47-20.56 32.47-.22 82.24-27.62 109.3-19.62 19.37-51.6 14.9-79.06 18.6-22.9 3.08-44.43 12.7-67.22 16.46-46.14 7.63-92.75-9.17-139.53-9.64-16.48-.17-33.27 1.67-49.23-2.4a68.53 68.53 0 0 1-46.8-42.32c-10.2-28.3-.54-61.06-12.06-88.86-9.38-22.65-32.32-41.08-30.88-65.52.9-15.2 11.3-27.94 18.44-41.44 10.63-20.06-3.44-99.36 81.2-93.7zM248.6 58.6c-4.1 0-7.43 2.55-7.43 5.7s3.33 5.43 7.43 5.7c13.35.88 13.35-4.52 13.35-7.66 0-5.03-9.24-3.73-13.35-3.73zm135.58 24.28a22 22 0 0 0 12.76 5 5 5 0 0 0 3.54-.8 2.9 2.9 0 0 0 .26-4.07 6.91 6.91 0 0 0-2.51-1.41 7.88 7.88 0 0 1-3.89-2.89 2.94 2.94 0 0 0-.88-1.11c-2.6-1.47-13.98 1.4-9.28 5.28zm22.74 5a5.82 5.82 0 0 0 3.64-.35c.76-.25 1.7-.8 1.5-1.55a1.44 1.44 0 0 0-.79-.8c-1.55-.83-3.57-1.44-5.14-.38s-.38 2.7.8 3.1zm54.3 107.3a10.44 10.44 0 0 0 2.35 4.74 40.11 40.11 0 0 0 6.81 7.77 6.87 6.87 0 0 0 3.93 1.79 6.1 6.1 0 0 0 3.7-1.34 11.74 11.74 0 0 0 4.79-8.12c.5-4.4-1.55-8.7-3.93-12.44-1.47-2.33-3.2-4.64-5.66-5.88-4.14-2.1-6.88-.27-8 3.4-1.1 3.38-4.42 6.33-4 10.1zM20.82 297.68c-2.18 1.92-.2 7.54.43 11.25a6.86 6.86 0 0 0 1.15 3.15c1 1.22 2.56 1.7 4.05 2.15 2.66.77 5.87 1.42 7.9-.44 1.5-1.4 1.7-3.64 1.7-5.67a51.65 51.65 0 0 0-.3-5.56 5.92 5.92 0 0 0-.69-2.56 5.72 5.72 0 0 0-2.75-2c-3.8-1.58-9.32-2.24-11.5-.32zM154 438.45c-1.3.26-2.83.8-3 2.1-.15 1.07.75 2 1.6 2.63 7.12 5.3 16.7 5.64 25.6 5.77a7.73 7.73 0 0 0 3.07-.38 4 4 0 0 0 1.93-5.17 6.48 6.48 0 0 0-1.37-1.77c-7.14-6.96-18.9-4.97-27.84-3.18zm177.66-3.6c-8 5.87.1 11.1 10.23 7.22a144.25 144.25 0 0 1 16.29-5.57c1.8-.45 12.74-2.8 12.74-5.27 0-6.5-12.3-5-20.06-3.88a40.19 40.19 0 0 0-19.16 7.5z" fill="#e5faf8"/><g class="L"><ellipse cx="180.81" cy="414.28" rx="38.65" ry="3.61"/><ellipse cx="379.36" cy="414.28" rx="38.65" ry="3.61"/></g><g class="B C D Q"><path d="M461 160.06l-.36-2"/><path d="M459.7 154.2c-6.9-23.48-28.88-21.2-48.74-21.17l-352.5.73c-33.28.07-30.06 48.1-4 48.05 15 0 20.67 28.1-5.23 28.15-15.54 0-16 19.73-5.6 23.68" stroke-dasharray="3.9928700923919678,3.9928700923919678"/><path d="M45.55 234.17a11.74 11.74 0 0 0 2 .16"/></g><path d="M51.63 233.42a4.79 4.79 0 1 1-5.52-3.91 4.78 4.78 0 0 1 5.52 3.91zm414.1-71.22a4.79 4.79 0 1 1-3.86-5.57 4.8 4.8 0 0 1 3.86 5.57zm-365.28 36.24a83.44 83.44 0 0 1-2.93 11.44 194.88 194.88 0 0 1-10 23.57c-1.93 4-9.76 13.32-14 15.1a217.27 217.27 0 0 0-.69-33.33c-1.17-10.2 2.5-17.93-1.5-27.4-.5-1.2-1-2.42-1.57-3.63-2-4.5-4-9-4.58-13.87-.8-6.15 1.1-13.16 6.43-16.36 3.83-2.3 8.82-2.18 12.9-.37a24 24 0 0 1 9.86 8.83c7 10.36 8.26 23.74 6.07 36.02z" class="M"/><path d="M81.85 164.47c7.83 11 8.5 23.94 9.2 37.47a72.3 72.3 0 0 1-9.26 39" class="B C D I"/><path d="M81.52 368.45c-5.52-4.85-11.04-9.78-15.1-15.85-3.53-5.3-5.8-11.34-8.9-16.93-2-3.6-4.34-7.1-5.5-11.06s-.88-8.65 1.94-11.67 8-3.63 12-2 7 5 9.36 8.6a41 41 0 0 1 6 15.93c.78 5.12.58 10.35 1.38 15.47a51.77 51.77 0 0 0 4.36 13.66c1.83 4 6.48 11 7.66 15.1-3.28 1.66-10.87-9.2-13.2-11.25z" class="R"/><path d="M62.33 318.15c5.22 2.28 7.3 8.5 8.4 14.1 1.23 6.36 1 13.25 3.88 19 5.5 10.9 12.65 23.32 18 27" style="mix-blend-mode:multiply" class="B C D E"/><path d="M54.5 353.53c-4.55-1.8-10.63-2.54-13.55 1.4-2.45 3.3-1.18 7.95.5 11.7 1.42 3.15 3.23 6.36 6.24 8.07a17.66 17.66 0 0 0 6.81 1.81 162.74 162.74 0 0 0 19.74 1.11 41.39 41.39 0 0 1 23.22 7.86c-8.1-15.05-27.64-25.86-42.97-31.93z" class="F"/><path d="M46.52 363.33c5.8.25 11.65.66 17.2 2.3s27.58 11.73 31 16" class="B C D I"/><path d="M104.2 322.6a38.57 38.57 0 0 0-27-17.22c-8.06-1.1-16.36.42-24.3-1.26a31 31 0 0 1-23.31-39.21c1.87-6.22 6.14-12.1 12.32-14.1a19.66 19.66 0 0 1 10.49-.11 29.28 29.28 0 0 1 8.84 3.83c6.23 3.94 11.25 10 15 16.44 3.43 5.85 11.9 15 17.65 20.9l5.83 5.83c4 4.92 2.15 19.04 4.5 24.92z" class="N"/><path d="M40.1 268.76c19.37 8.75 40.5 20.2 54.23 36.42" class="B C D E"/><path d="M96.2 303s-28.86-23.4-34.95-48.5c6.23 3.94 11.25 10 15 16.44 3.43 5.85 11.9 15 17.65 20.9.7 3.14 1.46 6.78 2.3 11.18zm1.32-93.12a194.88 194.88 0 0 1-10 23.57c-1.93 4-9.76 13.32-14 15.1a217.27 217.27 0 0 0-.69-33.33c-1.17-10.2 2.5-17.93-1.5-27.4-.5-1.2-1-2.42-1.57-3.63a12.61 12.61 0 0 1 1.08.4c6.58 2.82 9.62 9.78 10.18 16.54.47 5.58-.54 11.17-1.3 16.72a22.09 22.09 0 0 0-.08 7.69.24.24 0 0 1 0 .08 2.88 2.88 0 0 0 5.62-.21l1.75-9.3c.52-2.78 1.1-5.7 3.37-7.63a4.81 4.81 0 0 1 3.24-1.21 4.44 4.44 0 0 1 3.89 2.6z" style="mix-blend-mode:multiply" class="H G"/><path d="M96.2 297.13c-4.56-23.8-7-27.47-5-33.44 2.55-7.6 1.12-15.26 3.53-22.9s4-15.88 2.1-23.67c-.6-2.46-1.86-5.14-4.8-5.24a4.81 4.81 0 0 0-3.25 1.2c-2.28 1.94-2.85 4.85-3.37 7.63l-1.74 9.3a2.89 2.89 0 0 1-5.63.21v-.08a21.79 21.79 0 0 1 .07-7.68c.75-5.56 1.76-11.15 1.3-16.73-.55-6.76-3.6-13.72-10.18-16.54a11.7 11.7 0 0 0-7.43-.59c-6.87 1.76-8.65 8.48-7.64 14.2.7 4 2.6 7.75 4.3 11.47 4.2 9.1 1.12 17.43 1.7 27.42 1.63 27.57 36.05 55.45 36.05 55.45z" fill="#7ee8d4"/><path d="M65.54 195.8c3.4 16.94 6.82 34 13.4 50 1.93 4.7 2.87 10.85 14 23.6" class="B C D E"/><path d="M197.78 200.13c-3.5-4-6.75-8.1-10.16-12-2.2-2.55-4.5-5-7-7.4-1.23-1.18-2.5-2.32-3.84-3.43a107.83 107.83 0 0 0-26.21-16c-5.7-2.44-11.72-4.45-16.56-8.34s-8.32-10.26-6.7-16.25c1.17-4.32 4.84-7.68 9-9.22a24.07 24.07 0 0 1 13.23-.47c12.2 2.63 22.4 11.4 29.32 21.77l.37.56c5.08 7.75 8.63 16.37 11.72 25.15 1 2.82 1.93 5.66 2.86 8.5 1.48 4.2 5.78 12.95 3.98 17.14z" class="M"/><path d="M142 137.17c13.3 2.54 22.73 11.35 32.6 20.63a72.26 72.26 0 0 1 20.4 34.54" class="B C D I"/><path d="M187.62 188.1a15.75 15.75 0 0 0 .19 4.16c-3.33-.76-5.64-5.93-7.16-11.56a86.9 86.9 0 0 1-2.46-14.11 61.09 61.09 0 0 1 1.11-17.27c5.08 7.75 8.63 16.37 11.72 25.15q-1.6 4.73-2.72 9.56a27.79 27.79 0 0 0-.68 4.07z" style="mix-blend-mode:multiply" class="G H"/><path d="M210.72 140.06c-1.13 5-4.14 9.3-6.8 13.68-1.4 2.3-2.7 4.67-3.93 7.07a107.88 107.88 0 0 0-8.86 24.22 19.84 19.84 0 0 0-.48 8.25c-6.57-1.5-9.18-20.15-9.63-25.7a60.54 60.54 0 0 1 5-29.36c1.8-4 4.1-7.95 7.68-10.52s8.6-3.47 12.37-1.23a10.14 10.14 0 0 1 4.44 6.14 15.23 15.23 0 0 1 .21 7.44z" class="N"/><path d="M188.13 187.77c-4.08-10.25-1.6-31.93 4.94-45.57 2-4.1 4.78-7.95 8.72-10.25" class="B C D E"/><path d="M210.72 140.06c-1.13 5-4.14 9.3-6.8 13.68-1.4 2.3-2.7 4.67-3.93 7.07a23.78 23.78 0 0 1-3.35-9.83c-.56-5.8 1.66-12 6.4-15.45a17 17 0 0 1 7.51-2.91 15.23 15.23 0 0 1 .18 7.44z" style="mix-blend-mode:multiply" class="G H"/><path d="M248.57 183.46a21.71 21.71 0 0 1-1.7 5.53c-2.9 6.3-9 11.7-18.17 16.1l-.62-12.62c-.45-11.42-12.84-17.74-20.68-26.06-4-4.25-7-9.6-7.58-15.42s1.67-12 6.4-15.45c4-2.86 9.15-3.5 14-3.12 7.86.63 15.8 3.92 20.68 10.06.2.23.4.48.57.72 3 4.1 4.54 9.07 5.66 14 1.98 8.62 2.88 17.56 1.45 26.27z" class="R"/><path d="M209.58 141.65c8.58 4.44 17.17 9.8 22.17 18.06 7 11.53 5.45 26.53.07 38.88" style="mix-blend-mode:multiply" class="B C D E"/><path d="M392.06 257.1c5.47-9 2.68-20.57 4.58-30.93a34.18 34.18 0 0 1 12.23-20.38c4-3.16 9.57-5.42 14.06-3 1 .52 2.13 1.24 3.07.66a2.44 2.44 0 0 0 .92-1.68c1.14-5.6-1.55-11.7.65-17 1.18-2.84 3.63-5 6.22-6.6a33.9 33.9 0 0 1 16.77-5.26 9.25 9.25 0 0 1 4.61.7c2.54 1.27 3.7 4.44 3.36 7.26a16.11 16.11 0 0 1-3.62 7.61c-5.74 7.5-14.15 14-15.26 23.37a6.13 6.13 0 0 0 .4 3.5c.53 1 1.5 1.76 2.06 2.77 1.76 3.25-1.65 6.93-5 8.53a28.57 28.57 0 0 1-9.71 2.69c-2.32.22-4.94.27-6.5 2-2.9 3.16.43 8.2-.18 12.46-.38 2.65-2.3 4.8-4.23 6.65a77.12 77.12 0 0 1-11.7 9.23c-3.4 2.17-7 4.1-10 6.78s-5.44 6.3-5.64 10.34" class="N"/><path d="M399.27 248.36c.9-4.36 2.92-8.4 4.93-12.37 3.14-6.2 6.34-12.5 11.08-17.6 3.6-3.87 8-6.93 11.65-10.74a39.6 39.6 0 0 0 6.59-9.14 30.85 30.85 0 0 1 3-5.3c1.52-1.9 3.6-3.24 5.4-4.86a23.07 23.07 0 0 0 5.72-7.89" class="B C D E"/><path d="M470.57 263.36c-1.23 4.74-3.06 9.43-6.2 13.2a28.14 28.14 0 0 1-7.82 6.31 44 44 0 0 1-4.73 2.31 56.79 56.79 0 0 1-19.77 4.43c-9.88.37-20-1.8-29.52 1a29.09 29.09 0 0 0-11.65 6.75 28.34 28.34 0 0 0-5.23 6.61l1.3-8.2c2.4-8.82 4.83-17.8 9.7-25.53a67.17 67.17 0 0 1 11.59-13.38 96.68 96.68 0 0 1 23.17-16.25c6.88-3.34 14.52-5.7 22.12-4.76s15.05 5.72 17.42 13c1.52 4.67.86 9.76-.38 14.52z" class="M"/><path d="M393.4 289.48a59.87 59.87 0 0 1 30.43-23.1c7.67-2.56 15.77-3.54 23.53-5.78s15.5-6 20.06-12.7" class="B C D I"/><path d="M398.18 368.25c.44-11 6.14-21.2 13.06-29.8 5.78-7.17 12.74-13.73 21.35-17 2.7-1 5.66-1.7 8.46-1s5.34 3.1 5.4 6c0 2.43-1.6 4.56-3.3 6.28-5.66 5.67-13 9.3-19.83 13.45-11.78 7.1-23 16.62-27.65 29.57" class="N"/><path d="M402.54 358.6c7.2-16.06 25.84-30.42 38.13-32.2" class="B C D E"/><path d="M393.68 377.02c-.1-1.85 5.93-6.68 7.3-7.9a69.85 69.85 0 0 1 25.92-14.82c3.83-1.2 7.9-2.07 11.7-1.15s7.34 4.06 7.7 8.2-2.32 7.9-5.74 9.85-7.44 2.23-11.26 2c-5.9-.35-11.7-1.8-17.62-1.77s-14.24.66-18 5.6z" class="R"/><path d="M399.82 371.4c12.1-6.57 30.43-10.84 43.72-9.23" style="mix-blend-mode:multiply" class="B C D E"/><path d="M248.57 183.46a21.71 21.71 0 0 1-1.7 5.53 96.16 96.16 0 0 1-8.87-35.22 19.45 19.45 0 0 1 2.93-11.3c.2.23.4.48.57.72 3 4.1 4.54 9.07 5.66 14 1.94 8.62 2.84 17.56 1.4 26.27z" style="mix-blend-mode:multiply" class="G H"/><path d="M290.46 182.96c9-3.2 18.43-5.78 26.65-10.73a23.12 23.12 0 0 0 6.65-5.54 11.15 11.15 0 0 0 2.46-8.12c-.4-2.92-2.27-5.72-1.64-8.6.4-1.9 1.84-3.4 2.93-5a16 16 0 0 0 2-13.28c-1.4-4.76-5-8.57-7-13.1a21.89 21.89 0 0 1-1.69-11.9c-7.6.1-14.5 4.24-22 5.63-5.7 1.06-11.64.48-17.3 1.78A27.32 27.32 0 0 0 261.17 136a15 15 0 0 0-13.17 4.44 19.5 19.5 0 0 0-5.21 14.26c2.33 37.43 23.76 57 23.76 57s20.45-27.52 23.9-28.74z" fill="#7ee8d4"/><g class="B C D E"><path d="M270.23 182.7c-.94-9.24 2.28-18.36 6-26.87 3.6-8.3 7.77-16.42 13.35-23.54s12.67-13.23 21-16.66"/><path d="M278.28 121.3a74.34 74.34 0 0 0 1.86 26.16m1.54-2.96c9.4-6 23.86-9.7 35-9.05m-57.98 10.6c11.32 4.77 11.78 21.4 12.08 26.14m3.08-10.58c8.66-6.2 21.17-8.08 30.38-5.76m-6.76-38.82a13.68 13.68 0 0 0-3 9.68m2.52-2.35c4-2 9.33-2.5 15-1.08"/></g><path d="M74.3 142.45c1.06 0 8.32-5.43 11.1-7.24a7.56 7.56 0 0 0 2.13-1.8 2.69 2.69 0 0 0 .41-2.65 3.34 3.34 0 0 0-3.4-2.09c-3.6 0-4.86 1.2-6.62 3-5.82 6.02-3.63 10.78-3.63 10.78zm32.52 21.67c3.16 1.42 6.53 2.84 10 2.4 1.33-.17 2.8-.78 3.23-2a3 3 0 0 0-1-3.09 7.16 7.16 0 0 0-3.11-1.4c-4.2-1-10.1-.46-14.27.72a36.34 36.34 0 0 0 5.15 3.37zm20.8-46.65c-1.4-.9-3-2.08-3-3.75s1.74-2.94 3.4-3a6.93 6.93 0 0 1 4.48 2c5.32 4.66 4.65 10 4.65 10l-9.54-5.25zm4.18-14.23a6.78 6.78 0 0 1-3.23-2.31 2.17 2.17 0 0 1-.34-1.87c.37-1 1-2 3.62-1.5 8.25 1.5 10 7.15 10 7.15s-7.86-.54-10.05-1.48zm24.2 12.5a13.1 13.1 0 0 0 8.81-4.52 8.21 8.21 0 0 0 1.77-3.28 3.59 3.59 0 0 0-1-3.45 3.65 3.65 0 0 0-4.27 0 8.51 8.51 0 0 0-2.76 3.6c-.87 1.83-2.55 7.65-2.55 7.65z" class="O"/><g class="B C D I"><path d="M96.9 236.4l-24-21.2c-4.3-3.77-8.67-7.6-11.38-12.6-5.8-10.77-2.46-24.76 5.4-34.15s19.36-14.92 30.9-19 23.58-6.86 34.6-12.2c6.9-3.34 13.86-8.32 15.75-15.76a15.73 15.73 0 0 0-14.31-19.59"/><path d="M161.58 108.05c-2.2 6.73-10.7 10.82-14.6 16.64M131 115.8c1.68 1.77 3.7 3.24 5.16 5.2 3.1 4.13 3.35 10.84-1.23 15m-47.1 17.42a45.75 45.75 0 0 0 25.28 9.43m-41.47.5a25 25 0 0 1 8.37-27.2"/></g><path d="M330.05 122.8a3.5 3.5 0 0 1 .51-3.53 2.59 2.59 0 0 1 2.77-.62c7 3.1 6.27 14 6.27 14s-6.67-.9-9.55-9.85zm-.17 20.53c-4.55 8.22 11.6 7.6 17.44 2.75 0 0-13.53-9.82-17.44-2.75zm20.42-19.93c-1.1-1.5-1.5-3.74-.3-5.17a4 4 0 0 1 3.8-1.13 9 9 0 0 1 4.27 2.61c5.32 6.6 2.82 13.1 2.82 13.1s-8.8-6.93-10.6-9.4zm64.2 20.36a3.6 3.6 0 0 1 .69-3.74 3.17 3.17 0 0 1 2.36-.7 7.12 7.12 0 0 1 2.42.72 7.69 7.69 0 0 1 3.72 3.7c2 4.12.65 9.2.65 9.2s-8.87-6-9.84-9.2zm-20.2 15.08a10.38 10.38 0 0 0-10.72-1.72 5.46 5.46 0 0 0-2.29 1.72c-1.28 1.77-.83 4.35.5 6.08a13.45 13.45 0 0 0 5.32 3.68c3.6 1.63 9.18 2 13 2.93.01 0-.01-7.6-5.8-12.7z" class="O"/><g class="B C D I"><path d="M335.08 124.6c2.38 7.8 9.1 13.66 16.6 16.84s15.75 4 23.87 4.54 16.34.8 24.2 2.92c7.66 2.07 15.28 6.4 18.56 13.62 4 8.8.46 19.3-5.15 27.15s-13.15 14.13-18.6 22.1c-2.5 3.67-4.58 8-4.07 12.36.67 5.87 5.6 10.2 10.2 13.9"/><path d="M353.8 121.7a46.41 46.41 0 0 1 10.73 23.22m-28.83-.22a37.53 37.53 0 0 0 9.38 1.64 14.29 14.29 0 0 0 9.16-4m65.52 1.9a15.88 15.88 0 0 1 4.79 10.71c.15 4-2.08 8.86-4.74 11.85m-30.2-4.4a159.73 159.73 0 0 0 17.17 14.09c2.92 2.06 8.72 4.7 11.3 4"/></g><path d="M456.55 282.86a44 44 0 0 1-4.73 2.31 56.79 56.79 0 0 1-19.77 4.43c-9.88.37-20-1.8-29.52 1a29.09 29.09 0 0 0-11.65 6.75c-.33.16-.66.34-1 .53-.8-6.7 15.9-15.4 21-17.68a60.43 60.43 0 0 1 29.35-5.12c4.38.35 8.87 1.2 12.48 3.7a13.36 13.36 0 0 1 3.84 4.08z" style="mix-blend-mode:multiply" class="G H"/><path d="M440.2 279.04c4.38.35 8.87 1.2 12.48 3.7s6.16 6.94 5.32 11.25c-1 5-6.17 8.28-11.25 8.9s-10.15-.78-15.16-1.8a107.92 107.92 0 0 0-33.78-1.54 19.5 19.5 0 0 0-7.92 2.3c-.8-6.7 15.9-15.4 21-17.68a60.43 60.43 0 0 1 29.31-5.12z" class="N"/><g class="B C D"><path d="M394.23 297.6c8.28-7.28 29.55-12.22 44.58-10.63 4.53.48 9.1 1.83 12.6 4.77" class="E"/><path d="M378.75 215.82l80.9-.16c9.5-.017 17.198 7.66 17.22 17.15.017 9.5-7.66 17.198-17.15 17.22l-55.33.1M134 275.2l-56.57.12a9.7 9.7 0 1 0 .04 19.4h16.5" class="I S"/><path d="M43.72 319.02c-19.38 0-19.78 28.94 4.88 28.9l363.4-.75c15.25 0 16.86-23.83-2-23.8-37.53.08-38.78-17.82-17.94-17.86" class="Q S"/></g><path d="M48.26 318.2a4.79 4.79 0 0 1-7.486 4.722 4.79 4.79 0 0 1 1.956-8.632 4.79 4.79 0 0 1 5.53 3.91z" class="M"/><path d="M401.34 305.6a4.79 4.79 0 0 1-7.496 4.709 4.79 4.79 0 0 1 1.976-8.629 4.79 4.79 0 0 1 5.52 3.92z" class="P"/><path d="M406.56 389.2l-300.9.62a7.27 7.27 0 0 1-7.29-7.23L98 183.25a7.27 7.27 0 0 1 7.26-7.29l300.9-.62a7.27 7.27 0 0 1 7.25 7.26l.4 199.33a7.27 7.27 0 0 1-7.25 7.28z" style="mix-blend-mode:multiply" class="G H"/><path d="M400.67 385.4l-300.9.62a7.26 7.26 0 0 1-7.29-7.25l-.4-199.33a7.27 7.27 0 0 1 7.25-7.29l300.9-.62a7.28 7.28 0 0 1 7.29 7.26l.4 199.33a7.26 7.26 0 0 1-7.25 7.28z" fill="#fff"/><path d="M399.73 171.54l-299.6.6a7.91 7.91 0 0 0-7.89 7.93v6.88l315.43-.65v-6.88a7.91 7.91 0 0 0-7.94-7.89z" class="F"/><path d="M100.5 386.02l45.27-.1-.4-199.08-53.18.1.4 191.18a7.91 7.91 0 0 0 7.93 7.88z" class="L"/><path d="M400.3 173.53a5.27 5.27 0 0 1 5.27 5.26l.42 199.34a5.28 5.28 0 0 1-5.26 5.28l-300.9.62a5.27 5.27 0 0 1-5.26-5.26l-.42-199.33a5.27 5.27 0 0 1 5.26-5.28l300.9-.63m0-2l-300.9.63a7.26 7.26 0 0 0-7.26 7.28l.42 199.33a7.27 7.27 0 0 0 7.26 7.26l300.9-.62a7.27 7.27 0 0 0 7.25-7.29l-.4-199.33a7.27 7.27 0 0 0-7.27-7.26z" class="F"/><g fill="#fff"><rect x="100.45" y="364.32" width="40.46" height="5.92" rx="2.79" transform="matrix(.999998 -.002094 .002094 .999998 -.76 .85)"/><rect x="99.08" y="195.27" width="39.91" height="39.91" rx="5.11" transform="matrix(.999998 -.002094 .002094 .999998 -.44 .85)"/></g><g class="L"><rect x="153.96" y="316.5" width="110.76" height="7.73" rx="3.64" transform="matrix(.999998 -.002094 .002094 .999998 -.66 1.03)"/><rect x="169.26" y="199.61" width="89.05" height="7.73" rx="3.64"/><rect x="271.69" y="281.3" width="116.31" height="7.73" rx="3.64" transform="matrix(.999998 -.002094 .002094 .999998 -.59 1.28)"/><rect x="153.99" y="332.48" width="110.76" height="7.73" rx="3.64" transform="matrix(.999998 -.002094 .002094 .999998 -.69 1.03)"/><rect x="154.02" y="348.46" width="110.76" height="7.73" rx="3.64" transform="matrix(.999998 -.002094 .002094 .999998 -.73 1.03)"/><rect x="271.8" y="309.81" width="116.31" height="56.81" rx="6.01" transform="matrix(.999998 -.002094 .002094 .999998 -.7 1.28)"/><path d="M109.54 179.4a2.55 2.55 0 0 1-5.1.02 2.55 2.55 0 0 1 2.54-2.56 2.56 2.56 0 0 1 2.56 2.54z"/><circle cx="117.78" cy="179.38" r="2.55"/><path d="M131.12 179.36a2.55 2.55 0 0 1-4.353 1.803 2.55 2.55 0 0 1 1.803-4.353 2.55 2.55 0 0 1 2.55 2.55z"/><circle cx="158.35" cy="202.56" r="7.37" transform="matrix(.099667 -.995021 .995021 .099667 -58.98 340.53)"/></g><g fill="#fff"><rect x="101.98" y="238.49" width="35.39" height="2.92" rx="1.37" transform="matrix(.999998 -.002094 .002094 .999998 -.5 .85)"/><rect x="101.99" y="244.73" width="35.39" height="2.92" rx="1.37" transform="matrix(.999998 -.002094 .002094 .999998 -.51 .85)"/></g><g class="L"><path d="M173.4 261.4l-9.24.1.07 38.68h-8a5.08 5.08 0 0 1-5.1-5.08l-.13-71.5a5.14 5.14 0 0 1 5.13-5.16h17.15z"/><path d="M233.3 218.26v1a5 5 0 0 1 5 5l.14 69.74a5 5 0 0 1-5 5l-76.27.16a5 5 0 0 1-5-5l-.16-69.72a5 5 0 0 1 5-5l76.26-.16v-1m0 0l-76.25.16a6 6 0 0 0-6 6l.14 69.74a6 6 0 0 0 6 6l76.25-.16a6 6 0 0 0 6-6l-.14-69.74a6 6 0 0 0-6-6z"/><rect x="258.66" y="200.42" width="116.31" height="63.93" rx="6.01" transform="matrix(.975381 .220527 -.220527 .975381 59.02 -63.52)"/></g><path d="M163.76 413.36l-14.23.03-3.48-18.13 21.12-.05-3.4 18.15z" class="F"/><path d="M150 395.25c0 1.48-.28 4 .7 4s.58-2.36 1.7-2.3c.72 0-.33 7.87 2.38 8.06 1.86.13 1.52-3.84 1.7-6.33a1.17 1.17 0 0 1 2.31-.24v3.5c.1 2.37 3.73 1.74 3.6-1.43v-5.3z" class="L"/><path d="M146.58 406.2a3.86 3.86 0 0 1-.84-.09 3 3 0 0 1-2.19-1.63c-1.45-3.08 2.37-8.85 2.52-9.1l.2 1c0 .06-3.36 5-2.05 7.77a2.24 2.24 0 0 0 1.69 1.25 3.22 3.22 0 0 0 .71.08c5.13 0 13.9-9.57 14-9.68.36-.43 1 0 .8.34-.42.46-9.33 10.05-14.84 10.06z" class="J"/><path d="M296.15 158.22c-20.23-.77-48.08 14.2-38.2 50.77-.22 3.1 1.64 5.3 3.6 4.7s.23-6.46.23-6.46c3.37-27.2 9.67-31.9 20.36-31.8l25.1-.06c6.2.92 17.48 5.25 19.17 27l6.24 1.15c.5-15.7-3.32-44.02-36.5-45.3z" style="mix-blend-mode:multiply" class="G H"/><path d="M296.15 155.04c-20.23-.78-48.08 14.18-38.2 50.76l3.84-1.77c3.37-27.2 9.67-31.9 20.36-31.8h25.1c6.2.9 17.78 6.4 19.47 28.2h5.94c.5-15.82-3.32-44.1-36.5-45.38z" class="T"/><g class="K"><path d="M292 155.6l-3 6.6s.36 3.72 4 3.64 4.14-1.76 4.14-1.76l.48-7.6z"/><path d="M307.45 150.13c-3.42 6.05-4.94 7.94-9.42 8.85-5.8 1.17-12.3-2.74-9.28-12.38 2.47-7.86 6.2-6.65 9.85-6.35s12.55 3.35 8.85 9.88z"/></g><path d="M293.84 145.35a2.46 2.46 0 0 0-2.79.67 3.07 3.07 0 0 0-.77 2.92 2.66 2.66 0 0 0-2.5 2.79c-.95-2.23-.44-4.56-.62-6.84s.06-4.78 1.54-6.53a7.42 7.42 0 0 1 2.22-1.71 11.5 11.5 0 0 1 10.32-.15 6.24 6.24 0 0 0 4.64.82c4.42-1.07 7 1.92 4.35 4.72a3.47 3.47 0 0 1 2.17 1.5.7.7 0 0 1 0 .67.76.76 0 0 1-.4.25 4.85 4.85 0 0 1-2.33.18c.3.26 1.94.36 2.43 1.3 1.32 2.54-3.9 1.26-4.7 1 .9.17 3.3 2.07 2.52 3.38-.15.26-3.36 2.13-6.75-1.8a6.25 6.25 0 0 0-2.93-2.07 4.7 4.7 0 0 0-2.76.43c-.64.25-2.3 1.25-2.77.65s.17-1.67-.88-2.2z" class="J"/><path d="M327.35 200.37c-.9 3.1-1.8 3.4-.72 3.88s2-1.23 2-1.23l5 1s-1.14-3.25-1.93-3.65-4.35 0-4.35 0zm-65.55 3.66c.65 1.63.84 1.64 1.75 3.6 1.74 3.74-2.35 9.65-4.88 3.2a18 18 0 0 1-.71-5z" class="K"/><g class="J"><path d="M301 137.03c3.43.2 7.65-2.23 10.34.87.25.3.75-.1.53-.4-2.57-3.7-7.34-1-10.87-1-.36 0-.36.55 0 .57z"/><path d="M302.36 135.14c-2.34.4-4.6-.7-6.95-.33a10.31 10.31 0 0 0-5.06 2.53c-.37.32.12.95.53.68 2-1.33 4-2.48 6.48-2.3 1.83.13 3.38.67 5.2.13.2-.055.315-.26.26-.46s-.26-.315-.46-.26zm-13.36 3.2a5.46 5.46 0 0 0-2.79 4.37c-.14 1.42-.2 4.67 1.24 5.47a.35.35 0 0 0 .43-.54c-.92-.93-1-3.44-.94-4.63a5.42 5.42 0 0 1 2.3-4.27c.23-.17 0-.57-.24-.4zm25.4 5.63c-.84-1.47-3-2.77-4.7-1.84a.3.3 0 0 0 .15.55 7.55 7.55 0 0 1 2.12.14 3.7 3.7 0 0 1 2 1.41c.2.27.62 0 .45-.26z"/></g><path d="M203.12 296.52c10.6 3.9 19.8 16.06 17.7 24.9-2.4 10-9.28 14.3-9.28 14.3l-2.17-4s5.5-8.6 5-12.68c-.77-6.5-9-10.86-9-10.86z" class="P"/><path d="M177 409.24s-6.5 2.63-8.14 4.12h12.9v-4.1zm28.5-.24a10.43 10.43 0 0 1 2.19 4.29h-8.8a10.22 10.22 0 0 1 1.64-4.3z" class="J"/><path d="M206.05 409.18h-6c.12-7.08-1.34-31.2-2.75-49.25-.83-10.58-1.65-19.08-2.13-20.8l3.22-.7 12.15-2.7c2.07 9.5-2.73 53.13-4.5 73.46z" fill="#047f76"/><path d="M204.7 338.25c-2.75 7.47-5.22 14.78-7.4 21.7-.83-10.58-1.65-19.08-2.13-20.8l3.22-.7z" style="mix-blend-mode:multiply" class="G H"/><path d="M184 338.76c-4.7 7.38-5.9 60.74-7.86 70.63l5.7.33a517.9 517.9 0 0 1 20.49-71.47z" fill="#009790"/><path d="M187.54 279.2s-3.65 13.9 5.47 13.9l-.54 3.55 6.92.76-1.5-5 1.46-10.32c.17-2.9-8.1-8.1-11.82-2.88z" class="K"/><path d="M162.305 263.618l2.7-.005.022 11.35-2.7.005z" class="J"/><rect x="153.99" y="258.69" width="19.33" height="4.31" rx="1.95" transform="matrix(.999998 -.00192 .00192 .999998 -.52 .92)" class="F"/><path d="M161.6 277.92c-.07-2.58-2.2-1.9-1-6.1.72-2.6 6.08.4 5.4 2.22s-1.43 4.64-1.43 4.64z" class="K"/><path d="M193.07 295.8c-13.63.9-14.52 5.5-20.62 4.78-9-1.06-7.45-17.83-6.34-23.84h-5.4s-9.72 38.2 21 31.13c-1.18 6.7 6.46 17.62-.94 30.88 11.65 3.16 22.52 3.94 31.84-.07-1.63-2.2 3.34-24.38-6.4-40.36-1.92-3.1-12.15-2.58-13.15-2.52z" class="F"/><g class="T"><path d="M191.2 281.86c.9.22 1.92.4 2.4 1.15a2.87 2.87 0 0 1 .25 1.67 1.41 1.41 0 0 1 1.47-1 1.36 1.36 0 0 1 1.18 1.26 2.28 2.28 0 0 1-.19.85 10.49 10.49 0 0 1-1 1.93c1.12.4 2.05 3.66 2.6 4.68 1.87-.47 6-2.08 6.4-8.7.17-3.1-.78-6.8-4.13-8.85-2.36-1.45-6.3-1.47-9-.78-2.2.56-5.7 2.76-4.07 5.32a7 7 0 0 0 4.08 2.48z"/><path d="M202.87 277.6a3.28 3.28 0 0 1 3.64.86 7.11 7.11 0 0 1 .74 2.9 2.19 2.19 0 0 0 .63 1.29 2.65 2.65 0 0 0 1.68.52 40.26 40.26 0 0 1 4.4.14 4.05 4.05 0 0 1 3.34 2.42c.22.74.1 1.56.37 2.3.4 1.1 1.6 1.72 2.6 2.36a17 17 0 0 1 5.35 5.33 9.59 9.59 0 0 1 1.6 4.42c.1 1.57 1.24 3.65.93 5.2s-2 3.92-5.2 5c-5.6 1.8-7.37 2.58-12.74-.6-.65-.38-1.9-1.7-2.5-2.16a2.86 2.86 0 0 1-.91-1.45 6.09 6.09 0 0 1 .87-4.61c.8-1.4 1.9-2.64 2.7-4a5.13 5.13 0 0 0 .85-2.73 1.48 1.48 0 0 0-.37-1 1.61 1.61 0 0 0-.87-.39c-1.18-.23-2.47 0-3.54-.52a2.51 2.51 0 0 1-1.3-2.85c.2-.72.76-1.33.92-2.06a2.82 2.82 0 0 0-1.36-2.76 7.82 7.82 0 0 0-3.16-1 3.59 3.59 0 0 1-1.55-.6 2.07 2.07 0 0 1-.79-1.73c.01-2.04 1.7-3.58 3.66-4.27z"/><path d="M201.9 283.23a3.1 3.1 0 0 1 2.58 3.95c-.5 1.64-1.75 3-1.78 4.77a2.81 2.81 0 0 0 2.38 2.83 9.08 9.08 0 0 0 2.21.1 3.3 3.3 0 0 1 2.22.48c.8.67.6 1.88.26 2.74a9.75 9.75 0 0 0-1 3c0 .36.6.46.64.1.27-1.75 1.73-3.33 1.26-5.18s-2.23-1.84-3.7-1.8a5.06 5.06 0 0 1-2.56-.35 2.2 2.2 0 0 1-1-2.54c.37-1.84 1.95-3.33 1.73-5.3a3.59 3.59 0 0 0-3.28-3.12c-.23 0-.22.33 0 .36zm-13.9-8.26a13.06 13.06 0 0 1 7.92-1.67 12.82 12.82 0 0 1 6.86 3.43.31.31 0 0 0 .43-.44c-3.63-4.3-11-5.23-15.38-1.54-.13.1 0 .3.17.22z"/></g><g class="K"><path d="M362.63 291.28l-2.25 4.53 5.5 2.25.6-5.2-3.85-1.57z"/><path d="M366 276.53c-12.5 5.44-7.37 18.62.23 17.07 3.7-.75 5.57-12.67 5.57-12.67z"/></g><path d="M370.1 274.65a6.59 6.59 0 0 0-1.48-2.12 1.89 1.89 0 0 0-2.38-.12c-.84.78-.35 2.24.5 3-.73.1-1.6-.42-2.14.1s-.27 1 0 1.56a7 7 0 0 0 2.55 2.94c-.63.36-1.36 1-1 1.67.1.18.28.3.38.47.24.4 0 .9-.23 1.32l-1.28 1.9a1.11 1.11 0 0 1 1.79.31 1.9 1.9 0 0 1-.44 2 2 2 0 0 1-1 .64c-.34.08-1.86 4.76-.68 5.68 1.46 1.13 6.43.15 7.15-1.13a3.15 3.15 0 0 0 2.81 1.16 1.73 1.73 0 0 0 1.27-2.38 2.92 2.92 0 0 0 3.52-4.23c.6-.2.74-1 .58-1.64a3.78 3.78 0 0 0-2.58-2.65 1.28 1.28 0 0 0 1.16-1.26 2.63 2.63 0 0 0-.7-1.72 5.83 5.83 0 0 0-4.29-2.05c-1.77-.2-2.74-2-3.5-3.43z" class="O"/><path d="M358.4 408.37s-7.3 3.5-8.3 4.6c0 0 14.38.64 15.5 0s-2.3-4.58-2.3-4.58zm27.2-3.97s-6.42 4.95-7.15 6.22c0 0 15.16-2.25 15.16-3.24s-3.2-4-3.2-4z" class="J"/><path d="M365.47 340.6c-.27 1.5-10.28 41 18.35 64.68l8.3-1.9s-9.65-9-14.2-25.34c-4.3-15.43-.92-16.9 1.7-25.43 2.86-9.4.73-16.2.73-16.2z" fill="#d8742a"/><path d="M351.78 340.5c-4.53 10.85-12.33 47.82 4.66 68.63h8.48s-6.68-7.32-7.43-24.3 3.57-24.44 6.62-30.05 5.9-15.16 5.9-15.16z" class="T"/><path d="M345.8 273.24c-2.25 7.94-3 22.62 8.3 28.53l7.56-1.84S348 292.8 351 274.75z" class="P"/><path d="M325 269.17l5.86-.72s-.7 24.62 27.74 26.7c21.7 1.58 23.4 42.3 23.4 42.3-7 4.72-18.75 6.14-33.8 5.06 0 0 1-29.06-1.42-37-.01-.01-23.64-7.45-21.8-36.35z" class="F"/><path d="M317.82 264.7c-1 1.15 3.15 2.6 7.17 4.47l5.15-.63a19.36 19.36 0 0 0 0-2.1c-.06-1.07-.6-1.68-1.2-.76s-3.2 1.23-4.44.4-5.68-2.47-6.67-1.37zm27.98 8.54c-1.9-1.85-1.38-1.74-1.38-1.74l5.75 1.3s1.26-2.8 2.33-2.9-.8 1.94-.37 2.68-1.18 2.16-1.18 2.16z" class="K"/><path d="M373.34 277.37a8.06 8.06 0 0 1 3.36 1.23 2.54 2.54 0 0 1 .7 3.28c-.32.52.45.93.8.47a3.14 3.14 0 0 0-.25-3.87 5.32 5.32 0 0 0-4.55-1.63c-.3 0-.4.45-.07.53zm5.2 10.67a1.83 1.83 0 0 1 1.1 2.16c-.3.9-1.2 1.42-1.94 1.94a.34.34 0 0 0 .34.58 3.9 3.9 0 0 0 2.39-2.69 2.56 2.56 0 0 0-1.58-2.53.311.311 0 1 0-.31.54zM365.4 294a7 7 0 0 0 8.59-.94c.27-.3-.1-.83-.44-.57a7.65 7.65 0 0 1-7.93 1.13c-.25-.1-.46.23-.22.38zm13.48-14.9c1.53 1.44 0 3.42-1 4.67a.28.28 0 0 0 .39.39 4.79 4.79 0 0 0 1.85-3 2.26 2.26 0 0 0-1.13-2.28.12.12 0 0 0-.14.18z" class="O"/><path d="M209.73 96.42l-2.35-5.73L230 82.1l-20.28 14.32z" class="P"/><g class="M"><path d="M210.87 92.9L230 82.1 216.7 95.64l-5.82-2.75z"/><path d="M202.2 88.36L230 82.1l-22.63 8.6-5.18-2.33z"/></g><path d="M210.87 92.9l-1.14 3.53 3.45-2.44-2.3-1.1z" class="F"/><path d="M207.07 95.66c-5.9-1-13.93 5-10.48 11.2 1.17 2.1 7.23 1.2 6.78-1.15-.2-1.12-1.6-1.6-2.72-1.47-6.6.76-6.87 6.3-6.58 7.7 1.52 7.28 12.67 4.8 16.42 3.8" class="B C D Q S"/><path d="M260.1 476.14a7.3 7.3 0 0 0-1.1 1.46l-.47-.24a.61.61 0 0 0-.66-.47c-.33.04-.57.34-.53.67s.34.57.67.53l.2-.05.45.23a7.1 7.1 0 0 0-.54 1.75l.74.13a6.58 6.58 0 0 1 1.8-3.48zm5.5-2.3h-.5l-.07-.63a.69.69 0 0 0 .26-.64.72.72 0 1 0-1.42.17.71.71 0 0 0 .41.56l.07.63a7.57 7.57 0 0 0-2.06.64l.33.68a7 7 0 0 1 3-.67 6.71 6.71 0 0 1 1.48.16l.16-.74a7.56 7.56 0 0 0-1.65-.16zm6.6 2.55a.6.6 0 1 0-.67-.59l-.42.36a7.36 7.36 0 0 0-1.41-1.13l-.4.64a6.7 6.7 0 0 1 2.56 2.92l.7-.3a7.46 7.46 0 0 0-.94-1.55l.4-.35a.41.41 0 0 0 .19.01zm-7.2 7.66h-1.15a15.87 15.87 0 0 1-2.48-.18 9.19 9.19 0 0 1-1.27-.29 6.2 6.2 0 0 0 11.34-1.38 10 10 0 0 1-2.46 1.12 16.69 16.69 0 0 1-3.98.73zm.6-8.7a6 6 0 0 0-6.08 5.94 5.86 5.86 0 0 0 .14 1.26c.67.5 2.7.9 5.35.74a11.55 11.55 0 0 0 6.67-2.16 5.44 5.44 0 0 0-.05-.58 6 6 0 0 0-6.03-5.2zm-2.16 6.5a1.85 1.85 0 1 1 1.85-1.85 1.85 1.85 0 0 1-1.85 1.85zm4.74-.9a1.36 1.36 0 1 1 1.36-1.36 1.36 1.36 0 0 1-1.36 1.36zm13.42-3.73a2.82 2.82 0 0 0-1.39-.24c-.55.07-.84.34-.84 1v.86h2.23v1.76h-2.23v5.45h-1.93v-5.45h-1.34v-1.72h1.34v-.9a2.46 2.46 0 0 1 2.57-2.78 3.91 3.91 0 0 1 1.59.31zm4.7 3.38a3.27 3.27 0 0 0-.53-.05 1.44 1.44 0 0 0-1.51 1.62v3.9h-1.93v-7.17h1.87v.7a2.25 2.25 0 0 1 2-1 1.8 1.8 0 0 1 1.1.34zm7.7 1.83a6 6 0 0 1 0 .65h-5.1a1.75 1.75 0 0 0 1.85 1.49 2.94 2.94 0 0 0 1.81-.69l1.13 1.24a4.33 4.33 0 0 1-3.05 1.09 3.78 3.78 0 0 1-.1-7.55 3.47 3.47 0 0 1 3.45 3.77zm-5.12-.67H292a1.6 1.6 0 0 0-3.18 0zm12.74.67a6 6 0 0 1 0 .65h-5.12a1.73 1.73 0 0 0 1.84 1.49 2.94 2.94 0 0 0 1.81-.69l1.14 1.24a4.37 4.37 0 0 1-3.06 1.09 3.78 3.78 0 0 1-.1-7.55 3.47 3.47 0 0 1 3.49 3.77zm-5.12-.67h3.18a1.55 1.55 0 0 0-1.56-1.44 1.57 1.57 0 0 0-1.62 1.44zm13.5.67a3.55 3.55 0 0 1-3.47 3.78 2.65 2.65 0 0 1-2.11-.93v3.7h-1.92v-10.13h1.9v.75a2.6 2.6 0 0 1 2.14-1 3.55 3.55 0 0 1 3.47 3.83zm-5.67 0a1.85 1.85 0 1 0 1.84-2 1.84 1.84 0 0 0-1.88 2zm8.74-5.93a1.24 1.24 0 1 1-.583-1.166 1.24 1.24 0 0 1 .583 1.166zm-.26 9.5h-1.93v-7.17h1.93zm3.2-4.6l2.7-2.56h2.37l-3.48 3.38 3.5 3.8h-2.37l-2.72-2.9v2.9h-1.9v-10.65h1.9zm-131.6 4.56v-1.06a3 3 0 0 1-2.39 1.23c-1.84 0-3.14-1.4-3.14-3.7s1.28-3.72 3.14-3.72a3 3 0 0 1 2.39 1.24v-3.76h1.1v9.77zm0-1.92v-3.2a2.65 2.65 0 0 0-2.12-1.14c-1.42 0-2.27 1.17-2.27 2.74s.85 2.72 2.27 2.72a2.6 2.6 0 0 0 2.12-1.11zm2.53-1.64a3.54 3.54 0 0 1 3.49-3.7c2.14 0 3.4 1.67 3.4 3.8v.28h-5.73a2.5 2.5 0 0 0 2.55 2.45 3.11 3.11 0 0 0 2.18-.9l.53.72a3.88 3.88 0 0 1-2.82 1.08 3.5 3.5 0 0 1-3.6-3.72zm3.47-2.8a2.35 2.35 0 0 0-2.31 2.35h4.64a2.29 2.29 0 0 0-2.33-2.35zm4.2 5.42l.57-.8a3.21 3.21 0 0 0 2.33 1c1.08 0 1.67-.5 1.67-1.2 0-1.72-4.38-.66-4.38-3.3 0-1.1.95-2 2.63-2a3.6 3.6 0 0 1 2.63 1l-.52.77a2.73 2.73 0 0 0-2.11-.9c-1 0-1.56.5-1.56 1.12 0 1.55 4.38.52 4.38 3.28 0 1.18-1 2.13-2.8 2.13a3.75 3.75 0 0 1-2.85-1.11zm6.88-7.88a.74.74 0 0 1 .73-.75.76.76 0 0 1 .75.75.74.74 0 0 1-.75.73.73.73 0 0 1-.73-.73zm.2 8.82v-7.08h1.1v7.08zm2.9 1.82l.56-.82a2.7 2.7 0 0 0 2.3 1 2 2 0 0 0 2.27-2.12v-1a3 3 0 0 1-2.37 1.26c-1.85 0-3.15-1.38-3.15-3.67s1.3-3.67 3.15-3.67a2.94 2.94 0 0 1 2.37 1.24v-1.07h1.1v6.87c0 2.35-1.64 3.08-3.37 3.08a3.63 3.63 0 0 1-2.86-1.1zm5.13-3.86v-3.1a2.62 2.62 0 0 0-2.11-1.14c-1.42 0-2.27 1.13-2.27 2.7s.85 2.7 2.27 2.7a2.61 2.61 0 0 0 2.11-1.16zm7.7 2.04v-4.63c0-1.24-.63-1.64-1.58-1.64a2.73 2.73 0 0 0-2.09 1.1v5.17h-1.1v-7.08h1.1v1a3.47 3.47 0 0 1 2.52-1.2 2 2 0 0 1 2.25 2.28v5zm2.53-3.56a3.54 3.54 0 0 1 3.49-3.7c2.14 0 3.4 1.67 3.4 3.8v.28h-5.73a2.5 2.5 0 0 0 2.55 2.45 3.11 3.11 0 0 0 2.18-.9l.53.72a3.85 3.85 0 0 1-2.81 1.08 3.51 3.51 0 0 1-3.61-3.72zm3.47-2.8a2.36 2.36 0 0 0-2.31 2.35h4.64a2.28 2.28 0 0 0-2.33-2.35zm9.95 6.36v-1.06a3 3 0 0 1-2.39 1.23c-1.84 0-3.15-1.4-3.15-3.7s1.3-3.72 3.15-3.72a3 3 0 0 1 2.39 1.24v-3.76h1.1v9.77zm0-1.92v-3.2a2.68 2.68 0 0 0-2.12-1.14c-1.42 0-2.27 1.17-2.27 2.74s.85 2.72 2.27 2.72a2.63 2.63 0 0 0 2.12-1.11zm6.35 1.92v-9.77h1.1v3.76a3 3 0 0 1 2.39-1.24c1.84 0 3.15 1.46 3.15 3.72s-1.3 3.7-3.15 3.7a3 3 0 0 1-2.39-1.23v1.06zm3.2-.8c1.44 0 2.3-1.15 2.3-2.72s-.85-2.74-2.3-2.74a2.65 2.65 0 0 0-2.11 1.14v3.2a2.59 2.59 0 0 0 2.11 1.11zm4.63 2.57a1.73 1.73 0 0 0 .6.12 1 1 0 0 0 1.05-.75l.47-1.07-3-7.15h1.2l2.36 5.8 2.34-5.8h1.2l-3.54 8.5a2.1 2.1 0 0 1-2.08 1.44 3.52 3.52 0 0 1-.81-.1z" fill="#fff"/></svg>