<svg xmlns="http://www.w3.org/2000/svg" xmlns:xlink="http://www.w3.org/1999/xlink" viewBox="0 0 447.02 375.5"><style><![CDATA[.T{fill:#fff}.U{fill:#92e0e1}.V{fill:#263238}.W{fill:#27debf}.X{opacity:.3}.Y{fill:#37474f}.Z{fill:#455a64}.a{fill:#f28f8f}.b{fill:#ffa8a7}.c{fill:#e6e6e6}.d{fill:#e0e0e0}]]></style><path d="M65.46 341.3c87.28 45.6 228.8 45.6 316.08 0s87.3-119.53 0-165.13-228.8-45.6-316.08-.02-87.28 119.56 0 165.15z" fill="#d4f5f3"/><ellipse cx="356.61" cy="253.43" rx="26.51" ry="12.64" class="c"/><path d="M359.12 33.47l3.8 1.46v-8.36c0-6.63 5.3-8.22 11-4.9 5.74 3.3 10.4 11.37 10.4 18v1.2a5.57 5.57 0 0 1 4.82.75 16.52 16.52 0 0 1 7.48 13v.52l5.3 3.06a10.88 10.88 0 0 1 4.92 8.53c0 3.14-2.2 4.42-4.92 2.84l-42.8-24.73a10.88 10.88 0 0 1-4.92-8.53c0-3.17 2.2-4.42 4.92-2.85z" fill="#d4f5f3"/><use xlink:href="#B" class="W"/><use xlink:href="#B" opacity=".1"/><path d="M62.92 286.2a.7.7 0 0 1-.65-.74c1.62-27.9-3.7-44.42-17.82-55.22a.68.68 0 0 1-.13-1 .69.69 0 0 1 1-.14c14.53 11.12 20 28 18.37 56.42a.69.69 0 0 1-.77.68z" class="T"/><path d="M40.28 304.38c-1.1.63-3.4-.76-4.26-1.34a10.55 10.55 0 0 1-3.52-4 9.84 9.84 0 0 1-.88-6 23.17 23.17 0 0 1 .75-3.17l.88-3.07a7.66 7.66 0 0 0 .45-3.1c-.26-2.1-2.13-3.57-3.83-4.84-1.87-1.4-3.82-3.26-3.8-5.8a8.89 8.89 0 0 1 2.23-5.29l3.73-4.5a6.22 6.22 0 0 0 1.28-3.94 6.48 6.48 0 0 0-.86-2.45 35.76 35.76 0 0 1-2.69-4.93c-.6-1.76-.52-4 .86-5.23a5.74 5.74 0 0 1 4.35-1.08 9.93 9.93 0 0 1 4 1.42c4 2.23 6.3 7 10.57 8.7a42.51 42.51 0 0 0 5.15 1.26 6.38 6.38 0 0 1 4.26 2.91c1.56 3.13-1.34 7-.24 10.3 1 2.94 3.82 4.06 5.42 6.7a6.25 6.25 0 0 1 .75 3.85 18.29 18.29 0 0 1-1.62 6.49 45.51 45.51 0 0 1-3.51 5.87c-.07.05-19.28 11.13-19.46 11.23z" class="W"/><g class="T"><path d="M51.76 298.44h-.1a.7.7 0 0 1-.6-.78c2-16.08-5.64-37.75-17.1-48.32a.7.7 0 0 1 .95-1c11.94 11 19.64 32.77 17.52 49.52a.69.69 0 0 1-.69.58z"/><path d="M49.76 277.47a.7.7 0 0 1-.41-.14c-6.1-4.58-15.9-3.75-15.9-3.74a.68.68 0 0 1-.76-.63.7.7 0 0 1 .63-.76c.42 0 10.37-.9 16.9 4a.7.7 0 0 1 .14 1 .72.72 0 0 1-.61.27zm-.96-4.02a.69.69 0 0 1-.67-.72 18.4 18.4 0 0 1 6.46-12.94.7.7 0 1 1 .86 1.1 17.25 17.25 0 0 0-5.98 11.89.71.71 0 0 1-.67.67z"/></g><use xlink:href="#C" class="W"/><use xlink:href="#C" opacity=".1"/><path d="M372.03 244.52h-.06a.48.48 0 0 1-.41-.54c1.75-13 14.94-22 20.18-23a.48.48 0 0 1 .576.632.48.48 0 0 1-.396.308c-4.9.93-17.75 9.86-19.4 22.2a.48.48 0 0 1-.48.41z" class="T"/><path d="M372.56 252.6c.72-1.93 3.4-5 7.5-7.36 4.54-2.62 10.1-3.55 11.54-5.76 1.74-2.66-.4-5.47-4.86-5.28s-12.73 5.6-14.7 14.6z" class="W"/><path d="M372.24 250.74h-.1a.49.49 0 0 1-.38-.57c1.32-6.65 11-13.54 17.2-13.83a.5.5 0 0 1 .51.45.48.48 0 0 1-.46.51c-5.8.27-15.08 6.9-16.3 13.06a.47.47 0 0 1-.47.38z" class="T"/><path d="M202.1 293.04v.4a2.23 2.23 0 0 0 1 1.74l59.44 34.3a2.16 2.16 0 0 0 2 0l87.8-50.68a2.23 2.23 0 0 0 1-1.75v-.4a2.25 2.25 0 0 0-1-1.75l-59.43-34.3a2.22 2.22 0 0 0-2 0l-87.8 50.7a2.23 2.23 0 0 0-1 1.74z" class="d"/><path d="M202.1 293.04v.4a2.23 2.23 0 0 0 1 1.74l59.44 34.3a2 2 0 0 0 1 .24v-7.84l-56.72-32.75-3.72 2.15a2.23 2.23 0 0 0-1 1.74z" class="c"/><path d="M203.1 292.46l59.44 34.3a2.16 2.16 0 0 0 2 0l87.8-50.68c.56-.32.56-.84 0-1.17l-59.43-34.3a2.22 2.22 0 0 0-2 0l-87.8 50.7a.61.61 0 0 0 0 1.16z" class="T"/><path d="M278.82 306.15l-40-23.1c-.7-.4-.73-1-.08-1.4a2.73 2.73 0 0 1 2.44.05l40 23.1c.7.4.73 1 .08 1.4a2.69 2.69 0 0 1-2.44-.04z" fill="#ebebeb"/><path d="M250.46 308.85l-19.74-11.4c-.7-.4-.73-1-.08-1.4a2.69 2.69 0 0 1 2.44 0l19.74 11.4c.7.4.73 1 .08 1.4a2.66 2.66 0 0 1-2.44-.01z" class="d"/><g fill="#ebebeb"><path d="M256.07 305.82l-13.88-8c-.5-.3-.5-.73-.06-1a1.87 1.87 0 0 1 1.72 0l13.9 8c.5.3.5.73.05 1a1.9 1.9 0 0 1-1.72 0z"/><use xlink:href="#D"/><path d="M293.02 297.94l-40-23.1c-.7-.4-.73-1-.08-1.4a2.69 2.69 0 0 1 2.44 0l40 23.1c.7.4.73 1 .07 1.4a2.69 2.69 0 0 1-2.43 0zm7.1-4.1L279 281.6c-.7-.4-.73-1-.08-1.4a2.73 2.73 0 0 1 2.44.05l21.1 12.23c.7.4.73 1 .08 1.4a2.71 2.71 0 0 1-2.42-.04zm20.05-11.62l-40-23.1c-.7-.4-.73-1-.08-1.4a2.71 2.71 0 0 1 2.45 0l40 23.1c.7.4.73 1 .07 1.4a2.66 2.66 0 0 1-2.44-.01zm7.1-4.08l-40-23.1c-.7-.4-.73-1-.07-1.4a2.66 2.66 0 0 1 2.44 0l40 23.1c.7.4.73 1 .08 1.4a2.69 2.69 0 0 1-2.45.01zm-14.2 8.17l-40-23.1c-.7-.4-.73-1-.08-1.4a2.73 2.73 0 0 1 2.44.05l40 23.1c.7.4.74 1 .08 1.4a2.69 2.69 0 0 1-2.44-.04z"/><use xlink:href="#D" x="48.46" y="-27.96"/></g><path d="M265.92 309.58a10.51 10.51 0 0 0-9.46 0c-2.6 1.5-2.6 4 0 5.46a10.44 10.44 0 0 0 9.46 0c2.6-1.5 2.6-3.95 0-5.46z" class="d"/><path d="M203.12 181.43l-37.5 21.65a7.08 7.08 0 0 0-3 4.32l-9.32 53.8a4.47 4.47 0 0 0 2 4.32l24.18 14a5.59 5.59 0 0 0 5 0l51.68-29.84a4.74 4.74 0 0 0 0-8.37l-18.6-10.73a6.39 6.39 0 0 1-2.81-4.35l-4.14-40.6a6.16 6.16 0 0 0-2.66-4.25 5.36 5.36 0 0 0-4.83.05z" class="V"/><path d="M182 270.03v10.06a5.19 5.19 0 0 0 2.52-.6l51.68-29.84a5.41 5.41 0 0 0 2.52-4.18 5 5 0 0 0-1-2.73h-8.47z" class="Y"/><path d="M207.85 184.15l-37.5 21.66a7 7 0 0 0-3 4.32l-8.46 48.84a4.47 4.47 0 0 0 2 4.33l18.58 10.73a5.59 5.59 0 0 0 5 0l51.75-29.88c1.4-.8 1.4-2.1 0-2.9l-18.6-10.73a6.39 6.39 0 0 1-2.81-4.35l-4.14-40.6a1.74 1.74 0 0 0-2.81-1.4z" class="V"/><path d="M236.2 241.28l-18.6-10.73a5.8 5.8 0 0 1-1.84-1.85l-56.55 32.65a4.32 4.32 0 0 0 1.67 1.95l18.57 10.73a5.59 5.59 0 0 0 5 0l51.75-29.88c1.4-.76 1.4-2.06 0-2.87zM83.95 288.45l-2.4-1.4a7.8 7.8 0 0 1-3.52-6.11v-161a7.77 7.77 0 0 1 3.53-6.1L278.3.85a7.81 7.81 0 0 1 7.06 0l1.83 1a7.8 7.8 0 0 1 3.53 6.11v161.1a7.79 7.79 0 0 1-3.53 6.11L91 288.45a7.82 7.82 0 0 1-7.05 0z" class="Z"/><path d="M92.2 124l-13.15-7.6a7.2 7.2 0 0 0-1 3.48v161.05a7.8 7.8 0 0 0 3.52 6.11l2.4 1.4a7.82 7.82 0 0 0 7.05 0l1.2-.7z" class="V"/><path d="M87.46 286.4v-161a7.79 7.79 0 0 1 3.53-6.11L287.2 5.97c1.95-1.12 3.53-.2 3.53 2v161.1a7.79 7.79 0 0 1-3.53 6.11L91 288.45c-1.95 1.12-3.54.2-3.54-2.04z" class="Y"/><path d="M179.6 226.38l18.6-10.74c1.4-.8 2.52-.23 2.52 1.28a5.36 5.36 0 0 1-2.52 4.18l-18.6 10.74c-1.4.8-2.52.23-2.52-1.28a5.41 5.41 0 0 1 2.52-4.18z" class="V"/><path d="M96.5 124.15l184.77-107c1.12-.64 2-.12 2 1.16v140.4a4.44 4.44 0 0 1-2 3.49L96.5 268.9c-1.1.64-2 .12-2-1.17v-140a4.48 4.48 0 0 1 2-3.57z" class="T"/><g class="U"><use xlink:href="#E"/><use xlink:href="#E" opacity=".4"/></g><use xlink:href="#E" class="T X"/><use xlink:href="#F" class="U"/><use xlink:href="#F" opacity=".2"/><path d="M111.1 137.84v26.93c0 1.6 1.13 2.26 2.52 1.45l70.6-40.75a5.59 5.59 0 0 0 2.52-4.37V94.15c0-1.6-1.13-2.25-2.52-1.45l-70.6 40.75a5.59 5.59 0 0 0-2.52 4.39z" class="U"/><g class="T"><use xlink:href="#G"/><use xlink:href="#H"/><use xlink:href="#I"/><use xlink:href="#J"/></g><use xlink:href="#K" class="U"/><g class="T"><use xlink:href="#K" class="X"/><use xlink:href="#L"/><path d="M134.74 140.15l-2.84-3a1.24 1.24 0 0 0-2 .34l-4.08 9-2-1.8a1.27 1.27 0 0 0-1-.31 1.25 1.25 0 0 0-.88.56l-6.1 9.5v2.16l7.2-11 6.57 5.95 1.05-.6-3.95-3.58 4.23-9.35h.13l3.68 3.9z"/></g><g class="U"><use xlink:href="#E" y="45"/><use xlink:href="#E" y="45" opacity=".4"/></g><use xlink:href="#E" y="45" class="T X"/><use xlink:href="#F" y="45" class="U"/><use xlink:href="#F" y="45" opacity=".2"/><use xlink:href="#M" class="U"/><g class="T"><use xlink:href="#G" y="45"/><use xlink:href="#H" y="45"/><use xlink:href="#I" y="45"/><use xlink:href="#J" y="45"/></g><use xlink:href="#N" class="U"/><g class="T"><use xlink:href="#N" class="X"/><use xlink:href="#L" y="45"/><use xlink:href="#O"/></g><g class="U"><use xlink:href="#E" y="89"/><use xlink:href="#E" y="89" opacity=".4"/></g><use xlink:href="#E" y="89" class="T X"/><use xlink:href="#F" y="89" class="U"/><use xlink:href="#F" y="89" opacity=".2"/><use xlink:href="#M" y="44" class="U"/><g class="T"><use xlink:href="#G" y="89"/><use xlink:href="#H" y="89"/><use xlink:href="#I" y="89"/><use xlink:href="#J" y="89"/></g><use xlink:href="#P" class="U"/><g class="T"><use xlink:href="#P" class="X"/><use xlink:href="#L" y="89"/><use xlink:href="#O" y="44"/></g><path d="M198.4 201.7l-1.88-1.1a5.56 5.56 0 0 1-2.52-4.36V82a5.57 5.57 0 0 1 2.52-4.36l108.4-62.6a5.53 5.53 0 0 1 5 0l1.92 1.1a5.59 5.59 0 0 1 2.52 4.37v114.22a5.57 5.57 0 0 1-2.52 4.36l-108.37 62.6a5.53 5.53 0 0 1-5.07 0z" class="U"/><path d="M205.64 85.8l-10.9-6.3a5.11 5.11 0 0 0-.74 2.48v114.25a5.56 5.56 0 0 0 2.52 4.36l1.88 1.1a5.53 5.53 0 0 0 5 0l2.2-1.27z" class="c"/><path d="M205.64 85.8l-10.9-6.3a5.11 5.11 0 0 0-.74 2.48v5.28l6.92 4z" class="U"/><path d="M205.64 85.8l-10.9-6.3a5.11 5.11 0 0 0-.74 2.48v5.28l6.92 4z" opacity=".2"/><path d="M200.9 86v114.25c0 1.6 1.13 2.26 2.52 1.45l108.4-62.54a5.57 5.57 0 0 0 2.52-4.36V20.5c0-1.6-1.13-2.26-2.52-1.46l-108.37 62.6a5.56 5.56 0 0 0-2.55 4.36z" fill="#f5f5f5"/><path d="M212.73 90.3c3.9-2.26 7.1-.43 7.1 4.1a15.67 15.67 0 0 1-7.09 12.28c-3.92 2.27-7.1.43-7.1-4.1a15.66 15.66 0 0 1 7.09-12.28zm14.34-5.7l23.32-13.44c1.4-.8 2.52-.23 2.52 1.27a5.42 5.42 0 0 1-2.52 4.19l-23.32 13.44c-1.4.8-2.52.23-2.52-1.27a5.4 5.4 0 0 1 2.52-4.19zm-1.27 9.68l16.38-9.46c.7-.4 1.26-.12 1.26.64a2.69 2.69 0 0 1-1.26 2.09L225.8 97c-.7.4-1.26.12-1.26-.64a2.69 2.69 0 0 1 1.26-2.09zm-17.64 20.5l98.95-57.13c1.4-.8 2.52-.15 2.52 1.46v70.6a5.56 5.56 0 0 1-2.52 4.36l-99 57.16c-1.4.8-2.47.15-2.47-1.45v-70.6a5.57 5.57 0 0 1 2.52-4.38z" class="U"/><g class="T"><path d="M231.84 161.42a1.85 1.85 0 0 1-.95-.25 2.33 2.33 0 0 1-1-2.14v-37.88a6.15 6.15 0 0 1 2.81-4.87L282 87.82a2.29 2.29 0 0 1 2.36-.17 2.32 2.32 0 0 1 1 2.13v37.85a6.1 6.1 0 0 1-2.81 4.86l-49.3 28.46a2.79 2.79 0 0 1-1.41.47zm51.54-72.82a1.68 1.68 0 0 0-.83.27l-49.3 28.46a5 5 0 0 0-2.22 3.86v37.84a1 1 0 0 0 1.64 1l49.3-28.47a5 5 0 0 0 2.23-3.85V89.8a1.28 1.28 0 0 0-.45-1.13.75.75 0 0 0-.37-.09zm-44.76 41.04a3 3 0 0 1-1.52-.4 3.87 3.87 0 0 1-1.68-3.56 10.92 10.92 0 0 1 5-8.69 3.45 3.45 0 0 1 5.6 3.23 11 11 0 0 1-5 8.69 4.9 4.9 0 0 1-2.4.73zm2.4-11.65a9.83 9.83 0 0 0-4.44 7.69 2.32 2.32 0 0 0 3.86 2.22 9.83 9.83 0 0 0 4.43-7.68 2.32 2.32 0 0 0-3.85-2.23z"/><path d="M230.93 155.37l-1-.64 17.13-25.86a1.69 1.69 0 0 1 2.32-.48l18 11.9-.65 1-18-11.9a.51.51 0 0 0-.71.14z"/><path d="M257.7 134.5l-1-.54 13.42-25.17a1.68 1.68 0 0 1 1.3-.88 1.73 1.73 0 0 1 1.46.59l12.36 14.83-.9.74-12.4-14.82a.5.5 0 0 0-.83.08z"/></g><use xlink:href="#Q" class="U"/><use xlink:href="#Q" opacity=".1"/><path d="M347.93 143.54c-2.93 3.5-8.27 10.18-11 13.62a10 10 0 0 0-2.22 6.36c0 1.72.5 3.15 2.16 2.42a11.88 11.88 0 0 0 3.75-2.9c1.6-1.57 7.22-8.34 7.22-8.34s4.32-11.36 6.7-12.08a10.91 10.91 0 0 1 4-.53c-2.86-.94-6.9-2.94-10.6 1.45z" class="a"/><path d="M359.97 139.8c-2.94-2.2-7.9-1.63-10.65 1.7l-6.8 8.37a10.21 10.21 0 0 0 6.17 5.53z" class="W"/><path d="M359.97 139.8c-2.94-2.2-7.9-1.63-10.65 1.7l-6.8 8.37a10.21 10.21 0 0 0 6.17 5.53z" opacity=".1"/><path d="M314.84 230.3l-17.5 20a.81.81 0 0 1-1.42-.58l1.75-26.65z" class="Z"/><path d="M295.93 249.7a.81.81 0 0 0 1.42.58l3.4-3.9a4.48 4.48 0 0 1-4.2-2l-.25-.38z" class="V"/><path d="M340.46 119.56l-.94 2.27-1.14 2.73-40.7 98.5a11.78 11.78 0 0 0 5.86 6.39c4 2.15 8.82 2.53 11.3.87l42.6-103c-1.6 3.3-18.5-4.4-16.96-7.75z" class="Y"/><path d="M336.88 128.15l-2.1 5.07c-.65 1.46 2.1 3.7 5.58 5.5 4.6 2.43 10.53 4.1 11.4 2.2l2.08-5.08c-.87 1.92-6.8.24-11.4-2.2-3.34-1.75-6-3.9-5.6-5.34a.3.3 0 0 1 .05-.16z" class="Z"/><path d="M336.37 129.46c-1.53 3.37 15.44 11.06 17 7.7l2.1-5.07c-1.53 3.37-18.5-4.32-17-7.7z" class="Y"/><path d="M340.46 119.56l-2.08 5c-1.52 3.3 14.8 10.88 16.85 8a.78.78 0 0 0 .11-.18l2.06-5.06c-1.57 3.3-18.47-4.42-16.94-7.76z" class="Z"/><g class="V"><path d="M349.3 98.3l-8.84 21.26c-.66 1.43 2 3.66 5.5 5.48 4.6 2.44 10.54 4.17 11.45 2.27l8.48-20.45c2.37-4.6-5.8-10.4-11.68-10.74-2.16-.16-4.02.46-4.9 2.18z"/><circle cx="355.82" cy="122.46" r="7.12"/></g><path d="M367.85 242.9h5v8.58h-5zm-12.37-.44l-5 .17-.25-9.1 5-.17.25 9.1z" class="b"/><path d="M372.54 174.87c0 4.8.62 33.8.62 33.8.1 1.38 1.4 3.92 1.13 9.2-.38 7.2-1 25.88-1 25.88s-2.36 2.33-5.68 0l-5.43-33c-.8-6.2-2.12-23.1-2.12-23.1l-4.6 19.9s.82 4.67 1 8-.85 20.56-.85 20.56a5.47 5.47 0 0 1-5.46.21c0 0-4-26-4.54-29s3.52-32.4 3.52-32.4z" class="Y"/><path d="M367.72 140.23a5.48 5.48 0 0 1 4.41 4.21 18.14 18.14 0 0 1 .41 3.81v26.62c-3.52 3.82-15.78 5.6-23.46 0 0 0 .16-23.52.73-27.38 1-6.7 4.2-9.1 7.44-8.85l7.74 1.1z" class="W"/><g class="V"><path d="M368.13 127.52a62.34 62.34 0 0 1-1.62 6.31 2.44 2.44 0 0 1-1.42 1.14l.08-3.8z"/><path d="M366.68 119.76a2.65 2.65 0 0 1 2.21.77c.95 1 .42 4-.76 7l-2.18.25z"/></g><path d="M365.3 127.77c.44.26 1.06-.57 1.6-1.14a1.88 1.88 0 0 1 3.16.52c.9 1.88-.77 4.36-2.15 4.8-2.38.75-2.74-.78-2.74-.78l-.18 8.6a7.66 7.66 0 0 1-5.78 4.38c-4.22.57-3.35-2.9-2-4.6v-2.6a15.21 15.21 0 0 1-3.2.16c-1.76-.27-2.86-1.65-3.4-3.54-.85-3-1.17-5.5-.45-11.5.8-6.56 8.42-6.63 12.54-4s2.6 9.73 2.6 9.73z" class="b"/><g class="V"><path d="M365.3 128.5c.22 0 1.05-1.37 1.6-1.87.75-.68-.22-6.87-.22-6.87a3 3 0 0 0-.73-3.14c-1-1.13-2.75-1.25-5.7-1.72l-5.4-1c-1.84-.34-3.36-.7-4.66.43a3.27 3.27 0 0 0-.9 3.65 3 3 0 0 0 1.84 1.69s.8.7 3.6 1.05a40.39 40.39 0 0 0 7.73-.15c.8-.1 1 .68 1.4 2.82.4 1.92.7 5.1 1.44 5.1z"/><path d="M366.67 120.24l2.64-1.42a1.46 1.46 0 0 0-2-.66 1.59 1.59 0 0 0-.64 2.08z"/></g><path d="M357.25 136.9a29.93 29.93 0 0 0 5.28-1.52 4.45 4.45 0 0 0 1.88-1.86 6.1 6.1 0 0 1-1.07 2.2c-1 1.28-6.1 2.22-6.1 2.22z" class="a"/><path d="M358.2 126.8a.79.79 0 1 0 1.57 0 .79.79 0 0 0-.78-.81.8.8 0 0 0-.79.81zm.82-2.96l1.68.92a1 1 0 0 0-.39-1.33.94.94 0 0 0-1.29.41z" class="V"/><path d="M357.6 132.2l-1.8.67a.94.94 0 0 0 1.21.6 1 1 0 0 0 .58-1.27z" class="a"/><path d="M351.2 124.5l1.53-1.18a.94.94 0 0 0-1.28-.16 1 1 0 0 0-.25 1.34zm.48 2.07a.79.79 0 1 0 .221-.568.79.79 0 0 0-.221.568z" class="V"/><path d="M355.67 125.83l-.26 4.7-2.46-.84 2.72-3.87z" class="a"/><path d="M367.85 249.02v-.72c-.48.2-1.6 4.47-3.58 6.28-1.58 1.44-3.74 3.1-4.3 4.72s3 2.6 4.48 2.33c1.72-.3 4.7-1.5 5.44-2.63s1.1-2.77 1.7-3.6 2-1.73 2.33-2.68a6 6 0 0 0-.29-2.64c-.23-.88-.48-1.86-.78-1.78v.55a4 4 0 0 1-2.51.85c-.73.03-2.5-.12-2.5-.68zm-17.4-7.94c-.26 0-.48.38-1 1a10.91 10.91 0 0 1-3 2.12c-1.88.94-5.53 2.4-7.18 3.13-1 .47-1 1.7.08 2.42s3.65 1.22 6.74.53c1.68-.38 3.88-1.93 5.27-1.85s4 .07 5-.64.6-2.2.32-3.5-.77-3.58-1.24-3.48v.44c-.6.9-3.67 1.3-5 .6zm9.6-53.4a18.51 18.51 0 0 1-7-4 14.41 14.41 0 0 0 5.35 4.87l-1.5 12.82z" class="V"/><path d="M332 168.97a32.18 32.18 0 0 1 3.69.72 6.82 6.82 0 0 0 3.22.55c1.43-.1 5.17-1.86 8.48-3.87a38.06 38.06 0 0 0 9.45-8.78c3-4.25 6.32-10.95 7.9-13.5s3.1-2.83 4.85-2.75c2.08.08 3.4 2 1.58 5.93a81 81 0 0 1-9.53 15.12 40.37 40.37 0 0 1-10.07 8.56 47.31 47.31 0 0 1-10.48 4.51c-1.06.35-1.76.88-3.7 1.8a9.13 9.13 0 0 1-2.49.92 11.34 11.34 0 0 1-3.29 0 7.72 7.72 0 0 1-3.78-1.62 4.77 4.77 0 0 1-1.4-1.78 3.33 3.33 0 0 1-.17-2.24 1 1 0 0 1 .22-.4 1.09 1.09 0 0 1 .8-.18c1.56 0 3.23.34 4.78.23 1.3-.1 2.23-.34 2-.53s-1-.07-2-.52-1.73-1.46-1.45-2 .28-.43 1.38-.15z" class="b"/><path d="M368.92 140.6a3.56 3.56 0 0 1 3.62 3.77c0 2.73-4.22 10.64-7.45 15.15 0 0-5-.32-7.67-4.1l6-9.86c1.12-2.14 3.17-5.06 5.5-4.95z" class="W"/><path d="M327.06 152a8.6 8.6 0 0 1 4.82-.6c1.32.2 1.32 4.6-2.9 6-2.75.9-4.4.5-5.3 2.76 0 0-1.78-.23-1.37-2.76a14.17 14.17 0 0 1 3.35-7c1.2-1.43 1.3-2.63 1.9-2.23s.36 1.8.36 1.8z" class="b"/><defs ><path id="B" d="M59.74 293.15l7-4s3.37-18.54.85-34.47c-3.54-22.4-18.8-30.13-24.33-27.9s-6.8 8.84 3.2 21.8c5.88 7.63 13.47 23.78 13.28 44.58z"/><path id="C" d="M372.03 238.15c.3-3.5 3-9.5 7-13.75s10.4-6.3 14.36-4.6c3.68 1.6 2.87 6.53-2 9.45s-12.1 6.5-14.57 12l-4.8 6.63z"/><path id="D" d="M285.92 302.02l-40-23.1c-.7-.4-.73-1-.08-1.4a2.69 2.69 0 0 1 2.44 0l40 23.1c.7.4.73 1 .08 1.4a2.73 2.73 0 0 1-2.44-.01z"/><path id="E" d="M108.6 166.22l-1.9-1.07a5.56 5.56 0 0 1-2.52-4.36v-26.95a5.56 5.56 0 0 1 2.52-4.36l70.6-40.76a5.59 5.59 0 0 1 5 0l1.88 1.1a5.57 5.57 0 0 1 2.52 4.36v26.98a5.59 5.59 0 0 1-2.52 4.37l-70.6 40.75a5.51 5.51 0 0 1-4.99-.05z"/><path id="F" d="M115.83 137.66l-10.9-6.3a5.22 5.22 0 0 0-.74 2.48v26.93a5.56 5.56 0 0 0 2.52 4.36l1.9 1.1a5.51 5.51 0 0 0 5 0l2.2-1.27z"/><path id="G" d="M141.26 122.98l24.4-14.1c1-.57 1.8-.3 1.8.58a3.58 3.58 0 0 1-1.79 2.65l-24.4 14.1c-1 .57-1.8.3-1.8-.58a3.58 3.58 0 0 1 1.8-2.65z"/><path id="H" d="M140.98 131.33l39.48-22.82c.84-.48 1.52-.26 1.52.5a3 3 0 0 1-1.52 2.24l-39.5 22.82c-.84.48-1.52.26-1.52-.5a3 3 0 0 1 1.55-2.24z"/><path id="I" d="M140.98 136.8l39.48-22.82c.84-.48 1.52-.26 1.52.5a3 3 0 0 1-1.52 2.24l-39.5 22.8c-.84.5-1.52.27-1.52-.5a3 3 0 0 1 1.55-2.23z"/><path id="J" d="M140.98 142.24l39.48-22.8c.84-.48 1.52-.26 1.52.5a3 3 0 0 1-1.52 2.23l-39.5 22.8c-.84.48-1.52.26-1.52-.5a3 3 0 0 1 1.55-2.23z"/><path id="K" d="M117.85 136.5l14.87-8.58c1.12-.65 2-.13 2 1.16v17.18a4.44 4.44 0 0 1-2 3.49l-14.87 8.6c-1.12.64-2 .12-2-1.17V140a4.46 4.46 0 0 1 2-3.5z"/><path id="L" d="M119.12 144.02a1.85 1.85 0 0 1-.9-.23 2.21 2.21 0 0 1-1-2 5.79 5.79 0 0 1 2.66-4.6 2 2 0 0 1 3.23 1.87 5.78 5.78 0 0 1-2.65 4.6 2.68 2.68 0 0 1-1.34.36zm1.34-5.87a4.68 4.68 0 0 0-2.07 3.59.88.88 0 0 0 1.49.86 4.66 4.66 0 0 0 2.07-3.59.88.88 0 0 0-1.49-.86z"/><path id="M" d="M111.1 182.84v26.93c0 1.6 1.13 2.26 2.52 1.45l70.6-40.75a5.59 5.59 0 0 0 2.52-4.37v-26.95c0-1.6-1.13-2.25-2.52-1.45l-70.6 40.75a5.59 5.59 0 0 0-2.52 4.39z"/><path id="N" d="M117.85 181.5l14.87-8.58c1.12-.65 2-.13 2 1.16v17.18a4.44 4.44 0 0 1-2 3.49l-14.87 8.6c-1.12.64-2 .12-2-1.17V185a4.46 4.46 0 0 1 2-3.5z"/><path id="O" d="M134.74 185.15l-2.84-3a1.24 1.24 0 0 0-2 .34l-4.08 9-2-1.8a1.27 1.27 0 0 0-1-.31 1.25 1.25 0 0 0-.88.56l-6.1 9.5v2.17l7.2-11.05 6.57 5.95 1.05-.6-3.95-3.58 4.23-9.35h.13l3.68 3.9z"/><path id="P" d="M117.85 225.5l14.87-8.58c1.12-.65 2-.13 2 1.16v17.18a4.44 4.44 0 0 1-2 3.49l-14.87 8.6c-1.12.64-2 .12-2-1.17V229a4.46 4.46 0 0 1 2-3.5z"/><path id="Q" d="M314.35 20.5c0-1.6-1.13-2.26-2.52-1.46l-108.37 62.6a5.56 5.56 0 0 0-2.52 4.36v5.27l113.4-65.5z"/></defs></svg>