<?xml version="1.0" encoding="UTF-8" standalone="no"?>
<svg
   xmlns:dc="http://purl.org/dc/elements/1.1/"
   xmlns:cc="http://creativecommons.org/ns#"
   xmlns:rdf="http://www.w3.org/1999/02/22-rdf-syntax-ns#"
   xmlns:svg="http://www.w3.org/2000/svg"
   xmlns="http://www.w3.org/2000/svg"
   xmlns:sodipodi="http://sodipodi.sourceforge.net/DTD/sodipodi-0.dtd"
   xmlns:inkscape="http://www.inkscape.org/namespaces/inkscape"
   id="Warstwa_1"
   data-name="Warstwa 1"
   viewBox="0 0 544.54242 549.96619"
   version="1.1"
   sodipodi:docname="sygnet w kolorze.svg"
   width="544.54242"
   height="549.96619"
   inkscape:version="0.92.3 (2405546, 2018-03-11)">
  <metadata
     id="metadata18">
    <rdf:RDF>
      <cc:Work
         rdf:about="">
        <dc:format>image/svg+xml</dc:format>
        <dc:type
           rdf:resource="http://purl.org/dc/dcmitype/StillImage" />
      </cc:Work>
    </rdf:RDF>
  </metadata>
  <sodipodi:namedview
     pagecolor="#ffffff"
     bordercolor="#666666"
     borderopacity="1"
     objecttolerance="10"
     gridtolerance="10"
     guidetolerance="10"
     inkscape:pageopacity="0"
     inkscape:pageshadow="2"
     inkscape:window-width="1920"
     inkscape:window-height="1026"
     id="namedview16"
     showgrid="false"
     inkscape:zoom="0.921875"
     inkscape:cx="609.53752"
     inkscape:cy="303.06646"
     inkscape:window-x="0"
     inkscape:window-y="0"
     inkscape:window-maximized="1"
     inkscape:current-layer="Warstwa_1" />
  <defs
     id="defs4">
    <style
       id="style2">.cls-1{fill:#d4f5f3;}</style>
  </defs>
  <title
     id="title6">w2</title>
  <g
     id="logo"
     transform="translate(-231.52762,-178.98305)">
    <path
       class="cls-1"
       d="m 637.16,695.58 h 138.91 v 33.17 H 637.16 Z"
       id="path8"
       inkscape:connector-curvature="0"
       style="fill:#d4f5f3" />
    <path
       class="cls-1"
       d="m 233.36,309.68 h 69.86 l 25.91,252.58 c 3.12,35.27 5.19,58.59 6.76,99 h 2 c 7.2,-40.46 12.5,-63.9 20.45,-98.53 l 37.57,-145.69 h 53.51 l 36.17,145.69 c 8.35,34.39 13.14,57.83 20.45,98.53 h 2.56 c 2.08,-40.7 3.12,-64 6.24,-98.53 l 24.86,-253.1 h 66.35 l -58.82,419.12 h -75.3 L 435.21,570.28 A 751.66,751.66 0 0 1 420.94,493.79 H 419 c -4,25.44 -7.71,50.69 -13.74,76.49 L 368.79,728.75 H 295 Z"
       id="path10"
       inkscape:connector-curvature="0"
       style="fill:#d4f5f3" />
    <path
       class="cls-1"
       d="M 776.07,336.23 H 667.7 v -26.55 l 36.46,-36.88 q 15.63,-16.33 20.43,-22.31 a 49.09,49.09 0 0 0 6.69,-10.27 22,22 0 0 0 1.89,-9 11.69,11.69 0 0 0 -3.78,-9.19 q -3.78,-3.37 -10.62,-3.37 a 29,29 0 0 0 -14.25,4 102.3,102.3 0 0 0 -16.29,11.89 l -22.16,-25.94 q 11.53,-10.32 19.4,-14.76 a 69.69,69.69 0 0 1 17.11,-6.79 84.32,84.32 0 0 1 20.79,-2.35 62.61,62.61 0 0 1 25.89,5.11 40.56,40.56 0 0 1 17.67,14.55 37.44,37.44 0 0 1 6.28,21.2 54.55,54.55 0 0 1 -9,30.89 101.15,101.15 0 0 1 -12.21,15.22 q -7.62,8 -32.43,30.23 v 1 h 56.48 z"
       id="path12"
       inkscape:connector-curvature="0"
       style="fill:#d4f5f3" />
  </g>
  <rect
     style="opacity:1;fill:none;fill-opacity:0.27586209;fill-rule:evenodd;stroke:none;stroke-opacity:1"
     id="rect20"
     width="203.59804"
     height="125.83051"
     x="-103.52762"
     y="-24.949158" />
  <rect
     style="opacity:1;fill:none;fill-opacity:0.27586209;fill-rule:evenodd;stroke:none;stroke-opacity:1"
     id="rect22"
     width="629.69482"
     height="629.69501"
     x="-87.256439"
     y="-22.779663" />
  <rect
     style="opacity:1;fill:none;fill-opacity:0.27586209;fill-rule:evenodd;stroke:none;stroke-opacity:1"
     id="rect24"
     width="52.067795"
     height="13.016949"
     x="259.86221"
     y="216.94914" />
  <rect
     style="opacity:1;fill:none;fill-opacity:0.27586209;fill-rule:evenodd;stroke:none;stroke-opacity:1"
     id="rect26"
     width="568.88354"
     height="570.37714"
     x="-24.341171"
     y="-20.610168" />
  <rect
     style="opacity:1;fill:none;fill-opacity:0.27586209;fill-rule:evenodd;stroke:none;stroke-opacity:1"
     id="rect28"
     width="34.235085"
     height="33.369152"
     x="544.54236"
     y="516.59698" />
  <rect
     style="opacity:1;fill:none;fill-opacity:0.27586209;fill-rule:evenodd;stroke:none;stroke-opacity:1"
     id="rect30"
     width="544.54242"
     height="549.96619"
     x="0"
     y="0" />
</svg>
