<svg id="Warstwa_1" data-name="Warstwa 1" xmlns="http://www.w3.org/2000/svg" viewBox="0 0 1614.98 721.94"><defs><style>.cls-1{fill:#40c6f3;}</style></defs><title>w2</title><g id="logotypy"><g id="kolor"><path class="cls-1" d="M89.2,272.38h24l8.91,86.88c1.07,12.13,1.79,20.15,2.32,34.07h.71c2.47-13.92,4.3-22,7-33.89l12.92-50.11h18.41L176,359.44c2.87,11.83,4.52,19.88,7,33.89h.88c.71-14,1.07-22,2.15-33.89l8.55-87.06H217.4L197.16,416.52h-25.9L158.62,362a259,259,0,0,1-4.9-26.3h-.66c-1.37,8.75-2.65,17.43-4.73,26.3l-12.55,54.51H110.4Z"/><path class="cls-1" d="M231.68,363c0-35.95,25.2-56.52,53.5-56.52S338.68,327,338.68,363c0,35.61-25.2,56.17-53.5,56.17S231.68,398.6,231.68,363Zm84.58,0c0-23.14-12.07-38.52-31.08-38.52S254.1,339.85,254.1,363c0,23,12.07,38.17,31.08,38.17S316.26,386,316.26,363Z"/><path class="cls-1" d="M381.32,309.11h18.13l2,24.91h.52c11.09-17.49,27.63-27.55,46.8-27.55,8.33,0,14.55,1.23,21.06,4.4L465,329.47c-7.31-2.34-11.39-3.43-19.66-3.43-15.39,0-30.23,7.84-42.12,29.53v60.95h-21.9Z"/><path class="cls-1" d="M504.43,260.66h21.9V362h.88l52.9-52.9h24.62l-78.4,78.8v28.61h-21.9Zm42.21,101,13-14,50.26,68.83H585.79Z"/><path class="cls-1" d="M682.08,326.59h-48V309.11H704V416.52h-21.9Zm-7.13-54c0-9.26,6.9-15.63,16.31-15.63s16.32,6.37,16.32,15.63c0,9.43-6.89,15.54-16.32,15.54S675,282,675,272.54Z"/><path class="cls-1" d="M766.08,309.11H784l1.74,17.12h.88c10.76-11,23-19.76,39.57-19.76,25.12,0,36.57,15.44,36.57,43.42v66.63h-21.9V352.76c0-18.75-6.3-27.42-22.23-27.42-11.68,0-19.56,5.76-30.64,17.11v74.07h-21.9Z"/><path class="cls-1" d="M893.41,435.8c0-8.66,6.07-16.9,17.42-23.25v-.88c-5.8-3.24-11-8.78-11-17.83,0-6.94,4.78-14.67,12.83-20.13v-.88c-7.46-5.45-13.52-15-13.52-27.78,0-24,20-38.58,43.22-38.58a46.71,46.71,0,0,1,16.36,2.64H1003v17.07H976.74a30.18,30.18,0,0,1,7.9,19.65c0,23.44-18.61,36.67-42.27,36.67a47.56,47.56,0,0,1-17.24-3.5c-4.79,3.05-7.46,6.51-7.46,11.2,0,7.69,7.52,11.24,21.26,11.24h23c27.77,0,41.61,7.28,41.61,25.72,0,20.71-23.66,37.87-60.83,37.87C912.21,465,893.41,454.87,893.41,435.8Zm88.94-5.08c0-9.3-7.76-11.78-23.05-11.78h-19c-6.61,0-11.9-.44-16.35-1.68-8.92,5-12.12,10.38-12.12,16,0,10.43,11.73,16.73,33.07,16.73C967.82,450,982.35,440.8,982.35,430.72ZM964.9,345.05c0-14-10.09-23.17-22.53-23.17-12.26,0-22.49,9.13-22.49,23.17,0,14.49,10.23,23.43,22.49,23.43C954.81,368.48,964.9,359.54,964.9,345.05Z"/><path class="cls-1" d="M1023.82,430.83h105.52V448.7H1023.82Z"/><path class="cls-1" d="M1144.4,272.38h24l8.91,86.88c1.07,12.13,1.78,20.15,2.32,34.07h.7c2.48-13.92,4.3-22,7-33.89l12.92-50.11h18.4l12.44,50.11c2.87,11.83,4.52,19.88,7,33.89h.88c.71-14,1.07-22,2.14-33.89l8.55-87.06h22.83l-20.25,144.14h-25.89L1213.82,362a259,259,0,0,1-4.9-26.3h-.66c-1.38,8.75-2.66,17.43-4.73,26.3L1191,416.52H1165.6Z"/><path class="cls-1" d="M1288.64,362.64c0-35,26.35-56.17,55.09-56.17,31.51,0,49.46,20.71,49.46,50.7a79.54,79.54,0,0,1-1,11.89h-88.38V353h74.73l-4.74,5.33c0-23.26-11.25-34.93-29.47-34.93-18.8,0-34.22,13.88-34.22,39.21,0,26.38,16.55,39.38,39.63,39.38,12,0,21.72-3.62,31.39-9.45l7.66,13.84A75.9,75.9,0,0,1,1347,419.16C1314.38,419.16,1288.64,398.42,1288.64,362.64Z"/><path class="cls-1" d="M1445.59,404.65h-.7l-2,11.87h-17.3V260.66h21.9V302l-1,19.76h.7c9.26-9.35,22.23-15.28,34.27-15.28,28.39,0,44.29,21.45,44.29,54.55,0,36.77-22.87,58.14-47.9,58.14C1467.45,419.16,1455.23,413.79,1445.59,404.65Zm57.76-43.33c0-22.5-8.17-36.58-27.53-36.58-8.79,0-18.59,4.34-28.34,14.34V389.9c8.91,8.07,19,11,26.21,11C1490.43,400.9,1503.35,386.72,1503.35,361.32Z"/></g></g></svg>