<?xml version="1.0" encoding="UTF-8" standalone="no"?>
<svg
   xmlns:dc="http://purl.org/dc/elements/1.1/"
   xmlns:cc="http://creativecommons.org/ns#"
   xmlns:rdf="http://www.w3.org/1999/02/22-rdf-syntax-ns#"
   xmlns:svg="http://www.w3.org/2000/svg"
   xmlns="http://www.w3.org/2000/svg"
   xmlns:sodipodi="http://sodipodi.sourceforge.net/DTD/sodipodi-0.dtd"
   xmlns:inkscape="http://www.inkscape.org/namespaces/inkscape"
   id="Warstwa_1"
   data-name="Warstwa 1"
   viewBox="0 0 1445.6526 214.97116"
   version="1.1"
   sodipodi:docname="logo-3.svg"
   inkscape:version="0.92.3 (2405546, 2018-03-11)"
   width="1445.6526"
   height="214.97116">
  <metadata
     id="metadata35">
    <rdf:RDF>
      <cc:Work
         rdf:about="">
        <dc:format>image/svg+xml</dc:format>
        <dc:type
           rdf:resource="http://purl.org/dc/dcmitype/StillImage" />
      </cc:Work>
    </rdf:RDF>
  </metadata>
  <sodipodi:namedview
     pagecolor="#ffffff"
     bordercolor="#666666"
     borderopacity="1"
     objecttolerance="10"
     gridtolerance="10"
     guidetolerance="10"
     inkscape:pageopacity="0"
     inkscape:pageshadow="2"
     inkscape:window-width="1920"
     inkscape:window-height="1026"
     id="namedview33"
     showgrid="false"
     inkscape:zoom="0.87918763"
     inkscape:cx="577.68712"
     inkscape:cy="213.11812"
     inkscape:window-x="0"
     inkscape:window-y="0"
     inkscape:window-maximized="1"
     inkscape:current-layer="Warstwa_1" />
  <defs
     id="defs4">
    <style
       id="style2">.cls-1{fill:#d4f5f3;}</style>
  </defs>
  <title
     id="title6">w2</title>
  <g
     id="logotypy"
     transform="translate(-81.893776,-253.32559)">
    <g
       id="kolor">
      <path
         class="cls-1"
         d="m 89.2,272.38 h 24 l 8.91,86.88 c 1.07,12.13 1.79,20.15 2.32,34.07 h 0.71 c 2.47,-13.92 4.3,-22 7,-33.89 l 12.92,-50.11 h 18.41 L 176,359.44 c 2.87,11.83 4.52,19.88 7,33.89 h 0.88 c 0.71,-14 1.07,-22 2.15,-33.89 l 8.55,-87.06 h 22.82 l -20.24,144.14 h -25.9 L 158.62,362 a 259,259 0 0 1 -4.9,-26.3 h -0.66 c -1.37,8.75 -2.65,17.43 -4.73,26.3 l -12.55,54.51 H 110.4 Z"
         id="path8"
         inkscape:connector-curvature="0"
         style="fill:#d4f5f3" />
      <path
         class="cls-1"
         d="m 231.68,363 c 0,-35.95 25.2,-56.52 53.5,-56.52 28.3,0 53.5,20.52 53.5,56.52 0,35.61 -25.2,56.17 -53.5,56.17 -28.3,0 -53.5,-20.57 -53.5,-56.17 z m 84.58,0 c 0,-23.14 -12.07,-38.52 -31.08,-38.52 -19.01,0 -31.08,15.37 -31.08,38.52 0,23 12.07,38.17 31.08,38.17 19.01,0 31.08,-15.17 31.08,-38.17 z"
         id="path10"
         inkscape:connector-curvature="0"
         style="fill:#d4f5f3" />
      <path
         class="cls-1"
         d="m 381.32,309.11 h 18.13 l 2,24.91 h 0.52 c 11.09,-17.49 27.63,-27.55 46.8,-27.55 8.33,0 14.55,1.23 21.06,4.4 l -4.83,18.6 c -7.31,-2.34 -11.39,-3.43 -19.66,-3.43 -15.39,0 -30.23,7.84 -42.12,29.53 v 60.95 h -21.9 z"
         id="path12"
         inkscape:connector-curvature="0"
         style="fill:#d4f5f3" />
      <path
         class="cls-1"
         d="m 504.43,260.66 h 21.9 V 362 h 0.88 l 52.9,-52.9 h 24.62 l -78.4,78.8 v 28.61 h -21.9 z m 42.21,101 13,-14 50.26,68.83 h -24.11 z"
         id="path14"
         inkscape:connector-curvature="0"
         style="fill:#d4f5f3" />
      <path
         class="cls-1"
         d="m 682.08,326.59 h -48 V 309.11 H 704 v 107.41 h -21.9 z m -7.13,-54 c 0,-9.26 6.9,-15.63 16.31,-15.63 9.41,0 16.32,6.37 16.32,15.63 0,9.43 -6.89,15.54 -16.32,15.54 -9.43,0 -16.26,-6.13 -16.26,-15.59 z"
         id="path16"
         inkscape:connector-curvature="0"
         style="fill:#d4f5f3" />
      <path
         class="cls-1"
         d="M 766.08,309.11 H 784 l 1.74,17.12 h 0.88 c 10.76,-11 23,-19.76 39.57,-19.76 25.12,0 36.57,15.44 36.57,43.42 v 66.63 h -21.9 v -63.76 c 0,-18.75 -6.3,-27.42 -22.23,-27.42 -11.68,0 -19.56,5.76 -30.64,17.11 v 74.07 h -21.9 z"
         id="path18"
         inkscape:connector-curvature="0"
         style="fill:#d4f5f3" />
      <path
         class="cls-1"
         d="m 893.41,435.8 c 0,-8.66 6.07,-16.9 17.42,-23.25 v -0.88 c -5.8,-3.24 -11,-8.78 -11,-17.83 0,-6.94 4.78,-14.67 12.83,-20.13 v -0.88 c -7.46,-5.45 -13.52,-15 -13.52,-27.78 0,-24 20,-38.58 43.22,-38.58 a 46.71,46.71 0 0 1 16.36,2.64 H 1003 v 17.07 h -26.26 a 30.18,30.18 0 0 1 7.9,19.65 c 0,23.44 -18.61,36.67 -42.27,36.67 A 47.56,47.56 0 0 1 925.13,379 c -4.79,3.05 -7.46,6.51 -7.46,11.2 0,7.69 7.52,11.24 21.26,11.24 h 23 c 27.77,0 41.61,7.28 41.61,25.72 0,20.71 -23.66,37.87 -60.83,37.87 -30.5,-0.03 -49.3,-10.16 -49.3,-29.23 z m 88.94,-5.08 c 0,-9.3 -7.76,-11.78 -23.05,-11.78 h -19 c -6.61,0 -11.9,-0.44 -16.35,-1.68 -8.92,5 -12.12,10.38 -12.12,16 0,10.43 11.73,16.73 33.07,16.73 22.92,0.01 37.45,-9.19 37.45,-19.27 z M 964.9,345.05 c 0,-14 -10.09,-23.17 -22.53,-23.17 -12.26,0 -22.49,9.13 -22.49,23.17 0,14.49 10.23,23.43 22.49,23.43 12.44,0 22.53,-8.94 22.53,-23.43 z"
         id="path20"
         inkscape:connector-curvature="0"
         style="fill:#d4f5f3" />
      <path
         class="cls-1"
         d="m 1023.82,430.83 h 105.52 v 17.87 h -105.52 z"
         id="path22"
         inkscape:connector-curvature="0"
         style="fill:#d4f5f3" />
      <path
         class="cls-1"
         d="m 1144.4,272.38 h 24 l 8.91,86.88 c 1.07,12.13 1.78,20.15 2.32,34.07 h 0.7 c 2.48,-13.92 4.3,-22 7,-33.89 l 12.92,-50.11 h 18.4 l 12.44,50.11 c 2.87,11.83 4.52,19.88 7,33.89 h 0.88 c 0.71,-14 1.07,-22 2.14,-33.89 l 8.55,-87.06 h 22.83 l -20.25,144.14 h -25.89 L 1213.82,362 a 259,259 0 0 1 -4.9,-26.3 h -0.66 c -1.38,8.75 -2.66,17.43 -4.73,26.3 L 1191,416.52 h -25.4 z"
         id="path24"
         inkscape:connector-curvature="0"
         style="fill:#d4f5f3" />
      <path
         class="cls-1"
         d="m 1288.64,362.64 c 0,-35 26.35,-56.17 55.09,-56.17 31.51,0 49.46,20.71 49.46,50.7 a 79.54,79.54 0 0 1 -1,11.89 h -88.38 V 353 h 74.73 l -4.74,5.33 c 0,-23.26 -11.25,-34.93 -29.47,-34.93 -18.8,0 -34.22,13.88 -34.22,39.21 0,26.38 16.55,39.38 39.63,39.38 12,0 21.72,-3.62 31.39,-9.45 l 7.66,13.84 A 75.9,75.9 0 0 1 1347,419.16 c -32.62,0 -58.36,-20.74 -58.36,-56.52 z"
         id="path26"
         inkscape:connector-curvature="0"
         style="fill:#d4f5f3" />
      <path
         class="cls-1"
         d="m 1445.59,404.65 h -0.7 l -2,11.87 h -17.3 V 260.66 h 21.9 V 302 l -1,19.76 h 0.7 c 9.26,-9.35 22.23,-15.28 34.27,-15.28 28.39,0 44.29,21.45 44.29,54.55 0,36.77 -22.87,58.14 -47.9,58.14 -10.4,-0.01 -22.62,-5.38 -32.26,-14.52 z m 57.76,-43.33 c 0,-22.5 -8.17,-36.58 -27.53,-36.58 -8.79,0 -18.59,4.34 -28.34,14.34 v 50.82 c 8.91,8.07 19,11 26.21,11 16.74,0 29.66,-14.18 29.66,-39.58 z"
         id="path28"
         inkscape:connector-curvature="0"
         style="fill:#d4f5f3" />
    </g>
  </g>
  <rect
     style="opacity:1;fill:none;fill-opacity:0.27586209;fill-rule:evenodd;stroke:none;stroke-opacity:1"
     id="rect885"
     width="424.25528"
     height="146.72636"
     x="-53.458435"
     y="19.336029" />
  <rect
     style="opacity:1;fill:none;fill-opacity:0.27586209;fill-rule:evenodd;stroke:none;stroke-opacity:1"
     id="rect887"
     width="1478.6377"
     height="226.34532"
     x="11.374146"
     y="-4.5496674" />
  <rect
     style="opacity:1;fill:none;fill-opacity:0.27586209;fill-rule:evenodd;stroke:none;stroke-opacity:1"
     id="rect889"
     width="145.58894"
     height="2.2748272"
     x="1329.6365"
     y="207.00928" />
  <rect
     style="opacity:1;fill:none;fill-opacity:0.27586209;fill-rule:evenodd;stroke:none;stroke-opacity:1"
     id="rect891"
     width="1445.6526"
     height="214.97116"
     x="0"
     y="0" />
</svg>
