<svg xmlns="http://www.w3.org/2000/svg" viewBox="0 0 494.98 131.36"><g fill="#92e0e1"><path d="M65.2 1.32c35.3 0 63.9 28.82 63.9 64.37s-28.6 64.37-63.9 64.37S1.33 101.23 1.33 65.68 29.93 1.32 65.2 1.32m0-1.3C29.2.01 0 29.42 0 65.7s29.2 65.63 65.2 65.63 65.2-29.4 65.2-65.68S101.23 0 65.2 0zm0 13.12c31.922 0 57.8 25.878 57.8 57.8s-25.878 57.8-57.8 57.8c-31.7 0-57.38-25.88-57.38-57.8s25.7-57.77 57.38-57.8m0-1.32c-32.4 0-58.68 26.5-58.68 59.12s26.27 59.1 58.68 59.1 58.7-26.47 58.7-59.1-26.27-59.12-58.7-59.12z"/><path d="M65.2 24.96a51.23 51.23 0 0 1 36.699 87.33 51.23 51.23 0 0 1-87.579-36.1c-.066-28.185 22.696-51.103 50.88-51.23m0-1.32a52.55 52.55 0 0 0-37.673 89.572A52.55 52.55 0 0 0 117.38 76.19a52.36 52.36 0 0 0-52.17-52.55z"/><path d="M65.2 36.78a44.67 44.67 0 0 1 32.03 76.141A44.67 44.67 0 0 1 20.87 81.44c-.083-24.574 19.766-44.566 44.34-44.66m0-1.3a46 46 0 0 0-33.001 78.401A46 46 0 0 0 110.86 81.47a45.81 45.81 0 0 0-45.65-46z"/><path d="M65.2 48.6a38.1 38.1 0 0 1 27.32 64.94A38.1 38.1 0 0 1 27.39 86.7c-.055-20.956 16.864-38 37.82-38.1m0-1.3a39.41 39.41 0 0 0-28.26 67.173A39.41 39.41 0 0 0 104.33 86.7c.066-21.675-17.445-39.303-39.12-39.38z"/><path d="M65.2 60.43a31.53 31.53 0 0 1 22.603 53.746A31.53 31.53 0 0 1 33.91 91.95a31.41 31.41 0 0 1 31.3-31.52m0-1.32a32.85 32.85 0 0 0-23.55 55.996A32.85 32.85 0 0 0 97.82 91.95c.06-18.072-14.538-32.774-32.6-32.84z"/><path d="M65.2 72.25a25 25 0 0 1 17.976 42.598A25 25 0 0 1 40.43 97.25a24.86 24.86 0 0 1 24.78-25m0-1.3a26.27 26.27 0 0 0-18.779 44.792A26.27 26.27 0 0 0 91.33 97.21a26.18 26.18 0 0 0-26.12-26.27z"/><path d="M65.2 84.07a18.39 18.39 0 0 1 13.18 31.347 18.39 18.39 0 0 1-31.44-12.957c-.033-10.12 8.14-18.35 18.26-18.4m0-1.3a19.71 19.71 0 0 0-14.123 33.6 19.71 19.71 0 0 0 33.693-13.9 19.63 19.63 0 0 0-19.57-19.7z"/><path d="M65.2 95.9a11.82 11.82 0 0 1 8.48 20.146 11.82 11.82 0 0 1-20.21-8.326A11.77 11.77 0 0 1 65.21 95.9m0-1.32a13.14 13.14 0 0 0-9.413 22.399 13.14 13.14 0 0 0 22.463-9.259 13.09 13.09 0 0 0-13.05-13.14z"/><path d="M65.2 107.72a5.26 5.26 0 0 1 3.784 8.965A5.26 5.26 0 0 1 60 112.97a5.24 5.24 0 0 1 5.21-5.25m0-1.32a6.57 6.57 0 0 0-4.713 11.198 6.57 6.57 0 0 0 11.233-4.628 6.54 6.54 0 0 0-6.52-6.57z"/></g><path d="M218.85 38.07a1.74 1.74 0 0 1 .48 1.25l-.1.75-11.55 37.16a1.5 1.5 0 0 1-.55.81 1.42 1.42 0 0 1-.86.29 1.49 1.49 0 0 1-1.56-1.1l-9-24.77-9 24.77a1.63 1.63 0 0 1-1.57 1.1 1.44 1.44 0 0 1-.86-.29 1.33 1.33 0 0 1-.5-.81l-11.6-37.13a1.72 1.72 0 0 1-.15-.69 1.7 1.7 0 0 1 .54-1.31 1.78 1.78 0 0 1 1.18-.49 1.63 1.63 0 0 1 .94.29 1.41 1.41 0 0 1 .57.81L185.5 71.9l8.77-24.3c.32-.78.8-1.14 1.46-1.1a1.16 1.16 0 0 1 .92.26 2 2 0 0 1 .6.84l8.72 24.3L216.1 38.7a1.56 1.56 0 0 1 1.57-1.1 1.69 1.69 0 0 1 1.2.46zm28.3 33.3a13.65 13.65 0 0 1-4.75 5.54 12.34 12.34 0 0 1-13.47 0 13.67 13.67 0 0 1-4.76-5.54 19 19 0 0 1 0-15.78 13.89 13.89 0 0 1 4.76-5.57 12.19 12.19 0 0 1 13.47 0 13.87 13.87 0 0 1 4.75 5.57 19 19 0 0 1 0 15.78zm-2.72-14.15a10.68 10.68 0 0 0-3.62-4.38 8.87 8.87 0 0 0-5.15-1.6 8.75 8.75 0 0 0-5.12 1.6 10.93 10.93 0 0 0-3.63 4.38 15.28 15.28 0 0 0 0 12.47 11 11 0 0 0 3.63 4.37 8.75 8.75 0 0 0 5.12 1.6 9 9 0 0 0 5.15-1.57 10.46 10.46 0 0 0 3.62-4.35 15.61 15.61 0 0 0 0-12.52zm25.23-8.76a1.5 1.5 0 0 1 .83 1.39 1.92 1.92 0 0 1-.42 1.3 1.27 1.27 0 0 1-1 .5 3.89 3.89 0 0 1-1-.29 3.84 3.84 0 0 0-1.43-.29 5.88 5.88 0 0 0-3.84 1.65 12.55 12.55 0 0 0-3.13 4.26 12.28 12.28 0 0 0-1.23 5.28V76.6a1.75 1.75 0 0 1-.45 1.24 1.5 1.5 0 0 1-2.24 0 1.75 1.75 0 0 1-.45-1.24v-26a1.75 1.75 0 0 1 .45-1.24 1.5 1.5 0 0 1 2.24 0 1.75 1.75 0 0 1 .45 1.24v5.1a13.26 13.26 0 0 1 3.63-5.48 8.54 8.54 0 0 1 5.72-2.24 3.83 3.83 0 0 1 1.87.48zm27.36 28.14a1.57 1.57 0 0 1-.55 1.24 1.6 1.6 0 0 1-1 .5 1.42 1.42 0 0 1-1.15-.64l-11.56-13.57-3.9 3.7v8.76a1.75 1.75 0 0 1-.45 1.24 1.5 1.5 0 0 1-2.24 0 1.75 1.75 0 0 1-.45-1.24V37.15a1.78 1.78 0 0 1 .45-1.25 1.52 1.52 0 0 1 2.24 0 1.78 1.78 0 0 1 .45 1.25V63.6l15.1-14.44a1.4 1.4 0 0 1 1.09-.58 1.38 1.38 0 0 1 1.05.55 1.83 1.83 0 0 1 .47 1.19 2 2 0 0 1-.58 1.34L285.22 61.8l11.33 13.45a2.09 2.09 0 0 1 .47 1.34zm6.16-32.87a2.13 2.13 0 0 1-.57-1.6v-.58a2 2 0 0 1 .6-1.59 2.31 2.31 0 0 1 1.64-.55 1.87 1.87 0 0 1 2.09 2.14v.58a2.16 2.16 0 0 1-.55 1.6 2.13 2.13 0 0 1-1.59.55 2.22 2.22 0 0 1-1.62-.55zm2.74 34.1a1.45 1.45 0 0 1-1.12.5 1.44 1.44 0 0 1-1.12-.5 1.75 1.75 0 0 1-.45-1.24V49.9a1.78 1.78 0 0 1 .45-1.25 1.43 1.43 0 0 1 1.12-.49 1.44 1.44 0 0 1 1.12.49 1.78 1.78 0 0 1 .45 1.25v26.7a1.75 1.75 0 0 1-.45 1.24zm28.3-26.68a14 14 0 0 1 2.28 8.38V76.6a1.72 1.72 0 0 1-.47 1.24 1.49 1.49 0 0 1-1.1.5 1.44 1.44 0 0 1-1.12-.5 1.75 1.75 0 0 1-.45-1.24V59.7a10.17 10.17 0 0 0-1.7-6.12 6 6 0 0 0-5.24-2.35 8.42 8.42 0 0 0-4.26 1.16 9.4 9.4 0 0 0-3.26 3.1 7.6 7.6 0 0 0-1.26 4.21v16.9a1.74 1.74 0 0 1-.44 1.24 1.45 1.45 0 0 1-1.12.5 1.42 1.42 0 0 1-1.12-.5 1.75 1.75 0 0 1-.45-1.24v-26a1.75 1.75 0 0 1 .45-1.24 1.42 1.42 0 0 1 1.12-.5 1.45 1.45 0 0 1 1.12.5 1.74 1.74 0 0 1 .44 1.24v3.2a11.61 11.61 0 0 1 4.05-4.14A10 10 0 0 1 327.1 48c3.23.01 5.6 1.07 7.12 3.17zm34.1-1.97a1.88 1.88 0 0 1 .45 1.31v25.1a16.38 16.38 0 0 1-1.7 7.74 11.78 11.78 0 0 1-4.65 4.9 13.3 13.3 0 0 1-6.76 1.69 15.21 15.21 0 0 1-3.84-.53 13.87 13.87 0 0 1-3.44-1.33q-1.44-.8-1.65-1.68a1.36 1.36 0 0 1-.36-.93 1.09 1.09 0 0 1 .47-.93.81.81 0 0 1 .52-.17 3.54 3.54 0 0 1 1.2.41l1.1.52a15.51 15.51 0 0 0 6.05 1.39 9.32 9.32 0 0 0 7.29-2.93 11.38 11.38 0 0 0 2.64-7.92v-3.6a10.38 10.38 0 0 1-4.13 4.9 10.94 10.94 0 0 1-5.9 1.77 11.2 11.2 0 0 1-6.5-2 13.64 13.64 0 0 1-4.57-5.54 19.62 19.62 0 0 1 0-15.84 13.64 13.64 0 0 1 4.57-5.54 11.12 11.12 0 0 1 6.45-2 10.64 10.64 0 0 1 6 1.83 11.69 11.69 0 0 1 4.05 4.38v-3.7a1.88 1.88 0 0 1 .44-1.28 1.39 1.39 0 0 1 1.12-.52 1.41 1.41 0 0 1 1.15.49zm-7.27 24.94a10.17 10.17 0 0 0 3.56-4.35 15.19 15.19 0 0 0 1.27-6.35 15 15 0 0 0-1.27-6.32 10.2 10.2 0 0 0-3.56-4.32 8.92 8.92 0 0 0-5.14-1.54 8.6 8.6 0 0 0-5.09 1.6 10.61 10.61 0 0 0-3.5 4.38 14.54 14.54 0 0 0-1.28 6.2 14.77 14.77 0 0 0 1.28 6.27 10.64 10.64 0 0 0 3.55 4.37 8.6 8.6 0 0 0 5.09 1.6 8.92 8.92 0 0 0 5.09-1.54zm74.54-36.05a1.74 1.74 0 0 1 .47 1.28l-.1.75-11.54 37.13a1.55 1.55 0 0 1-.55.81 1.44 1.44 0 0 1-.86.29 1.49 1.49 0 0 1-1.56-1.1l-9-24.77-9 24.77a1.63 1.63 0 0 1-1.57 1.1 1.44 1.44 0 0 1-.86-.29 1.33 1.33 0 0 1-.5-.81l-11.6-37.13a1.72 1.72 0 0 1-.15-.69 1.7 1.7 0 0 1 .54-1.31 1.78 1.78 0 0 1 1.18-.49 1.63 1.63 0 0 1 .94.29 1.41 1.41 0 0 1 .57.81l10.24 33.18L411 47.6a1.44 1.44 0 0 1 1.46-1.1 1.16 1.16 0 0 1 .92.26 2 2 0 0 1 .6.84l8.72 24.3 10.13-33.18a1.56 1.56 0 0 1 1.57-1.1 1.69 1.69 0 0 1 1.2.46zM463.07 63a1.48 1.48 0 0 1-1.09.49h-19.74a14.49 14.49 0 0 0 1.28 6.23 10.33 10.33 0 0 0 3.65 4.35 9.82 9.82 0 0 0 5.62 1.6 8.76 8.76 0 0 0 4.54-1.16 9.53 9.53 0 0 0 3.18-3 1.68 1.68 0 0 1 1.1-.52 1.24 1.24 0 0 1 .94.46 1.53 1.53 0 0 1 .42 1 1.82 1.82 0 0 1-.52 1.21 13.6 13.6 0 0 1-4.21 3.72 10.67 10.67 0 0 1-5.35 1.45 13.13 13.13 0 0 1-7.1-1.92 12.92 12.92 0 0 1-4.81-5.36 17.62 17.62 0 0 1-1.72-8 19.19 19.19 0 0 1 1.7-8.32 13.07 13.07 0 0 1 4.51-5.45 10.62 10.62 0 0 1 6-1.89 11.23 11.23 0 0 1 5.86 1.74 12.15 12.15 0 0 1 4.47 4.75 15.54 15.54 0 0 1 1.77 7.43 1.64 1.64 0 0 1-.5 1.19zm-17.25-9.3a11.06 11.06 0 0 0-3.32 6.64h17.83v-.47a9.85 9.85 0 0 0-1.59-4.53 8.79 8.79 0 0 0-7.31-4 8.22 8.22 0 0 0-5.61 2.36zm43.15-3.73a13.09 13.09 0 0 1 4.42 5.48 18.94 18.94 0 0 1 1.59 7.87 19.25 19.25 0 0 1-1.59 8 13.63 13.63 0 0 1-4.39 5.6 10.37 10.37 0 0 1-6.24 2 9.84 9.84 0 0 1-5.51-1.66 12.69 12.69 0 0 1-4.1-4.38v3.83a1.93 1.93 0 0 1-.44 1.28 1.48 1.48 0 0 1-2.25 0 1.93 1.93 0 0 1-.44-1.28V37.2a1.81 1.81 0 0 1 .44-1.24 1.54 1.54 0 0 1 2.25 0 1.81 1.81 0 0 1 .44 1.24v17.12a11.75 11.75 0 0 1 4-4.58 9.75 9.75 0 0 1 5.59-1.74 10.63 10.63 0 0 1 6.23 1.97zm-1.64 24.06a10.75 10.75 0 0 0 3.39-4.43 15.44 15.44 0 0 0 1.23-6.28 15.13 15.13 0 0 0-1.23-6.23 10.33 10.33 0 0 0-3.39-4.28 8.1 8.1 0 0 0-4.88-1.57 8.38 8.38 0 0 0-5 1.54 9.82 9.82 0 0 0-3.4 4.32 16.84 16.84 0 0 0 0 12.56 10.61 10.61 0 0 0 3.39 4.4 8.09 8.09 0 0 0 4.94 1.6 7.9 7.9 0 0 0 4.95-1.63z" fill="#516fca"/></svg>