<svg id="Warstwa_1" data-name="Warstwa 1" xmlns="http://www.w3.org/2000/svg" viewBox="0 0 397.12 384.21"><title>logo2</title><path d="M255.5,57" transform="translate(-56.96 -46)" style="fill:none;stroke:#92e0e1;stroke-miterlimit:10"/><path d="M388,189.5" transform="translate(-56.96 -46)" style="fill:none;stroke:#92e0e1;stroke-miterlimit:10"/><path d="M114.37,373a1.82,1.82,0,0,1,.58,1.41l-.13.83-14.15,41a1.62,1.62,0,0,1-.67.9,1.88,1.88,0,0,1-1,.32A1.83,1.83,0,0,1,97,416.19L86,388.87,74.88,416.19A2,2,0,0,1,73,417.41a1.88,1.88,0,0,1-1-.32,1.37,1.37,0,0,1-.61-.9l-14.15-41a1.79,1.79,0,0,1,.48-2.2,2.23,2.23,0,0,1,1.45-.55,2.19,2.19,0,0,1,1.15.32,1.65,1.65,0,0,1,.7.9l12.55,36.61,10.75-26.82A1.78,1.78,0,0,1,86,382.27a1.61,1.61,0,0,1,1.12.29,2.43,2.43,0,0,1,.74.93l10.68,26.82L111,373.7a1.9,1.9,0,0,1,1.92-1.22A2.12,2.12,0,0,1,114.37,373Z" transform="translate(-56.96 -46)" style="fill:#d4f5f3"/><path d="M149.19,409.73a15.59,15.59,0,0,1-5.83,6.11,16.52,16.52,0,0,1-16.51,0,15.56,15.56,0,0,1-5.82-6.11,18.93,18.93,0,0,1,0-17.41,16,16,0,0,1,28.16,0,19,19,0,0,1,0,17.41Zm-3.33-15.62a12.27,12.27,0,0,0-4.45-4.83,11.78,11.78,0,0,0-6.3-1.76,11.64,11.64,0,0,0-6.28,1.76,12.55,12.55,0,0,0-4.44,4.83,14.52,14.52,0,0,0-1.64,6.92,14.31,14.31,0,0,0,1.64,6.84,12.51,12.51,0,0,0,4.44,4.84,11.64,11.64,0,0,0,6.28,1.76,11.93,11.93,0,0,0,10.75-6.53,15.74,15.74,0,0,0,0-13.83Z" transform="translate(-56.96 -46)" style="fill:#d4f5f3"/><path d="M176.9,384.45a1.64,1.64,0,0,1,1,1.54,2,2,0,0,1-.51,1.44,1.63,1.63,0,0,1-1.22.54,5,5,0,0,1-1.24-.32,5.52,5.52,0,0,0-1.76-.32,7.67,7.67,0,0,0-4.71,1.82,14.2,14.2,0,0,0-3.84,4.71,12.48,12.48,0,0,0-1.5,5.82v15.81a2,2,0,0,1-3.3,1.38,1.9,1.9,0,0,1-.54-1.38V386.82a1.95,1.95,0,0,1,3.29-1.38,1.84,1.84,0,0,1,.55,1.38v5.63a14.65,14.65,0,0,1,4.45-6.05,11.09,11.09,0,0,1,7-2.46A5.12,5.12,0,0,1,176.9,384.45Z" transform="translate(-56.96 -46)" style="fill:#d4f5f3"/><path d="M210.56,415.49a1.71,1.71,0,0,1-.67,1.38,2.07,2.07,0,0,1-1.25.54,1.77,1.77,0,0,1-1.41-.7l-14.14-15-4.8,4.1v9.66a2,2,0,0,1-3.3,1.38,1.9,1.9,0,0,1-.54-1.38V372a1.9,1.9,0,0,1,.54-1.38,1.93,1.93,0,0,1,3.3,1.38v29.18l18.49-15.93a1.77,1.77,0,0,1,1.35-.64,1.73,1.73,0,0,1,1.28.61,1.87,1.87,0,0,1,.57,1.31,2.07,2.07,0,0,1-.7,1.47l-13.18,11.2L210,414A2.12,2.12,0,0,1,210.56,415.49Z" transform="translate(-56.96 -46)" style="fill:#d4f5f3"/><path d="M218.24,379.23a2.18,2.18,0,0,1-.7-1.76v-.64a2.17,2.17,0,0,1,.73-1.76,3.1,3.1,0,0,1,2-.6c1.7,0,2.56.79,2.56,2.36v.64a2.27,2.27,0,0,1-.67,1.76,2.81,2.81,0,0,1-2,.61A2.91,2.91,0,0,1,218.24,379.23Zm3.36,37.64a2,2,0,0,1-2.75,0,1.91,1.91,0,0,1-.55-1.38V386.05a1.91,1.91,0,0,1,.55-1.38,2,2,0,0,1,2.75,0,1.9,1.9,0,0,1,.54,1.38v29.44A1.9,1.9,0,0,1,221.6,416.87Z" transform="translate(-56.96 -46)" style="fill:#d4f5f3"/><path d="M256.42,387.43q2.77,3.48,2.78,9.24v18.82a1.82,1.82,0,0,1-.58,1.38,1.9,1.9,0,0,1-3.26-1.38V396.87a10.45,10.45,0,0,0-2.08-6.76c-1.39-1.72-3.53-2.59-6.43-2.59a11.19,11.19,0,0,0-5.22,1.28,11.31,11.31,0,0,0-4,3.43,7.82,7.82,0,0,0-1.53,4.64v18.62a1.91,1.91,0,0,1-.55,1.38,2,2,0,0,1-2.75,0,1.9,1.9,0,0,1-.54-1.38V386.82a1.92,1.92,0,1,1,3.84,0v3.52a13.52,13.52,0,0,1,5-4.58,13.36,13.36,0,0,1,6.62-1.82Q253.64,383.94,256.42,387.43Z" transform="translate(-56.96 -46)" style="fill:#d4f5f3"/><path d="M298.4,385.25a2,2,0,0,1,.54,1.44V414.4a16.61,16.61,0,0,1-2.08,8.55,13.7,13.7,0,0,1-5.69,5.4,17.91,17.91,0,0,1-8.29,1.86,20.41,20.41,0,0,1-4.71-.58,18.37,18.37,0,0,1-4.22-1.47c-1.17-.6-1.85-1.21-2-1.85a1.44,1.44,0,0,1-.44-1,1.17,1.17,0,0,1,.57-1,1,1,0,0,1,.64-.19,4.75,4.75,0,0,1,1.47.44l1.35.58a20.71,20.71,0,0,0,7.42,1.54q5.7,0,8.93-3.24a11.8,11.8,0,0,0,3.23-8.73v-4a11.79,11.79,0,0,1-5.05,5.41,14.55,14.55,0,0,1-7.24,1.95,14.77,14.77,0,0,1-8-2.21,15.46,15.46,0,0,1-5.6-6.11,19.63,19.63,0,0,1,0-17.47,15.46,15.46,0,0,1,5.6-6.11,14.57,14.57,0,0,1,7.9-2.21,14.12,14.12,0,0,1,7.39,2,13.49,13.49,0,0,1,5,4.84v-4.1a2,2,0,0,1,.55-1.41,1.81,1.81,0,0,1,1.37-.57A1.87,1.87,0,0,1,298.4,385.25Zm-9,27.52a11.65,11.65,0,0,0,4.35-4.8,15.38,15.38,0,0,0,1.57-7,15.15,15.15,0,0,0-1.57-7,11.7,11.7,0,0,0-4.35-4.77,11.91,11.91,0,0,0-6.31-1.7,11.48,11.48,0,0,0-6.24,1.76,12.26,12.26,0,0,0-4.35,4.83,15.86,15.86,0,0,0,0,13.76,12.22,12.22,0,0,0,4.35,4.84,11.48,11.48,0,0,0,6.24,1.76A11.91,11.91,0,0,0,289.44,412.77Z" transform="translate(-56.96 -46)" style="fill:#d4f5f3"/><path d="M381.05,373a1.78,1.78,0,0,1,.58,1.41l-.13.83-14.14,41a1.66,1.66,0,0,1-.67.9,1.91,1.91,0,0,1-1.06.32,1.84,1.84,0,0,1-1.92-1.22l-11.07-27.32-11.07,27.32a2,2,0,0,1-1.92,1.22,1.89,1.89,0,0,1-1.06-.32,1.41,1.41,0,0,1-.61-.9l-14.14-41a1.64,1.64,0,0,1-.19-.76,1.75,1.75,0,0,1,.67-1.44,2.22,2.22,0,0,1,1.44-.55,2.16,2.16,0,0,1,1.15.32,1.61,1.61,0,0,1,.7.9l12.55,36.61,10.75-26.82a1.78,1.78,0,0,1,1.79-1.22,1.6,1.6,0,0,1,1.12.29,2.34,2.34,0,0,1,.74.93l10.69,26.82,12.41-36.61a1.9,1.9,0,0,1,1.92-1.22A2.12,2.12,0,0,1,381.05,373Z" transform="translate(-56.96 -46)" style="fill:#d4f5f3"/><path d="M414.85,400.48a1.94,1.94,0,0,1-1.35.55H389.31a14.74,14.74,0,0,0,1.57,6.88,11.9,11.9,0,0,0,4.48,4.8,13.06,13.06,0,0,0,6.88,1.76,11.65,11.65,0,0,0,5.5-1.28,11.46,11.46,0,0,0,3.91-3.27,2.16,2.16,0,0,1,1.34-.57,1.75,1.75,0,0,1,1.66,1.66,1.86,1.86,0,0,1-.64,1.34,16,16,0,0,1-5.15,4.1,14.07,14.07,0,0,1-6.56,1.6,17.51,17.51,0,0,1-8.7-2.11,15,15,0,0,1-5.89-5.92,17.82,17.82,0,0,1-2.11-8.8,19.38,19.38,0,0,1,2.08-9.19,15,15,0,0,1,5.53-6,14,14,0,0,1,7.36-2.08,15.12,15.12,0,0,1,7.2,1.79,14.14,14.14,0,0,1,5.48,5.25,15.85,15.85,0,0,1,2.17,8.19A1.74,1.74,0,0,1,414.85,400.48Zm-21.16-10.27a11.89,11.89,0,0,0-4.06,7.36h21.82v-.51a10.06,10.06,0,0,0-1.92-5,10.48,10.48,0,0,0-4-3.26,11.54,11.54,0,0,0-5-1.12A10.73,10.73,0,0,0,393.69,390.21Z" transform="translate(-56.96 -46)" style="fill:#d4f5f3"/><path d="M446.72,386.11a15.06,15.06,0,0,1,5.41,6.05,19.17,19.17,0,0,1,1.95,8.74,19.37,19.37,0,0,1-1.95,8.73,15.39,15.39,0,0,1-5.38,6.18,13.69,13.69,0,0,1-7.65,2.24,13.15,13.15,0,0,1-6.75-1.82,14.72,14.72,0,0,1-5-4.84v4.23a2,2,0,0,1-.55,1.41,1.94,1.94,0,0,1-2.75,0,2,2,0,0,1-.54-1.41V372a1.92,1.92,0,1,1,3.84,0v18.88a13.45,13.45,0,0,1,4.86-5.05,12.86,12.86,0,0,1,6.85-1.92A14.15,14.15,0,0,1,446.72,386.11Zm-2,26.56a12.09,12.09,0,0,0,4.16-4.89,15.6,15.6,0,0,0,1.51-6.88,15.33,15.33,0,0,0-1.51-6.88,11.74,11.74,0,0,0-4.16-4.77,10.73,10.73,0,0,0-6-1.73A11,11,0,0,0,428.48,394a16.89,16.89,0,0,0,0,13.85,12,12,0,0,0,4.16,4.87,10.73,10.73,0,0,0,6.05,1.76A10.4,10.4,0,0,0,444.7,412.67Z" transform="translate(-56.96 -46)" style="fill:#d4f5f3"/><circle cx="196.54" cy="139.5" r="138" style="fill:none;stroke:#92e0e1;stroke-miterlimit:10;stroke-width:3px"/><circle cx="196.54" cy="161.5" r="113" style="fill:none;stroke:#92e0e1;stroke-miterlimit:10;stroke-width:3px"/><circle cx="196.54" cy="184.5" r="88" style="fill:none;stroke:#92e0e1;stroke-miterlimit:10;stroke-width:3px"/><circle cx="196.54" cy="207.5" r="63" style="fill:none;stroke:#92e0e1;stroke-miterlimit:10;stroke-width:3px"/><circle cx="196.54" cy="230.5" r="38" style="fill:none;stroke:#92e0e1;stroke-miterlimit:10;stroke-width:3px"/><circle cx="196.54" cy="253.5" r="13" style="fill:none;stroke:#92e0e1;stroke-miterlimit:10;stroke-width:3px"/></svg>