<svg xmlns="http://www.w3.org/2000/svg" viewBox="0 0 490 490"><path d="M75 32.5v167.305L245 297.5l170-97.695V32.5z" fill="#fff"/><path d="M75 162.5v37.305L10 162.5zm405 0l-65 37.305V162.5z" fill="#fcbf47"/><path d="M415 199.805l65-37.305v295H10v-295l235 135z" fill="#ffd248"/><path d="M485 153.846a10 10 0 0 0-5.011-1.344v-.002h-55v-120c0-5.522-4.478-10-10-10H75c-5.522 0-10 4.478-10 10v120l-55 .002a9.99 9.99 0 0 0-5.011 1.344A10 10 0 0 0 0 162.5v295c0 5.522 4.477 10 10 10h470c5.522 0 10-4.478 10-10v-295a10 10 0 0 0-4.989-8.654zM442.486 172.5L425 182.536V172.5h17.486zM405 42.5v151.52l-160 91.948-160-91.95V42.5h320zM65 182.536L47.514 172.5H65v10.036zM470 447.5H20v-20h425v-20H20V179.77l220.018 126.4a10 10 0 0 0 9.965 0l169.995-97.692L470 179.77V447.5zm-365-385h50v20h-50zm0 50h280v20H105zm30 40h220v20H135zm45 40h130v20H180zm-5-130h25v20h-25z" fill="#231f20"/></svg>