<svg xmlns="http://www.w3.org/2000/svg" viewBox="0 0 454.58 454.58"><path d="M325.665 79.2v281.07h-196.75V79.2h196.75zm-35.78 119.97a36.54 36.54 0 0 0-10.74-25.92c-7.16-7.16-16.54-10.74-25.93-10.74a36.54 36.54 0 0 0-25.92 10.74c-14.32-14.32-37.54-14.32-51.85 0a36.54 36.54 0 0 0-10.74 25.92c0 9.4 3.58 18.77 10.74 25.93l51.85 51.85 51.85-51.85c7.16-7.16 10.74-16.54 10.74-25.93z" fill="#95efef"/><path d="M227.295 384.58c8.83 0 16 7.16 16 16s-7.17 16-16 16a16 16 0 1 1 0-32z" fill="#f297d6"/><path d="M357.015 42.95v368.7c0 18.2-14.75 32.94-32.94 32.94h-193.56c-18.2 0-32.95-14.75-32.95-32.94V42.95c0-18.2 14.75-32.95 32.95-32.95h193.56c18.2 0 32.94 14.75 32.94 32.95zm-31.35 317.3V79.2h-196.75v281.07h196.75zm-82.37 40.32c0-8.84-7.17-16-16-16a16 16 0 1 0 0 32c8.83 0 16-7.16 16-16z" fill="#7ee085"/><path d="M279.145 173.24a36.54 36.54 0 0 1 10.74 25.92c0 9.4-3.58 18.77-10.74 25.93l-51.85 51.85-51.85-51.85c-7.16-7.16-10.74-16.54-10.74-25.93a36.54 36.54 0 0 1 10.74-25.92c14.3-14.32 37.53-14.32 51.85 0a36.54 36.54 0 0 1 25.92-10.74c9.4 0 18.77 3.58 25.93 10.74z" fill="#f297d6"/><g fill="none" stroke="#000" stroke-width="20" stroke-linejoin="round" stroke-miterlimit="10"><path d="M324.075 444.58h-193.56c-18.2 0-32.95-14.75-32.95-32.94V42.95c0-18.2 14.75-32.95 32.95-32.95h193.56c18.2 0 32.94 14.75 32.94 32.95v368.7c0 18.2-14.75 32.94-32.94 32.94z"/><path d="M128.915 79.2h196.75v281.07h-196.75zm114.38 321.38c0-8.84-7.17-16-16-16a16 16 0 1 0 0 32c8.83 0 16-7.16 16-16z"/><path d="M200.295 46.58h54" stroke-linecap="round"/><path d="M227.295 173.24c-14.32-14.32-37.54-14.32-51.85 0a36.54 36.54 0 0 0-10.74 25.92c0 9.4 3.58 18.77 10.74 25.93l51.85 51.85 51.85-51.85c7.16-7.16 10.74-16.54 10.74-25.93a36.54 36.54 0 0 0-10.74-25.92c-7.16-7.16-16.54-10.74-25.93-10.74a36.54 36.54 0 0 0-25.92 10.74z"/></g></svg>