<svg xmlns="http://www.w3.org/2000/svg" width="2500" height="2500" viewBox="0 0 256 256" preserveAspectRatio="xMidYMid"><path d="M82.98 196.416l6.205-2.532 7.15-2.447 9.094-2.373a112.799 112.799 0 0 1 12.534-1.937 391.813 391.813 0 0 1-7.808 22.168 73.56 73.56 0 0 1 .224 4.288A90.939 90.939 0 0 1 128 211.856c6.03 0 11.92.602 17.622 1.727a73.56 73.56 0 0 1 .224-4.288 391.028 391.028 0 0 1-7.808-22.168 112.8 112.8 0 0 1 12.534 1.937c3.066.65 6.092 1.47 9.093 2.373 2.412.726 4.79 1.56 7.15 2.447 2.09.786 4.163 1.623 6.207 2.533a111.065 111.065 0 0 1 38.57 28.471C238.773 201.417 256 166.73 256 128 256 57.308 198.692 0 128 0S0 57.308 0 128c0 38.73 17.227 73.416 44.407 96.888a111.075 111.075 0 0 1 38.572-28.472" fill="#a5dbe8"/><path d="M173.023 196.417l7.946 27.323 2.254.106c1.463 0 2.492.385 2.492 1.848l.36 7.55 6.22 5.42a128.305 128.305 0 0 0 19.3-13.776 111.065 111.065 0 0 0-38.57-28.471m-15.537-.273l9.33-2.26-7.15-2.447-9.093-2.373a112.799 112.799 0 0 0-12.534-1.937 391.028 391.028 0 0 0 7.808 22.168 73.56 73.56 0 0 0-.224 4.288c6.61 1.304 13.11 3.57 19.12 6.228l-7.257-23.667" fill="#525353"/><path d="M63.707 238.664l4.513 2.518 1.646-8.758c-1.98 1.68-4.33 4.398-6.16 6.24m100.88-19.09a89.823 89.823 0 0 0-18.965-5.992A90.947 90.947 0 0 0 128 211.856a90.94 90.94 0 0 0-17.622 1.727c-6.6 1.303-13.507 3.28-19.515 5.937l-.64 3.98h75.554l-1.19-3.926"/><path d="M69.632 233.182l.403-6.946c0-1.462 1.003-2.4 2.466-2.4l2.4-.084 8.08-27.337a111.075 111.075 0 0 0-38.572 28.472 128.305 128.305 0 0 0 19.3 13.776 91.293 91.293 0 0 1 5.712-5.29" fill="#525353"/><path d="M187.05 238.045l.73 3.137a126.245 126.245 0 0 0 4.513-2.518 92.99 92.99 0 0 0-5.772-5.349l.53 4.73"/><path d="M164.587 219.575l1.19 3.926h15.454l-8.21-27.084a113.032 113.032 0 0 0-6.207-2.533l-9.33 2.26 7.1 23.43" fill="#aa9678"/><path d="M75.04 228.97l.243-.172h-.232l-.01.172" fill="#c4b6a1"/><g fill="#aa9678"><path d="M180.95 228.8h-.233l.243.172-.01-.172"/><path d="M180.684 228.404l-52.794.06L128 256c19.648 0 38.256-4.44 54.893-12.35-1.086-4.772-1.195-9.912-1.372-14.914-.08-.058-.837-.33-.837-.33"/></g><path d="M127.915 228.578l-53.166-.01c-.176 5.003-1.208 10.94-1.642 15.08C89.744 251.56 108.352 256 128 256l.03-27.333-.115-.09" fill="#c4b6a1"/><path d="M128 226.15H128v2.65-2.65z" fill="#786453"/><path d="M167.594 208.16l.027.083-.027-.083s-1.298-1.03-2.945-2.924c1.647 1.895 2.945 2.924 2.945 2.924" fill="#aa9678"/><path d="M206.706 92.348v.006-.006m5.15 36.853l.001-.038-.001.038" fill="#fff"/><path d="M211.858 129.163l-.001-.035.001.035" fill="#bbbcbd"/><path d="M211.714 127.17c.004.034.014.064.018.098.003.02.01.04.012.06v.008c.06.49.084 1 .095 1.515l.018.278.001.035-.001.038c-.001.102-.018.197-.02.298a15.253 15.253 0 0 1-.093 1.486v.007l-.014.073c-.004.04-.016.074-.02.112a13.734 13.734 0 0 1-.287 1.515l-.002.007.018-.02.007-.023 3.35-3.506-3.377-3.535v.007c.126.493.222 1.01.294 1.546" fill="#676a6a"/><path d="M211.7 131.177l.035-.192c.06-.48.08-.98.093-1.486l.02-.336c0-.107-.016-.207-.018-.313a14.914 14.914 0 0 0-.095-1.515l-.03-.166a13.565 13.565 0 0 0-.294-1.546c-.044-.172-.105-.325-.156-.49-.303-1.002-.716-1.887-1.206-2.622a7.962 7.962 0 0 0-.614-.8 5.192 5.192 0 0 0-.662-.615c-.088-.067-.18-.114-.27-.172a3.763 3.763 0 0 0-.888-.429 3.108 3.108 0 0 0-.917-.158c-.314 0-.618.066-.917.158a3.73 3.73 0 0 0-.889.429l-.27.17a5.282 5.282 0 0 0-1.074 1.129 6.73 6.73 0 0 0-.203.288c-.5.735-.904 1.62-1.206 2.622l-.038.12a13.48 13.48 0 0 0-.325 1.441l-.082.454c-.08.556-.12 1.136-.13 1.73l-.014.242h.02c0 4.876 2.307 8.828 5.152 8.828.5 0 .96-.128 1.4-.347a4.169 4.169 0 0 0 .758-.479c.097-.078.188-.172.28-.26a5.88 5.88 0 0 0 .648-.719c.142-.187.282-.374.412-.583.083-.133.16-.277.236-.42.144-.266.28-.543.403-.837.046-.106.093-.21.135-.318.157-.41.294-.84.4-1.294.123-.483.215-.99.287-1.515zm-4.82-3.19c-1.067 0-1.932-1.483-1.932-3.31s.865-3.3 1.932-3.3 1.93 1.483 1.93 3.3-.864 3.31-1.93 3.31z"/><path d="M206.89 121.367c-1.067 0-1.932 1.483-1.932 3.3s.865 3.31 1.932 3.31 1.93-1.483 1.93-3.31-.864-3.3-1.93-3.3" fill="#fff"/><path d="M202.148 125.133c.302-1.002.716-1.887 1.206-2.622l.203-.288a5.209 5.209 0 0 1 1.074-1.129c.087-.067.18-.113.27-.17a3.69 3.69 0 0 1 .889-.429c.298-.094.603-.158.917-.158s.62.064.917.158a3.763 3.763 0 0 1 .888.429l.27.172c.23.176.45.384.662.615a7.962 7.962 0 0 1 .614.8c.5.735.903 1.62 1.206 2.622v.002l-4.558-20.877-4.558 20.876" fill="#909393"/><path d="M146.3 128.968c-.006-.42-.033-.835-.08-1.243a12.216 12.216 0 0 0-.204-1.205l-.008-.03a12.012 12.012 0 0 0-.313-1.134l-.01-.025a11.438 11.438 0 0 0-.422-1.088c-.002-.007-.007-.014-.01-.022a12.121 12.121 0 0 0-6.441-6.24l-.035-.013a11.963 11.963 0 0 0-2.158-.651l-.056-.008a11.99 11.99 0 0 0-2.313-.227c-.78 0-1.536.08-2.273.22l-.078.012c-.733.146-1.44.36-2.12.632l-.054.02a11.952 11.952 0 0 0-1.969 1.021c-.623.402-1.208.86-1.746 1.364l-.013.04-.045.01a12.222 12.222 0 0 0-2.189 2.794l-.022.037c-.18.317-.343.647-.493.983l-.05.106c-.137.31-.255.633-.365.957l-.07.187-.248.925-.067.265-.15.94-.043.287a12.002 12.002 0 0 0 .164 3.588c.002.015.003.032.007.048.15.753.373 1.48.658 2.174.004.01.006.02.01.03a12.103 12.103 0 0 0 2.456 3.76c.82.855 1.764 1.588 2.802 2.174l.015.01 1 .498.084.04.972.368.166.06.932.247.253.066.935.147.286.043a12.033 12.033 0 0 0 7.994-1.994 12.135 12.135 0 0 0 3.258-3.257 12.027 12.027 0 0 0 2.06-6.743l-.004-.083-.006-.09zm-12.05-1.413a4.53 4.53 0 1 1 .001-9.061 4.53 4.53 0 0 1-.001 9.061z"/><path d="M134.25 118.494a4.53 4.53 0 1 0 0 9.06 4.53 4.53 0 0 0 0-9.06" fill="#fff"/><path d="M125.952 .404l.045-.01.013-.04 8.306-25.402-.001-6.012a70.787 70.787 0 0 0-14.25-1.47l-4.84.178-.7.048c-8.337.633-16.547 2.806-24.15 6.276-6.52 2.977-12.576 6.898-18.02 11.547v.001l-.01.008a79.54 79.54 0 0 0-4.231 3.897l-.77.752a85.568 85.568 0 0 0-3.737 4.019l-.776.912a88.416 88.416 0 0 0-3.502 4.383c-.093.126-.18.258-.272.384a89.737 89.737 0 0 0-3.056 4.448l-.574.884c-.8 1.253-1.525 2.54-2.255 3.83H91.01l34.94-8.632" fill="#bbbcbd"/><path d="M157.895 117.546l.19-2.973.142-4.03.016-4.034a160.348 160.348 0 0 0-.297-8.073l-.023-.015-.01-.02a720.847 720.847 0 0 0-3.003-1.716l-.07-.04-.797-.45-.65-.364a26.993 26.993 0 0 0-.395-.215 74.409 74.409 0 0 0-5.319-2.499c-4.303-1.817-10.1-3.4-13.364-4.18v6.012l8.242 25.464c.85.8 1.58 1.74 2.167 2.767v.001c.192.336.368.683.527 1.038.004.008.008.015.01.022a11.44 11.44 0 0 1 .422 1.088l.01.025a12.01 12.01 0 0 1 .313 1.134l.008.03c.086.39.153.786.2 1.188.05.425.077.84.083 1.26l.03.068h10.08a110.087 110.087 0 0 0 1.457-11.181c.007-.103.02-.206.027-.31" fill="#e3dddb"/><path d="M171.08 108.55c-.007.01-.012.024-.018.035l.018-.034" fill="#fcb03f"/><path d="M126 .353a12.283 12.283 0 0 1 1.753-1.367 11.952 11.952 0 0 1 1.962-1.018l.054-.02a11.994 11.994 0 0 1 2.119-.632l.078-.012a12.065 12.065 0 0 1 2.273-.221 11.99 11.99 0 0 1 2.313.227c.02.004.037.005.056.008a11.963 11.963 0 0 1 2.193.664 12.148 12.148 0 0 1 3.747 2.434l-.01-.02-8.233-25.443L126 .353" fill="#909393"/><path d="M123.085 133.694a11.883 11.883 0 0 1-.658-2.174c-.004-.016-.005-.033-.007-.048a12.002 12.002 0 0 1-.164-3.588l.043-.287.15-.94.067-.265.248-.925.07-.187.365-.957c.015-.036.035-.07.05-.106l.493-.983.022-.037a12.222 12.222 0 0 1 2.189-2.794l-34.94 8.632h-.067l34.608 8.447a12.103 12.103 0 0 1-2.456-3.76c-.005-.01-.007-.02-.01-.03" fill="#676a6a"/><path d="M201.703 127.148l.082-.454.325-1.44c.015-.052.02-.11.037-.162l4.56-20.876-.001-11.903c-3.725-3.077-7.714-4.76-11.867-4.76-5.248 0-10.14 2.898-13.8 6.477-4.004 3.917-7.098 8.845-9.6 13.818l-.347.68 2.287 2.034a185.465 185.465 0 0 1 5.016 4.781l2.272 2.297 2.39 2.456a235.571 235.571 0 0 1 4.262 4.598 271.342 271.342 0 0 1 3.565 4.011l.002.002.388.414h10.282c0-.083.017-.16.018-.242.01-.594.05-1.174.13-1.73M171.1 108.582l-.01-.03-.018.034.045.044a.868.868 0 0 0-.016-.047" fill="#e3dddb"/><path d="M46.975 142.173l.092-.23a96.97 96.97 0 0 1 4.768-10.473l.838-1.58.5-.853 2.255-3.83.574-.884a89.737 89.737 0 0 1 3.056-4.448l.272-.384a88.416 88.416 0 0 1 3.502-4.383l.776-.912a85.568 85.568 0 0 1 3.737-4.019l.77-.752a79.54 79.54 0 0 1 4.231-3.897l.01-.01c5.75-19.264 24.32-31.102 45.142-31.102 8.38 0 16.714 2.415 23.856 6.784 7.326 4.48 12.32 8.86 16.2 16.512l.058.115c.098.194.208.38.304.576l.01.02.023.015a77.21 77.21 0 0 1 9.281 6.745 85.958 85.958 0 0 1 2.892 2.554l.94.85c.006-.012.01-.024.018-.035a.175.175 0 0 1 .011-.024l.317-.652c2.934-18.517 12.256-28.614 21.9-28.614 7.262 0 12.54 4.33 16.528 15.986l.04.125.01.014a43.54 43.54 0 0 1 3.287 4.048l-.002-.001c.02.028.043.054.064.083l-.001-.001.001.001c.057.17.106.343.16.512v-.001l-.15-.607C201.25 63.937 167.69 38.39 128.163 38.39c-49.58 0-89.772 40.192-89.772 89.772 0 9.774 1.562 19.184 4.462 27.94l.012-.05a96.216 96.216 0 0 1 4.11-13.879" fill="#525353"/><path d="M214.577 129.155l-3.13 3.502-.007.023c-.12.46-.265.89-.426 1.306l-.135.318a9.136 9.136 0 0 1-.403.837l-.236.42c-.13.208-.27.397-.412.583a5.882 5.882 0 0 1-.648.719l-.28.26a4.169 4.169 0 0 1-.758.479c-.45.22-.92.347-1.4.347-2.845 0-5.152-3.952-5.152-8.828H191.24l.006.008a328.189 328.189 0 0 1 5.734 6.812 422.71 422.71 0 0 1 5.354 6.679l.26.33a573.65 573.65 0 0 1 4.964 6.43l.478.624a882.471 882.471 0 0 1 5.191 6.903 89.595 89.595 0 0 0 4.708-27.785l-2.906-.1-.453.145" fill="#fff"/><path d="M114.525 87.695l.7-.048a71.221 71.221 0 0 1 4.839-.178c4.868 0 9.624.52 14.25 1.47h.001c3.265.77 9.06 2.362 13.364 4.18a74.409 74.409 0 0 1 5.319 2.499l.395.215.107.06.543.304.014.008.853.483 3.003 1.716c-.096-.196-.206-.382-.304-.576l-.058-.115c-3.878-7.653-9.848-14.217-17.174-18.698-7.142-4.37-15.476-6.784-23.857-6.784-20.82 0-38.415 14.024-44.166 33.288 5.445-4.65 11.502-8.57 18.02-11.547 7.602-3.47 15.812-5.643 24.15-6.276"/><path d="M213.225 99.515l-.001-.001.001.001-.064-.083.002.001a43.54 43.54 0 0 0-3.287-4.048l-.03-.035a36.477 36.477 0 0 0-1.551-1.585l-.6-.535-1-.882v11.91l4.56 20.877.154.482 3.158 3.54.03-.035h3.305l.023-.92a89.597 89.597 0 0 0-4.55-28.174v.001l-.16-.512" fill="#bbbcbd"/><path d="M181.038 94.03c3.66-3.58 8.552-6.477 13.8-6.477 4.153 0 8.142 1.682 11.867 4.76l.001.036v.006-.006c.334.274.66.583 1 .882.2.18.403.346.6.535a36.477 36.477 0 0 1 1.551 1.585l.03.035a.054.054 0 0 0-.009-.012l-.001-.001-.04-.126c-3.987-11.656-10.42-19.23-17.68-19.23-9.635 0-17.804 13.34-20.738 31.857l.03-.026c2.502-4.973 5.596-9.9 9.6-13.818m-13.02 113.806s-1.297-1.028-2.944-2.923a29.776 29.776 0 0 1-2.139-2.757c-.2-.306-.418-.624-.625-.952-.623-.985-1.12-2.184-1.668-3.37-.634-1.372-.636-2.285-1-3.563a25.167 25.167 0 0 1-.637-2.863 24.633 24.633 0 0 1-.303-4.728c.028-.913.122-1.858.26-2.82a27.68 27.68 0 0 1 .557-2.839c.726-2.903 1.98-5.995 3.94-9.26l.498-1.118c.64-1.066.782-1.02 1.4-2.046 8.564-14.453 13.184-25.382 10.924-42.2a134.228 134.228 0 0 0-.844-5.156 205.23 205.23 0 0 1-.625 3.719c-.085.384-.318.8-.406 1.062-3.72 11-9.576 19.11-18.002 28.254a229.879 229.879 0 0 1-3.562 3.765 457.252 457.252 0 0 1-6.505 6.59l-2.788 2.765c-.87.86-1.95 2.7-3.24 4.054-.796 2.23-1.7 4.743-2.466 7.387l-1.025-.384c-16.368-6.33-27.327-14.8-27.327-14.8s8.432 10.98 22.638 21.285a46.064 46.064 0 0 0 4.059 2.628c-.586 9.276 3.506 18.18 21.977 20.837 3.123.45 6.32.428 9.542.065-.032-.096.18-.094.163-.147s.172-.196.172-.196"/><path d="M158.14 183.96c16.398 2.646 40.667 2.212 65.86-9.584.607-.284 1.276.464 1.883.166 0 0-17.22 17.587-37.783 27.53l-1.8.875c-1.987.908-4.008 1.7-6.037 2.43-3.98 1.43-8.01 2.515-12.014 3.016-.184.024-.368.06-.552.08a24.787 24.787 0 0 1-.075-.227l-.027-.083s-1.298-1.03-2.945-2.924a29.219 29.219 0 0 1-2.138-2.757 28.651 28.651 0 0 1-2.401-4.21 26.292 26.292 0 0 1-1.427-3.837 24.719 24.719 0 0 1-.941-7.591 25.68 25.68 0 0 1 .259-2.82l.138-.062" fill="#9f2254"/><path d="M146.386 165.3a452.312 452.312 0 0 0 6.506-6.59 234.248 234.248 0 0 0 3.562-3.765c8.425-9.145 14.6-17.703 18.33-28.713.087-.26.175-.605.26-.992l.04-.18a31.37 31.37 0 0 0 .257-1.383c.034-.355 1.147-1.07 1.178-1.404-.933-4.794-3.083-9.834-5.43-13.682a.868.868 0 0 1 .016.047l-.045-.044c-.308-.29-.63-.563-.94-.85a85.958 85.958 0 0 0-2.892-2.554 77.29 77.29 0 0 0-9.281-6.745 160.35 160.35 0 0 1 .297 8.073c.004.302-.004.603-.004.904l-.012 3.13a125.975 125.975 0 0 1-.142 4.029l-.19 2.973-.027.31a110.087 110.087 0 0 1-1.457 11.181l-1.184 5.6c-2.473 10.026-7.496 19.12-11.626 28.5-1.095 2.5-2.134 5.008-3.045 7.573l-.258.724a170.807 170.807 0 0 1 3.3-3.387l2.788-2.765" fill="#fcb03f"/><path d="M92.198 219.213c6.01-2.658 11.57-4.327 18.18-5.63a73.56 73.56 0 0 0-.224-4.288 391.813 391.813 0 0 0 7.808-22.168 112.799 112.799 0 0 0-12.534 1.937c-3.067.65-6.093 1.47-9.094 2.373-2.41.726-4.8 1.56-7.15 2.447l9.33 2.26-7.508 23.566 1.19-.497" fill="#525353"/><path d="M207.56 149.378a573.65 573.65 0 0 0-4.964-6.43l-.26-.33a422.71 422.71 0 0 0-5.421-6.761 328.189 328.189 0 0 0-5.667-6.73l-.365-.424a271.342 271.342 0 0 0-4.816-5.385 235.571 235.571 0 0 0-3.011-3.224 221.505 221.505 0 0 0-2.389-2.456l-2.272-2.297a188.553 188.553 0 0 0-5.016-4.781 115.806 115.806 0 0 0-2.288-2.035.175.175 0 0 0-.011.024c1.622 4.662 3.473 9.382 4.4 14.244.24 1.265.44 2.495.602 3.697 2.26 16.827-3.132 27.814-11.695 42.267a720.816 720.816 0 0 1-1.889 3.164c-1.958 3.266-3.212 6.357-3.94 9.26a27.952 27.952 0 0 0-.557 2.839c16.793 2.7 42.045 3.215 67.882-9.48 0 0-5.067-7.447-12.69-17.684a882.471 882.471 0 0 0-5.155-6.855l-.478-.624" fill="#df0067"/><path d="M90.115 223.922l8.4-27.778-9.33-2.26-6.205 2.532-8.32 27.506 9.287.145 6.168-.145" fill="#aa9678"/><path d="M96.02 211.904l2.486.9a89.463 89.463 0 0 0 29.658 5.047 89.482 89.482 0 0 0 33.528-6.498l1.627-.693a91.66 91.66 0 0 0 2.619-1.161l2.3-1.098-.552.08c-3.22.363-6.42.384-9.542-.065-18.47-2.656-22.563-11.56-21.977-20.837a46.064 46.064 0 0 1-4.059-2.628c-14.206-10.306-22.638-21.285-22.638-21.285s10.96 8.46 27.327 14.8l1.025.384c.765-2.644 1.67-5.158 2.466-7.387l.258-.724c.91-2.565 1.95-5.083 3.045-7.573 4.13-9.4 9.153-18.484 11.626-28.5l1.184-5.6H146.31l-.001.001.001.02-.004.002c0 .027.004.054.004.083a12.027 12.027 0 0 1-2.06 6.743 12.135 12.135 0 0 1-5.306 4.368 12.01 12.01 0 0 1-5.946.883c-.097-.01-.2-.03-.286-.043-.316-.04-.63-.084-.935-.147-.086-.02-.168-.046-.253-.066a11.6 11.6 0 0 1-.932-.247c-.056-.02-.1-.042-.166-.06-.33-.11-.656-.23-.972-.368-.03-.012-.056-.027-.084-.04a12.088 12.088 0 0 1-1-.498l-.015-.01a12.176 12.176 0 0 1-2.802-2.174l-34.608-8.447h-37.77c-.162.288-.342.564-.5.853-.288.523-.56 1.054-.838 1.58a96.239 96.239 0 0 0-2.62 5.342 96.97 96.97 0 0 0-2.148 5.131l-.092.23a96.216 96.216 0 0 0-4.11 13.879c5.946 18.136 17.515 33.72 32.638 44.704.44.32.904.603 1.35.915a89.783 89.783 0 0 0 7.943 4.979 88.844 88.844 0 0 0 11.224 5.254" fill="#fff"/><path d="M186.58 233.374a74.559 74.559 0 0 1-.376-7.224 2.649 2.649 0 0 0-2.648-2.649H72.444a2.65 2.65 0 0 0-2.649 2.649c0 2.432-.143 4.838-.376 7.224a73.286 73.286 0 0 1-1.199 7.808l4.887 2.467a78.531 78.531 0 0 0 1.932-14.678l.01-.172h105.9l.01.172a78.615 78.615 0 0 0 1.933 14.678 129.088 129.088 0 0 0 4.887-2.467 73.543 73.543 0 0 1-1.2-7.808" fill="#8b7460"/></svg>