<?xml version="1.0" encoding="UTF-8"?>
<svg version="1.1" preserveAspectRatio="none" viewBox="0 0 1000 1000" xmlns="http://www.w3.org/2000/svg" xmlns:cc="http://creativecommons.org/ns#" xmlns:dc="http://purl.org/dc/elements/1.1/" xmlns:rdf="http://www.w3.org/1999/02/22-rdf-syntax-ns#">
<metadata>
<rdf:RDF>
<cc:Work rdf:about="">
<dc:format>image/svg+xml</dc:format>
<dc:type rdf:resource="http://purl.org/dc/dcmitype/StillImage"/>
<dc:title/>
</cc:Work>
</rdf:RDF>
</metadata>
<g transform="matrix(.89598 -.0063912 .0070824 .99287 -28.487 -28.279)">
<path d="m1141.1 40.811-987.72 78.448-127.37 917.3c4.4821-3.0485 9.0473-5.975 13.689-8.7751 44.314-26.735 94.855-41.523 145.68-51.292 57.504-11.052 116.4-16.021 174.77-11.318 50.633 4.0801 100.51 15.386 151.2 18.743 99.921 6.6192 203.69-19.743 281.65-82.592 44.959-36.244 80.382-83.557 106.07-135.28 23.642-47.592 39.404-99.893 39.262-153.03-0.12521-46.889-12.519-92.925-15.236-139.74-4.0468-69.728 13.626-139.44 42.075-203.23 39.597-88.784 100.41-168.02 175.93-229.24z" fill="#90e0e1" fill-opacity=".27586"/>
</g>
<g transform="matrix(.80247 0 0 .94789 -3.1078 18.319)">
<path d="m1144.1-1.2632h-1145.5v1004.1c4.7868-2.9837 9.6643-5.8219 14.624-8.5092 49.656-26.908 106.31-38.087 162.48-43.964 67.515-7.0649 135.93-6.9568 203.11 2.8364 60.552 8.8278 119.77 25.449 180.36 34.037 54.914 7.7838 111.11 8.8773 165.67-1.1132 54.556-9.9904 107.5-31.363 151.18-65.543 46.158-36.119 80.946-85.846 102.36-140.4 20.605-52.482 29.125-110.12 21.123-165.93-7.6326-53.235-29.813-103.32-40.621-156-15.033-73.276-7.4597-150.29 16.248-221.24 31.31-93.695 90.912-177.73 168.98-238.26z" fill="#5d5ecc"/>
</g>
</svg>
