<svg xmlns="http://www.w3.org/2000/svg" viewBox="0 0 74.66 129.32"><defs><linearGradient id="A" x1="74.66" y1="65.34" x2="0" y2="65.34" gradientUnits="userSpaceOnUse"><stop offset="0" stop-color="#fff7f8"/><stop offset=".03" stop-color="#fff3f0"/><stop offset=".38" stop-color="#ffcda0"/><stop offset=".67" stop-color="#ffb165"/><stop offset=".89" stop-color="#ffa041"/><stop offset="1" stop-color="#f93"/><stop offset="1" stop-color="#fb9545"/></linearGradient></defs><path d="M5.72 3.43L0 .68V130h1.25c3.6-.06 9.42-.17 14.36-3.37a19.06 19.06 0 0 0 7.39-9.76c.68-2 .54-2.76 1.6-9.24s1.1-6.8 1.33-7.43a21.72 21.72 0 0 1 7-9.32c3.5-2.93 7-4.18 10.42-5.44a64.41 64.41 0 0 1 7.47-2.16c1.6-.36 2.22-.42 3.9-.78a66.56 66.56 0 0 0 7.36-2c2.47-.88 8.1-2.88 11-8.3a15.39 15.39 0 0 0 1.24-10.54A30.86 30.86 0 0 0 73 58.24c-.37-.86-.72-1.56-1-2.07a28.06 28.06 0 0 0-.42-.86C66.8 46.07 58.7 43.1 49.9 38c-5.6-3.26-14.8-8.63-23.08-17.73a67.78 67.78 0 0 0-11.62-11 94.2 94.2 0 0 0-9.48-5.84z" transform="translate(0 -.68)" fill="url(#A)"/></svg>