<svg xmlns="http://www.w3.org/2000/svg" viewBox="0 0 1280 1024" fill="#5353c9"><path d="M1065.8 488.8c-.9 0-.9 1 0 1s.9-1 0-1zm-187.3 55.9c-.2.1-.3.3-.5.4-.1 0-.1.1-.1.2s-.1.1-.1.2 0 .1.1.2c0 .1.1.1.1.2l.1.1c.1 0 .2.1.3.1h.2c.1 0 .2-.1.3-.1.2-.1.3-.3.5-.4.1 0 .1-.1.1-.2s.1-.1.1-.2 0-.1-.1-.2c0-.1-.1-.1-.1-.2l-.1-.1c-.1 0-.2-.1-.3-.1h-.2c-.1 0-.2 0-.3.1z"/><path d="M1237.8 10.7C1189 27.8 1113.7 51.1 1010 72.6c-23.5 4.9-77.9 15.7-223.8 35.8-302.4 41.5-407.5 41.3-491.5 78.4-39.4 17.4-45.6 83.1-51.9 107.3-2.5 9.4-9.1 32.2-47.9 56.4-33.7 21-53.9 19.7-83.9 39.9-18.5 12.5-46.8 31.5-36 52.3 12.5 24 71.9 40 163.8 64.7 32.8 8.8 51.1 12.4 84.8 23.4 20.3 6.6 55.6 17.5 85.1 34.4 22.7 13 75.9 41.3 74 79.8-1 21.4-18 25.8-14.8 46.8.4 2.6 10.3 54.6 118.4 82.5 45 11.7 91.5 15.1 148 19.3 73.2 5.4 85.9.9 129.5 5.5 87.2 9.3 137.9 37.9 166.4 55 64 38.4 33.1 64 114.7 94.9 29.9 11.3 60.2 17.8 92.5 37.1 24.2 14.5 36.3 28.2 42.7 37.9V0l-42.3 10.7z"/><path d="M1235.3 10.7c-51.7 17.1-131.5 40.4-241.5 61.9-24.9 4.9-82.6 15.7-237.2 35.8-320.6 41.5-432 41.3-521.1 78.4-41.8 17.4-48.3 83.1-55.1 107.3-2.6 9.4-9.7 32.2-50.8 56.4-35.7 21-57.2 19.7-89 39.9C21 402.9-8.9 421.9 2.5 442.7c13.3 24 76.2 40 173.7 64.7 34.8 8.8 54.2 12.4 89.9 23.4 21.5 6.6 58.9 17.5 90.2 34.4 24.1 13 80.4 41.3 78.4 79.8-1.1 21.4-19 25.8-15.7 46.8.4 2.6 11 54.6 125.5 82.5 47.8 11.7 97 15.1 156.9 19.3 77.6 5.4 91.1.9 137.2 5.5 92.4 9.3 146.2 37.9 176.5 55 67.8 38.4 35.1 64 121.6 94.9 31.7 11.3 63.8 17.8 98 37.1 25.6 14.5 38.4 28.2 45.3 37.9V0l-44.7 10.7z" opacity=".25" enable-background="new"/></svg>