<svg preserveAspectRatio="xMidYMid meet" xmlns="http://www.w3.org/2000/svg" xmlns:xlink="http://www.w3.org/1999/xlink" width="1600" height="662"><style><![CDATA[.B{fill:#231f20}.C{fill:#ffcd28}.D{fill:#31c0d8}.E{fill:#e6e7e8}.F{fill:#f3f4f4}]]></style><g transform="matrix(1.333333 0 0 -1.333333 0 662)"><path d="M376.916 150.766h27.842v50h-27.842c-.238 0-5.368 11.605-5.745 12.322l20.854 20.09-36.164 35.78-21.553-21.047c-.71.378-11.55 5.314-14.55 5.55v28.302h-51v-28.302c0-.237-12.524-5.365-13.23-5.742l-20.543 20.86-36.006-36.17 20.93-19.324c-.374-.717-5.424-12.322-5.667-12.322h-29.485v-50h29.485c.243-7 5.37-15.257 5.745-15.958l-20.85-21.903 36.16-36.693 20.23 20.594c.706-.375 13.23-5.765 13.23-6.006V60.766h51V90.8c3 .24 13.84 5.37 14.55 5.743l21.2-20.855 36.343 36.163-20.77 22.957c.376.7 5.596 8.958 5.834 15.958" class="E"/><use xlink:href="#B" class="F"/><path d="M1054.946 150.598h27.84v50h-27.84c-.24 0-5.37 11.605-5.75 12.322l20.86 20.09-36.17 35.78-21.55-21.047c-.7.378-11.55 5.314-14.55 5.55v28.302h-51v-28.302c0-.237-12.524-5.365-13.23-5.742l-20.543 20.86-36.005-36.17 20.93-19.324c-.374-.717-5.425-12.322-5.668-12.322h-29.484v-50h29.484c.243-7 5.37-15.257 5.745-15.958l-20.85-21.903 36.16-36.693 20.23 20.594c.707-.375 13.23-5.765 13.23-6.006V60.598h51v30.034c3 .24 13.84 5.37 14.55 5.743l21.2-20.855 36.34 36.163-20.77 22.957c.38.7 5.6 8.958 5.84 15.958" class="E"/><use xlink:href="#B" x="678" class="F"/><path d="M634.944 150.598h27.842v50h-27.842c-.24 0-5.368 11.605-5.745 12.322l20.853 20.09-36.163 35.78-21.553-21.047c-.71.378-11.55 5.314-14.55 5.55v28.302h-51v-28.302c0-.237-12.524-5.365-13.23-5.742l-20.543 20.86-36.006-36.17 20.93-19.324c-.374-.717-5.424-12.322-5.668-12.322h-29.484v-50h29.484c.244-7 5.37-15.257 5.745-15.958l-20.85-21.903 36.16-36.693 20.23 20.594c.706-.375 13.23-5.765 13.23-6.006V60.598h51v30.034c3 .24 13.84 5.37 14.55 5.743l21.2-20.855 36.343 36.163-20.77 22.957c.376.7 5.595 8.958 5.834 15.958" class="E"/><use xlink:href="#B" x="258" class="F"/><path d="M237.696 262.458a37.13 37.13 0 0 1-11.641-1.887c.772 2.985 1.223 6.1 1.223 9.327 0 20.544-16.655 37.2-37.196 37.2-20.548 0-37.203-16.655-37.203-37.2 0-3.682.557-7.23 1.553-10.587a37.07 37.07 0 0 1-14.946 3.147c-20.545 0-37.2-18.886-37.2-39.43s16.655-39.43 37.2-39.43h98.2c20.546 0 37.2 18.885 37.2 39.43s-16.655 39.43-37.2 39.43m708-6c-4.066 0-7.975-.68-11.64-1.887.772 2.985 1.223 6.1 1.223 9.327 0 20.544-16.655 37.2-37.197 37.2s-37.202-16.655-37.202-37.2c0-3.682.556-7.23 1.552-10.587-4.58 2-9.627 3.147-14.945 3.147-20.545 0-37.2-18.886-37.2-39.43s16.655-39.43 37.2-39.43h98.2c20.546 0 37.2 18.885 37.2 39.43s-16.655 39.43-37.2 39.43M655.13 305.666a26.13 26.13 0 0 1-8.197-1.328c.543 2.1.86 4.294.86 6.566 0 14.466-11.726 26.193-26.2 26.193s-26.196-11.727-26.196-26.193c0-2.592.393-5.1 1.093-7.454-3.224 1.416-6.778 2.216-10.523 2.216-14.465 0-26.193-13.568-26.193-28.034s11.728-28.034 26.193-28.034h69.152c14.467 0 26.195 13.568 26.195 28.034s-11.728 28.034-26.195 28.034m-239.91-81.62c-2.1 0-4.118-.35-6.012-.974.4 1.543.633 3.15.633 4.817 0 10.608-8.6 19.208-19.208 19.208s-19.2-8.6-19.2-19.208c0-1.902.288-3.734.8-5.467a19.12 19.12 0 0 1-7.717 1.624c-10.608 0-19.2-10.114-19.2-20.723s8.6-20.725 19.2-20.725h50.713c10.6 0 19.2 10.116 19.2 20.725s-8.6 20.723-19.2 20.723" fill="#fff"/><path d="M1136.786 240.598h-37v14h37v-14" class="D"/><path d="M661.786 254.598v-98h90v98h-90" class="C"/><path d="M722.786 227.598h18v18h-18z" class="D"/><use xlink:href="#C" class="B"/><path d="M668.786 227.598h18v18h-18z" class="D"/><use xlink:href="#C" x="27" y="-30" class="B"/><path d="M695.786 197.597h18v18h-18z" class="D"/><use xlink:href="#C" x="-27" y="-30" class="B"/><path d="M722.786 167.598h18v18h-18z" fill="#83d9e8"/><path d="M775.795 77.606l-22.2-4.7 5.4-5.4-9.546-9.544 7.425-7.426 9.545 9.547 4.678-4.678 4.7 22.2m-556.502-3l-22.2-4.7 5.4-5.4-9.546-9.544 7.425-7.426 9.545 9.547 4.68-4.678 4.7 22.2m740.5 261.002l4.698-22.2 5.4 5.4 9.546-9.547 7.424 7.426-9.547 9.545L982 330.91l-22.2 4.7" class="C"/><path d="M119.686 135.17h11.383c10.992 0 18.058 8.637 18.058 22.115 0 13.608-7.72 22.506-19.497 22.506h-9.944zm10.598 68.174c30.227 0 49.854-17.927 49.854-45.8s-20.02-45.928-51.032-45.928H89.33v91.727h40.956m88.72-23.03V169.06h42.92v-23.03h-42.92v-11.383h48.415v-23.03h-78.77v91.727h77.594v-23.03h-47.237m87.543-68.697l-34.806 91.727h32.45l18.974-60.192 18.843 60.192h31.012l-35.068-91.727H306.55m102.723 68.697V169.06h42.92v-23.03h-42.92v-11.383h48.415v-23.03h-78.772v91.727H456.5v-23.03h-47.237m128.51-43.444v-25.254h-68.566v91.727h30.357V136.87h38.2m34.417 20.545c0-12.562 9.16-21.852 19.627-21.852s18.842 9.3 18.842 21.852-8.374 21.6-18.842 21.6c-10.6 0-19.627-9.03-19.627-21.6zm69.612.13c0-27.216-21.198-47.236-50.377-47.236s-50.378 19.9-50.378 47.236c0 27.217 21.198 46.714 50.378 46.714s50.377-19.627 50.377-46.714m38.868.915h11.12c6.544 0 10.338 4.058 10.338 11.123 0 6.804-3.794 10.73-10.338 10.73h-11.12zm12.692 44.883c23.815 0 37.555-11.908 37.555-32.843 0-22.245-13.74-35.07-37.555-35.07h-12.692v-23.815h-30.36v91.727h43.05m124.446-91.725v50.247l-15.702-41.35h-19.9l-15.702 41.35v-50.247H740.08v91.727h32.06l20.02-47.892 20.02 47.892h32.06v-91.727h-26.433m69.892 68.697V169.06h42.918v-23.03H887.7v-11.383h48.414v-23.03H857.33v91.727h77.596v-23.03H887.7m123.646-68.697l-36.113 46.844v-46.844h-27.6v91.727h25.386l36.246-47.107v47.107h27.482v-91.727h-25.4m89 67.78v-67.78h-30.36v67.78h-26.04v23.946h82.57v-23.946h-26.17" fill="#84dbff"/><g class="B"><path d="M763.786 203.598v74.25c.004 3.07-1.34 5.804-3.402 7.707-2.064 1.91-4.854 3.042-7.848 3.044h-91.5c-2.994-.002-5.784-1.135-7.848-3.044-2.063-1.903-3.406-4.638-3.402-7.707v-166.25h4v166.25c.004 1.902.8 3.542 2.12 4.772 1.32 1.223 3.154 1.98 5.13 1.98h91.5c1.976.001 3.81-.756 5.13-1.98 1.32-1.23 2.116-2.87 2.12-4.772v-74.25h4"/><path d="M652.786 262.598h109v4h-109zm36 12h16v4h-16zm21 0h13v4h-13zm252-163h4v119h-4z"/><path d="M1008.786 12.598v2h-94v95h92v-97h2v2-2h2v99c0 .526-.213 1.04-.586 1.414s-.887.586-1.414.586h-96c-.527 0-1.042-.214-1.414-.586s-.586-.888-.586-1.414v-99a1.99 1.99 0 0 1 .586-1.41c.372-.38.887-.6 1.414-.6h96c.527 0 1.042.2 1.414.6a1.99 1.99 0 0 1 .586 1.41h-2m-88 88h80v4h-80z"/></g><path d="M1000.786 20.598h-80v73h80v-73" class="C"/><g class="B"><path d="M960.786 48.598h4v17h-4z"/><path d="M953.786 55.598h17v4h-17z"/></g><path d="M760.818 124.847v-12h73.5v12h-73.5" fill="#fff"/><g class="B"><path d="M760.818 124.847h-2.25v-12c0-.592.24-1.172.66-1.59s1-.66 1.59-.66h73.5c.593 0 1.172.24 1.59.66s.66 1 .66 1.59v12c0 .593-.24 1.172-.66 1.59s-.998.66-1.59.66h-73.5c-.592 0-1.172-.24-1.59-.66s-.66-.998-.66-1.59h2.25v-2.25h71.25v-7.5h-69v9.75h-2.25v-2.25 2.25"/><path d="M742.818 124.847h-2.25v-12a2.26 2.26 0 0 1 .66-1.59c.42-.418 1-.66 1.6-.66h18c.593 0 1.172.24 1.6.66s.66 1 .66 1.6v12c0 .593-.24 1.172-.66 1.6a2.27 2.27 0 0 1-1.59.66h-18a2.26 2.26 0 0 1-1.59-.66 2.27 2.27 0 0 1-.66-1.59h2.25v-2.25h15.75v-7.5h-13.5v9.75h-2.25v-2.25 2.25m109.468-5.28l-.788 2.107-14.93-5.584v5.75l15.084-4.432.634 2.16-.788 2.107.788-2.107.634 2.16-17.968 5.28a2.26 2.26 0 0 1-2.884-2.159v-12a2.25 2.25 0 0 1 3.038-2.107l17.968 6.72c.9.34 1.495 1.217 1.46 2.188s-.682 1.804-1.614 2.078l-.634-2.16"/><path d="M754.068 125.597v4.5h55.5v4.5h-57.75c-.592 0-1.172-.24-1.59-.66s-.66-.998-.66-1.59v-6.75h4.5"/><use xlink:href="#D"/><use xlink:href="#E"/><use xlink:href="#F"/><use xlink:href="#D" y="30"/><use xlink:href="#E" y="30"/><use xlink:href="#F" y="30"/><use xlink:href="#D" y="60"/><use xlink:href="#E" y="60"/><use xlink:href="#F" y="60"/><use xlink:href="#D" y="90"/><use xlink:href="#E" y="90"/><use xlink:href="#F" y="90"/><use xlink:href="#D" y="120"/><use xlink:href="#E" y="120"/><use xlink:href="#F" y="120"/><use xlink:href="#D" y="150"/><use xlink:href="#E" y="150"/><use xlink:href="#F" y="150"/><use xlink:href="#D" x="-30" y="120"/><path d="M1072.126 234.437l-30 30-3.18-3.182 30-30"/><use xlink:href="#F" x="-30" y="120"/><use xlink:href="#G"/><use xlink:href="#E" x="-60.001" y="120"/><use xlink:href="#F" x="-60" y="120"/><use xlink:href="#G" x="-30"/><use xlink:href="#E" x="-90.001" y="120"/><path d="M1008.946 264.438l-30-30 3.182-3.182 30 30m125.658-28.658v2h-35v26h33v-28h2v2-2h2v30a1.92 1.92 0 0 1-.6 1.414 1.99 1.99 0 0 1-1.4.586h-37c-.53 0-1.04-.214-1.4-.586-.38-.373-.6-.888-.6-1.414v-30c0-.527.2-1.042.6-1.415a1.99 1.99 0 0 1 1.4-.585h37c.53 0 1.04.213 1.4.585.38.373.6.888.6 1.415h-2"/><path d="M941.786 230.598h128v4h-128z"/><path d="M951.786 232.598v-2h29c.527 0 1.042.213 1.414.585s.586.888.586 1.415v30.25a2.01 2.01 0 0 1-2.919 1.777l-29-15a2 2 0 0 1-1.08-1.777v-15.25c0-.527.213-1.042.586-1.415a2.01 2.01 0 0 1 1.414-.585v2h2v14.032l25 12.93v-24.963h-27v-2m56-11h62v4h-62zm-49 17h4v4h-4zm9 0h4v4h-4zm79-128h77v4h-77z"/><use xlink:href="#H"/><use xlink:href="#I"/><use xlink:href="#J"/><use xlink:href="#H" y="30"/><use xlink:href="#I" y="30"/><use xlink:href="#J" y="30"/><use xlink:href="#H" y="60"/><use xlink:href="#I" y="60"/><use xlink:href="#J" y="60"/><use xlink:href="#H" y="90"/><use xlink:href="#I" y="90"/><use xlink:href="#J" y="90"/><path d="M446.786 109.598h77v4h-77zm-66-23v56c0 .526-.213 1.04-.586 1.414s-.887.586-1.414.586h-46v21c0 .526-.213 1.04-.586 1.414s-.887.586-1.414.586h-40c-.527 0-1.042-.214-1.414-.586s-.586-.888-.586-1.414v-79h4v77h36v-21c0-.527.213-1.042.586-1.415a2.01 2.01 0 0 1 1.414-.585h46v-54h4"/><path d="M299.786 140.598h32v4h-32z"/><path d="M372.786 142.598v2h-40v5h38v-7h2v2-2h2v9c0 .526-.213 1.04-.586 1.414s-.887.586-1.414.586h-42c-.527 0-1.042-.214-1.414-.586s-.586-.888-.586-1.414v-9c0-.527.213-1.042.586-1.415s.887-.585 1.414-.585h42c.527 0 1.042.213 1.414.585s.586.888.586 1.415h-2"/></g><path d="M299.786 86.598h69v48h-69z" class="D"/><path d="M320.814 119.8l-9.563-6.188a2.24 2.24 0 0 1-.025-3.761l9.562-6.375 2.496 3.744-6.712 4.475 6.686 4.327-2.444 3.778m8.676-22.4l11.25 22.688-4.03 2L325.46 99.4m22.736 4.058l9.562 6.188c.638.413 1.023 1.114 1.028 1.873s-.37 1.467-1.002 1.888l-9.562 6.375-2.496-3.744 6.712-4.475-6.687-4.327 2.445-3.778m277.712 42.14v-2h9.878c.527 0 1.042.213 1.414.585s.586.888.586 1.415v21c0 .526-.213 1.04-.586 1.414s-.887.586-1.414.586h-9.878v-2l2 .064c-.072 1.928-.703 3.698-1.298 5.087l-.833 1.724-.294.537-.1.16-.023.042-.003.005-.84-.458.848.444-.008.014-.84-.458.848.444-1.772-.927 1.458-1.368 8.375 8.93a2 2 0 0 1-.03 2.768l-14.522 14.8c-.76.776-2.008.8-2.8.055l-8.74-8.234 1.372-1.456.937 1.767-.712-1.34.818 1.28-.106.062-.712-1.34.485.758.343.515-.01.006-.333-.52.343.515a26.94 26.94 0 0 0-.224.158c-.452.32-1.328.928-2.47 1.475s-2.577 1.056-4.223 1.114l-.065-2h2v10.38c0 .526-.213 1.04-.586 1.414s-.887.586-1.414.586h-21c-.527 0-1.042-.214-1.414-.586s-.586-.888-.586-1.414v-10.38h1.995l-1.737.98c-.1-.184-.25-.477-.258-.98h1.995l-1.737.98 1.715-.97-1.3 1.48c-.08-.082-.2-.156-.415-.512l1.715-.97-1.3 1.48 1.162-1.324-.933 1.496c-.034-.024-.075-.04-.23-.172l1.162-1.324-.5.82-.388.698-.035-.02.423-.677-.388.698c-.01-.007-.132-.07-.286-.143l-2.56-1.174-1.253-.563-.43-.197-.154-.07-.157-.078.938-1.767 1.44 1.4-8.075 8.374a1.99 1.99 0 0 1-2.861.019L552.95 184.17a2 2 0 0 1-.072-2.737l8.446-9.488 1.494 1.33-1.776.92-.465-.876c-.346-.68-.808-1.666-1.205-2.812s-.735-2.455-.783-3.846l2-.064v2h-13.803c-.527 0-1.042-.214-1.414-.586s-.586-.888-.586-1.414v-21c0-.527.213-1.042.586-1.415a2.01 2.01 0 0 1 1.414-.585h13.803v1.993l-.864-1.797a1.99 1.99 0 0 1 .864-.196v1.993l-.864-1.797.854 1.777-1.37-1.42c.086-.074.178-.186.515-.358l.854 1.777-1.37-1.42 1.244 1.3-1.442-1.065c.03-.036.053-.08.198-.225l1.244 1.3-.637-.47-.836-.55.03-.044.805.594-.836-.55.01-.015.454-.803 1.04-1.942.647-1.226 1.762.946-1.353 1.472-8.374-7.702c-.404-.37-.637-.892-.645-1.442a2 2 0 0 1 .602-1.46l14.52-14.184a2 2 0 0 1 2.876.084l7.778 8.54-1.48 1.347-.93-1.77.224-.107 1.116-.47 2.434-1.017.913-.397.197-.092.464.908-.54-.863.077-.045.464.908-.54-.863.98 1.56-1.202-1.393c.13-.1.182-.138.223-.166l.98 1.56-1.202-1.393 1.284 1.5-1.572-1.18c.134-.175.222-.25.288-.308l1.284 1.5-1.572-1.18 1.6 1.195-1.82-.802c.083-.185.163-.303.23-.393l1.6 1.195-1.82-.802 1.827.804h-1.996a2 2 0 0 1 .169-.804l1.827.804h-1.996v-13.3c0-.527.213-1.042.586-1.415a2.01 2.01 0 0 1 1.414-.585h21c.527 0 1.042.213 1.414.585s.586.888.586 1.415v13.3h-2l.064-2c1.94.07 3.596.73 4.826 1.35.614.313 1.124.623 1.497.864l.443.293.1.074.008.005-.666 1.042.575-1.094.1.052-.666 1.042.575-1.094-.93 1.77-1.4-1.43 8.557-8.373a2 2 0 0 1 2.808.011l14.613 14.523a1.99 1.99 0 0 1-.12 2.947l-8.33 7.026-1.3-1.528 1.762-.945 1.2 2.2.75 1.35.227.387.02.033-.27.177.265-.185.006.008-.27.177.265-.185-1.247.87 1.145-.998.102.13-1.247.87 1.145-.998-1.44 1.256 1.2-1.48c.138.115.2.177.23.223l-1.44 1.256 1.2-1.48-1.252 1.53.913-1.754c.174.092.267.167.34.224l-1.252 1.53.913-1.754-.92 1.77v-1.993c.48.008.746.14.92.224l-.92 1.77v-1.993 4a1.99 1.99 0 0 1-.864-.196c-.34-.17-.434-.284-.526-.363-.156-.152-.195-.215-.242-.274l-.164-.24-.574-1-1.746-3.2c-.445-.83-.247-1.866.473-2.474l6.66-5.618-11.664-11.593-7.147 6.993c-.622.6-1.56.746-2.33.34l-.243-.145-.305-.204c-.397-.265-1.072-.694-1.9-1.057s-1.755-.646-2.624-.67a2 2 0 0 1-1.936-1.999v-11.3h-17v11.3a1.99 1.99 0 0 1-.274 1.011c-.23.368-.36.446-.45.533-.175.142-.24.172-.304.213l-.264.14-1.156.512-3.637 1.525-.478-1.03.53 1.005-.05.025-.478-1.03.53 1.005a2 2 0 0 1-2.41-.424l-6.383-7-11.53 11.262 6.82 6.273a2 2 0 0 1 .409 2.417l-.404.766-1.175 2.2-.52.94-.2.35-.15.215c-.042.053-.087.114-.2.234-.065.06-.145.138-.316.25-.087.055-.198.12-.366.185a1.99 1.99 0 0 1-.718.134h-11.803v17h11.803a2 2 0 0 1 1.999 1.935c.026 1.1.46 2.518.94 3.648l.67 1.437.24.454.082.15.072.133c.38.735.268 1.632-.282 2.25l-7.198 8.086 11.6 11.733 6.654-6.9c.62-.643 1.588-.797 2.377-.378l-.586 1.104.56-1.118.027.014-.586 1.104.56-1.118.32.147 2.732 1.233 1.323.614.468.232.237.135c.054.035.114.07.24.17.064.055.146.12.28.282.068.084.152.194.246.38s.206.465.2.892v8.38h17v-8.38a2 2 0 0 1 1.935-1.999c1.027-.025 2.184-.463 3.094-.963a13 13 0 0 0 1.146-.704l.382-.268.162-.113c.063-.04.105-.076.272-.167a2 2 0 0 1 2.308.31l7.314 6.9 11.805-12.032-7.062-7.53a2 2 0 0 1-.314-2.295l.08-.146.453-.832c.303-.584.7-1.403.997-2.28s.53-1.808.55-2.56a2 2 0 0 1 2-1.935h7.878v-17h-7.878v-2" class="B"/><path d="M602.286 157.346c0-6.212-5.037-11.25-11.25-11.25s-11.25 5.038-11.25 11.25a11.25 11.25 0 0 0 11.25 11.25c6.213 0 11.25-5.036 11.25-11.25" class="C"/><g class="B"><path d="M554.786 92.598h59v4h-59zm66 0h9v4h-9z"/><path d="M563.627 89.666l-5.16 5.16 5.02 5.02-3.182 3.182-6.6-6.6a2.25 2.25 0 0 1 0-3.182l6.75-6.75 3.182 3.182m6.16 128.93h57v4h-57z"/><path d="M554.786 218.598h9v4h-9zm64.16 7.247l5.16-5.16-5.02-5.02 3.182-3.182 6.6 6.6c.42.42.66 1 .66 1.6a2.26 2.26 0 0 1-.66 1.59l-6.75 6.75-3.182-3.182m299.84-59.243v2h-73v68h71v-70h2v2-2h2v72c0 .526-.213 1.04-.586 1.414s-.887.586-1.414.586h-75c-.527 0-1.042-.214-1.414-.586s-.586-.888-.586-1.414v-72c0-.527.213-1.042.586-1.415a2.01 2.01 0 0 1 1.414-.585h75c.527 0 1.042.213 1.414.585s.586.888.586 1.415h-2m-68 43h4v4h-4zm19 0h42v4h-42zm-19-15h4v4h-4zm19 0h42v4h-42zm-19-15h4v4h-4zm7 30h5v4h-5zm0-15h5v4h-5zm0-15h5v4h-5zm12 0h42v4h-42z"/></g><path d="M911.786 221.598h-61v10h61v-10" class="C"/><g class="B"><path d="M902.786 224.598h6v4h-6zm-487.5 32.25h-2.25v-9.75h-13.5v7.5h15.75v2.25h-2.25 2.25v2.25h-18c-.593 0-1.172-.24-1.6-.66a2.27 2.27 0 0 1-.66-1.59v-12a2.26 2.26 0 0 1 .66-1.59 2.27 2.27 0 0 1 1.59-.66h18a2.26 2.26 0 0 1 1.59.66 2.27 2.27 0 0 1 .659 1.591v12c0 .593-.24 1.172-.66 1.6s-1 .66-1.6.66v-2.25"/><path d="M408.537 257.597v6.75c0 .593-.24 1.172-.66 1.59s-1 .66-1.59.66h-57.75v-4.5h55.5v-4.5h4.5"/></g><path d="M246.286 265.847h-12v4.5h12v-4.5m-24.75-37.5h-12v4.5h12v-4.5m49.5 0h-12v4.5h12v-4.5m-100.25-83.75h17.75l-17.75 17.75z" class="C"/><g class="B"><path d="M190.786 90.598v54.874c0 .527-.213 1.042-.586 1.415l-17.125 17.125c-.372.372-.887.586-1.414.586h-66.875c-.527 0-1.042-.214-1.414-.586s-.586-.888-.586-1.414v-72h4v70h64.047l15.953-15.954V90.598h4m-75 59h12v4h-12z"/><path d="M115.786 140.598h12v4h-12zm0-21h61v4h-61zm0-10h61v4h-61zm0-11h61v4h-61zm215-23h4v6h-4zm0-10h4v6h-4zm0-11h4v6h-4zm8 1h6v4h-6zm11 0h6v4h-6zm10 0h6v4h-6zm-61 0h6v4h-6zm10 0h6v4h-6zm11 0h6v4h-6zm172 231h6v4h-6zm11 0h6v4h-6zm9 0h6v4h-6zm-20-11h6v4h-6zm11 0h28v4h-28zm-11-10h48v4h-48zm377 0h6v4h-6zm-11 0h6v4h-6zm-9 0h6v4h-6zm20 10h6v4h-6zm-33 0h28v4h-28zm-9 11h48v4h-48zm-702-50h6v4h-6zm-11 0h6v4h-6zm-9 0h6v4h-6zm20 11h6v4h-6zm-33 0h28v4h-28zm-9 10h48v4h-48zm288 45h7v4h-7zm15 0h7v4h-7zm15 0h7v4h-7zm15 0h7v4h-7zm288-252h7v4h-7zm15 0h7v4h-7zm15 0h7v4h-7zm15 0h7v4h-7zm-627-3h49v4h-49zm57 0h7v4h-7zm15 0h7v4h-7zm784 263h8v4h-8zm15 0h8v4h-8zm15 0h47v4h-47zm-578-145v2h-20v18h18v-20h2v2-2h2v22c0 .526-.213 1.04-.586 1.414s-.887.586-1.414.586h-22c-.527 0-1.042-.214-1.414-.586s-.586-.888-.586-1.414v-22c0-.527.213-1.042.586-1.415a2.01 2.01 0 0 1 1.414-.585h22c.527 0 1.042.213 1.414.585s.586.888.586 1.415h-2"/><use xlink:href="#K"/><use xlink:href="#L"/><path d="M1077.786 42.598v2h-20v18h18v-20h2v2-2h2v22c0 .526-.2 1.04-.6 1.414-.37.372-.88.586-1.4.586h-22c-.53 0-1.04-.214-1.4-.586-.38-.373-.6-.888-.6-1.414v-22c0-.53.2-1.04.6-1.4.37-.38.88-.6 1.4-.6h22c.53 0 1.04.2 1.4.6.38.37.6.88.6 1.4h-2"/><path d="M1053.946 63.256l22.5-22.498 3.18 3.18-22.5 22.5"/><path d="M1076.446 66.438l-22.5-22.5 3.18-3.18 22.5 22.498"/><use xlink:href="#M"/><use xlink:href="#K" x="252" y="-97.5"/><use xlink:href="#L" x="252" y="-97.5"/><path d="M819.786 235.598v2h-20v19h18v-21h2v2-2h2v23c0 .526-.214 1.04-.586 1.414s-.888.586-1.414.586h-22c-.527 0-1.042-.214-1.414-.586s-.586-.888-.586-1.414v-23c0-.527.213-1.042.586-1.415s.887-.585 1.414-.585h22c.526 0 1.042.213 1.414.585a2.02 2.02 0 0 1 .586 1.415h-2"/><use xlink:href="#K" x="390" y="70.5"/><use xlink:href="#L" x="390" y="70.5"/><use xlink:href="#M" x="-432" y="33"/><use xlink:href="#K" x="-180" y="-64.5"/><use xlink:href="#L" x="-180" y="-64.5"/><path d="M99.786 187.598v2h-20v19h18v-21h2v2-2h2v23c0 .526-.213 1.04-.586 1.414s-.887.586-1.414.586h-22c-.527 0-1.042-.214-1.414-.586s-.586-.888-.586-1.414v-23c0-.527.213-1.042.586-1.415s.888-.585 1.414-.585h22c.527 0 1.042.213 1.414.585s.586.888.586 1.415h-2"/><use xlink:href="#K" x="-329.999" y="22.5"/><use xlink:href="#L" x="-329.999" y="22.5"/><path d="M207.786 189.598h4v9h-4zm0-15h4v8h-4zm-11 10h7v4h-7zm18 0h7v4h-7zm213-115h4v9h-4zm0-15h4v8h-4zm-11 10h8v4h-8zm18 0h8v4h-8zm152 244h4v9h-4zm0-15h4v7h-4zm-11 9h8v4h-8zm18 0h8v4h-8zm232-239h4v9h-4zm0-15h4v8h-4zm-11 10h7v4h-7zm18 0h7v4h-7zm101 238h4v9h-4zm0-15h4v7h-4zm-11 9h7v4h-7zm18 0h7v4h-7zm185-213h4v9h-4zm0-15h4v7h-4zm-14 9h9v4h-9zm22 0h9v4h-9z"/></g><path d="M29.47 111.25v215.91h28.61V111.25H29.47" class="D"/><g fill="#282d33"><use xlink:href="#N"/><use xlink:href="#O"/><use xlink:href="#N" y="-16.69"/><use xlink:href="#O" y="-16.692"/><use xlink:href="#N" y="-33.38"/><use xlink:href="#O" y="-33.382"/><use xlink:href="#N" y="-50.071"/><use xlink:href="#O" y="-50.072"/><use xlink:href="#N" y="-66.762"/><use xlink:href="#O" y="-66.762"/><use xlink:href="#N" y="-83.453"/><use xlink:href="#O" y="-83.452"/><use xlink:href="#N" y="-100.143"/><use xlink:href="#O" y="-100.74"/><use xlink:href="#N" y="-117.431"/><use xlink:href="#O" y="-117.43"/><use xlink:href="#N" y="-134.121"/><use xlink:href="#O" y="-134.122"/><use xlink:href="#N" y="-150.811"/><use xlink:href="#O" y="-150.812"/><use xlink:href="#N" y="-167.502"/><use xlink:href="#O" y="-167.502"/><use xlink:href="#N" y="-184.192"/><use xlink:href="#O" y="-184.192"/><use xlink:href="#N" y="-200.884"/><path d="M378.498 327.408h101.298v80.358H378.498zm105.298-4H374.498v88.358h109.298v-88.358m-8.414 71.927h-92.47v-26.632h92.47zm-4-4v-18.632h-84.47v18.632h84.47m-60.852-27.537h-27.617v-14.873h27.617zm-4-4v-6.873h-19.617v6.873h19.617m4-18.668h-27.617v4h27.617v-4"/><path d="M410.53 332.673h-27.617v4h27.617v-4m32.425 8.457H415.34v4h27.616v-4m7.678 39.02H407.66v4h42.973v-4m-7.678-47.477H415.34v4h27.616v-4m32.426 8.457h-27.617v4h27.617v-4m0-8.457h-27.617v4h27.617v-4m-32.427 31.125H415.34v-14.873h27.616zm-4-4v-6.873H419.34v6.873h19.616m36.426 4h-27.617v-14.873h27.617zm-4-4v-6.873h-19.617v6.873h19.617m-92.884 51.968h101.298v8.292H378.498zm105.298-4H374.498v16.292h109.298v-16.292m-98.492 6.236h-3.996v4h3.996v-4m6.92 0h-4v4h4v-4m6.917 0h-3.998v4h3.998v-4m28.412-14.932h-35.277v4h35.277v-4m-40.27 0h-4.372v4h4.372v-4"/></g><path d="M83.293 342.02h26.522l9.56-50.516 13.94 50.516h26.46l14-50.516 9.56 50.516h26.4l-19.923-90.423h-27.386l-15.852 56.93-15.8-56.93H103.4zm135.573 0h74.88v-19.306H246.87v-14.37h43.484V289.9H246.87v-17.826h48.234v-20.478h-76.236zm91.41 0h52.305q13.076 0 20.046-6.476 7.032-6.476 7.032-16.037 0-8.018-4.996-13.755-3.33-3.824-9.745-6.045 9.745-2.344 14.3-8.08 4.626-5.675 4.626-14.3 0-7.032-3.27-12.644-3.27-5.613-8.944-8.882-3.516-2.035-10.6-2.96-9.437-1.234-12.52-1.234h-48.234zm28.188-35.466h12.15q6.538 0 9.067 2.22 2.6 2.282 2.6 6.538 0 3.948-2.6 6.168-2.53 2.22-8.882 2.22h-12.336zm0-35.528h14.248q7.217 0 10.177 2.53 2.96 2.6 2.96 6.908 0 4-2.96 6.415-2.9 2.467-10.24 2.467h-14.186z" fill="#84dbff"/><g class="B"><path d="M144.786 296.598h4v9h-4zm0-15h4v7h-4zm-14 9h9v4h-9zm22 0h9v4h-9zm102-29v2h-27v9h25v-11h2v2-2h2v13c0 .526-.213 1.04-.586 1.414s-.887.586-1.414.586h-29c-.527 0-1.042-.214-1.414-.586s-.586-.888-.586-1.414v-13c0-.527.213-1.042.586-1.415a2.01 2.01 0 0 1 1.414-.585h29c.527 0 1.042.213 1.414.585s.586.888.586 1.415h-2"/><use xlink:href="#P"/><use xlink:href="#P" x="50"/><path d="M217.786 236.598v9h44v-9h4v11c0 .526-.213 1.04-.586 1.414s-.887.586-1.414.586h-48c-.527 0-1.042-.214-1.414-.586s-.586-.888-.586-1.414v-11h4"/><path d="M237.786 248.598h4v12h-4z"/></g><path d="M246.286 265.847h-12v4.5h12v-4.5m106.014 62.26l4.698-22.2 5.4 5.4 9.546-9.547 7.424 7.426-9.546 9.545 4.677 4.678-22.198 4.7" class="C"/><path d="M305.82 251.568l-.788-2.107 17.967-6.72a2.25 2.25 0 0 1 3.039 2.107v12a2.26 2.26 0 0 1-2.885 2.159l-17.967-5.28c-.933-.274-1.58-1.107-1.615-2.078s.55-1.848 1.46-2.188l.788 2.107.634-2.16 15.084 4.432v-5.75l-14.93 5.584-.788-2.107.634-2.16-.634 2.16" class="B"/><path d="M397.287 256.847v-12h-73.5v12h73.5" fill="#fff"/><path d="M397.287 256.847h-2.25v-9.75h-69v7.5h71.25v2.25h-2.25 2.25v2.25h-73.5c-.593 0-1.172-.24-1.59-.66s-.66-.998-.66-1.59v-12c0-.592.24-1.172.66-1.59s.998-.66 1.59-.66h73.5c.592 0 1.172.24 1.59.66s.66 1 .66 1.59v12c0 .593-.24 1.172-.66 1.59s-1 .66-1.59.66v-2.25" class="B"/><g fill="#282d33"><path d="M74.606 293.648h5.24a4.82 4.82 0 0 1 .047.682v75.97a4.82 4.82 0 0 1-.047.682h-5.24c-.027-.2-.047-.42-.047-.682v-75.97c0-.262.02-.492.047-.682zm6.287-4H73.56c-1.823 0-3 1.838-3 4.682v75.97c0 2.844 1.177 4.682 3 4.682h7.334c1.822 0 3-1.838 3-4.682v-75.97c0-2.844-1.178-4.682-3-4.682"/><path d="M77.225 330.316c-.428 0-.86.137-1.224.42a2 2 0 0 0-.355 2.806l25.25 32.582a2 2 0 1 0 3.162-2.45l-25.25-32.582c-.394-.51-.985-.775-1.582-.775"/><path d="M108.476 374.564c-3.125 0-5.668-2.542-5.668-5.666s2.543-5.666 5.668-5.666 5.666 2.542 5.666 5.666-2.542 5.666-5.666 5.666zm0-15.332a9.68 9.68 0 0 0-9.668 9.666 9.68 9.68 0 0 0 9.668 9.666 9.68 9.68 0 0 0 9.666-9.666 9.68 9.68 0 0 0-9.666-9.666m93.75 1.666h-4v13.75h4v-13.75m-16.75 0h-4v13.75h4v-13.75m-16.75 0h-4v13.75h4v-13.75"/><path d="M151.976 360.898h-4v13.75h4v-13.75m-16.75 0h-4v13.75h4v-13.75m-61.333 27.194h6.666v6.667h-6.666zm10.666-4H69.893v14.667H84.56v-14.667m8.498 4h6.668v6.667h-6.668zm10.668-4H89.058v14.667h14.668v-14.667m8.5 4h6.665v6.667h-6.665zm10.665-4h-14.665v14.667h14.665v-14.667m81.667 5.333H130.2v4h74.367v-4"/></g><path d="M158.446 391.425a4 4 0 1 0-8 0 4 4 0 1 0 8 0" fill="#2e95d1"/><path d="M253.88 351.8h-6v4h6zm11 0h-6v4h6zm9 0h-6v4h6zm-20 10h-6v4h6zm33 0h-28v4h28zm9 11h-48v4h48z" class="B"/></g><defs ><path id="B" d="M321.18 171.965c0-14.13-11.445-25.58-25.57-25.58s-25.578 11.45-25.578 25.58c0 14.124 11.448 25.57 25.578 25.57s25.57-11.447 25.57-25.57"/><path id="C" d="M714.786 228.598v2h-16v14h14v-16h2v2-2h2v18c0 .526-.213 1.04-.586 1.414s-.887.586-1.414.586h-18c-.527 0-1.042-.214-1.414-.586s-.586-.888-.586-1.414v-18c0-.527.213-1.042.586-1.415s.887-.585 1.414-.585h18c.527 0 1.042.213 1.414.585s.586.888.586 1.415h-2"/><path id="D" d="M1100.786 112.598v2h-28v26h26v-28h2v2-2h2v30c0 .526-.2 1.04-.6 1.414-.37.372-.88.586-1.4.586h-30c-.53 0-1.04-.214-1.4-.586-.38-.373-.6-.888-.6-1.414v-30c0-.527.2-1.042.6-1.415.37-.372.88-.585 1.4-.585h30c.53 0 1.04.213 1.4.585.38.373.6.888.6 1.415h-2"/><path id="E" d="M1068.946 141.256l30-30 3.18 3.182-30 30"/><path id="F" d="M1098.946 144.438l-30-30 3.18-3.182 30 30"/><path id="G" d="M1040.786 232.598v2h-28v26h26v-28h2v2-2h2v30c0 .526-.2 1.04-.6 1.414-.37.372-.88.586-1.4.586h-30c-.527 0-1.042-.214-1.414-.586s-.586-.888-.586-1.414v-30c0-.527.213-1.042.586-1.415s.887-.585 1.414-.585h30c.53 0 1.04.213 1.4.585.38.373.6.888.6 1.415h-2"/><path id="H" d="M500.786 111.598v2h-28v26h26v-28h2v2-2h2v30c0 .526-.213 1.04-.586 1.414s-.887.586-1.414.586h-30c-.527 0-1.042-.214-1.414-.586s-.586-.888-.586-1.414v-30c0-.527.213-1.042.586-1.415s.887-.585 1.414-.585h30c.527 0 1.042.213 1.414.585s.586.888.586 1.415h-2"/><path id="I" d="M468.945 139.756l30.002-30 3.182 3.182-30.002 30"/><path id="J" d="M498.947 142.938l-30.002-30 3.182-3.182 30.002 30"/><path id="K" d="M405.945 186.256l22.5-22.5 3.182 3.182-22.5 22.5"/><path id="L" d="M428.445 189.438l-22.5-22.5 3.182-3.182 22.5 22.5"/><path id="M" d="M681.786 67.598v2h-20v19h18v-21h2v2-2h2v23c0 .526-.213 1.04-.586 1.414s-.887.586-1.414.586h-22c-.527 0-1.042-.214-1.414-.586s-.586-.888-.586-1.414v-23c0-.527.213-1.042.586-1.415s.887-.585 1.414-.585h22c.527 0 1.042.213 1.414.585s.586.888.586 1.415h-2"/><path id="N" d="M47.15 317.227v4h10.93v-4H47.15"/><path id="O" d="M52.195 308.882v4h5.885v-4h-5.885"/><path id="P" d="M228.786 223.598v2h-25v10h23v-12h2v2-2h2v14c0 .526-.213 1.04-.586 1.414s-.887.586-1.414.586h-27c-.527 0-1.042-.214-1.414-.586s-.586-.888-.586-1.414v-14c0-.527.213-1.042.586-1.415s.887-.585 1.414-.585h27c.527 0 1.042.213 1.414.585s.586.888.586 1.415h-2"/></defs></svg>