<?xml version="1.0" encoding="UTF-8" standalone="no"?>
<svg
   xmlns:dc="http://purl.org/dc/elements/1.1/"
   xmlns:cc="http://creativecommons.org/ns#"
   xmlns:rdf="http://www.w3.org/1999/02/22-rdf-syntax-ns#"
   xmlns:svg="http://www.w3.org/2000/svg"
   xmlns="http://www.w3.org/2000/svg"
   xmlns:sodipodi="http://sodipodi.sourceforge.net/DTD/sodipodi-0.dtd"
   xmlns:inkscape="http://www.inkscape.org/namespaces/inkscape"
   width="572.24"
   height="609.65"
   version="1.1"
   viewBox="0 0 572.23999 609.65332"
   xml:space="preserve"
   id="svg242"
   sodipodi:docname="webtest.svg"
   inkscape:version="0.92.3 (2405546, 2018-03-11)"><defs
     id="defs246" /><sodipodi:namedview
     pagecolor="#ffffff"
     bordercolor="#666666"
     borderopacity="1"
     objecttolerance="10"
     gridtolerance="10"
     guidetolerance="10"
     inkscape:pageopacity="0"
     inkscape:pageshadow="2"
     inkscape:window-width="1920"
     inkscape:window-height="1026"
     id="namedview244"
     showgrid="false"
     inkscape:zoom="1.0949049"
     inkscape:cx="234.29617"
     inkscape:cy="270.17066"
     inkscape:window-x="0"
     inkscape:window-y="0"
     inkscape:window-maximized="1"
     inkscape:current-layer="g238" /><metadata
     id="metadata2"><rdf:RDF><cc:Work
         rdf:about=""><dc:format>image/svg+xml</dc:format><dc:type
           rdf:resource="http://purl.org/dc/dcmitype/StillImage" /><dc:title /></cc:Work></rdf:RDF></metadata><g
     transform="matrix(1.3333 0 0 -1.3333 0 609.65)"
     id="g240"><g
       transform="scale(.1)"
       id="g238"><path
         d="m722.88 337.2c816.44-449.59 2140.2-449.61 2956.6-8e-3 816.44 449.61 816.44 1178.5 0 1628.1s-2140.2 449.6-2956.6 0.01c-816.43-449.59-816.43-1178.5 0.012-1628.2"
         id="path4"
         fill="#f3f2f1"
         style="fill:#FF9C39;fill-opacity:0" /><path
         d="m556.22 654.39 61.238-35.352c16.738-9.668 43.879-9.668 60.621 0l1807.9 1043.8c16.74 9.66 16.74 25.33 0 35l-61.24 35.35c-16.74 9.67-43.89 9.67-60.63 0l-1807.9-1043.8c-16.746-9.661-16.746-25.332 0-35"
         id="path6"
         fill="#dadbd8"
         style="fill:#FF9C39;fill-opacity:1" /><path
         d="m3211.5 951.01c176.9-92.41 463.69-92.41 640.57-0.012 176.89 92.42 176.89 242.24 0 334.65-176.88 92.41-463.68 92.41-640.57 0-176.88-92.41-176.88-242.23 0-334.64"
         id="path8"
         fill="#dadbd8"
         style="fill:#FF9C39;fill-opacity:1" /><path
         d="m2994.4 1137.5c53.21-27.79 139.5-27.8 192.71 0 53.22 27.81 53.22 72.88 0 100.68-53.21 27.81-139.5 27.81-192.71 0-53.23-27.8-53.23-72.87 0-100.68"
         id="path10"
         fill="#dadbd8"
         style="fill:#FF9C39;fill-opacity:1" /><path
         d="m631.15 1124.6c2.418 88.78-22.265 237.71-109.75 386.33-93.628 159.05-217.21 265.61-321.07 233.22-96.723-30.17-75.449-161.45 69.969-304.4 102.04-100.31 205.35-227.63 252.55-373.04l81.832-187.37 26.472 245.26"
         id="path12"
         fill="#26b6a6" /><path
         d="m631.15 1124.6c2.418 88.78-22.265 237.71-109.75 386.33-93.628 159.05-217.21 265.61-321.07 233.22-96.723-30.17-75.449-161.45 69.969-304.4 102.04-100.31 205.35-227.63 252.55-373.04l81.832-187.37 26.472 245.26"
         id="path14"
         fill="#273e47" /><path
         d="m614.98 1058.5c-2.55 0.27-4.789 2.11-5.425 4.75-62.297 253.59-220.19 520.43-367.3 620.68-2.875 1.97-3.617 5.88-1.66 8.75 1.976 2.89 5.875 3.6 8.746 1.66 149.38-101.82 309.48-371.83 372.42-628.08 0.835-3.38-1.227-6.79-4.606-7.61l-2.18-0.15"
         id="path16"
         fill="#fff" /><path
         d="m632.04 837.09s-62.121-62.149-172.77-86.5c-110.66-24.352-163.14 26.129-163.14 26.129s37.738 107.39 99.426 140.57c0 0-106.25-28.328-189.14-91.078 0 0-68.152-5.102-101.51 97.379 0 0 36.68 65.07 170.26 107 0 0-83.734 15.84-200.81-21.57-8.7031-4.07-54.734 128.26-69.93 189.68-15.195 61.41 9.8008 62.25 57.441 78.06 47.645 15.82 212.02 33.77 243.91 8.95 31.899-24.82 52.723-114.95 52.723-114.95s25.918 53.25 16.23 98.82c0 0 47.629 19.4 103.15 3.68 55.519-15.71 53.644-42.43 56-82 2.523-42.32 0.019-70.67-9.266-118.81 0 0 35.621 34.73 29.805 154.61 0 0 77.254-58.53 110-110.84 32.742-52.31 33.695-194.21-32.383-279.13"
         id="path18"
         fill="#33535f" /><path
         d="m632.41 830.81c-2.336-0.129-4.652 1.043-5.871 3.23-101.31 181.9-449.43 379.53-570.88 395.72-3.4375 0.46-5.8633 3.63-5.4024 7.07 0.4571 3.46 3.6602 5.84 7.0742 5.41 123.44-16.46 477.28-217.27 580.19-402.08 1.696-3.039 0.606-6.871-2.433-8.551-0.86-0.488-1.766-0.738-2.684-0.8"
         id="path20"
         fill="#fff" /><path
         d="m3711 1397.9s13.84 121.83 74.45 216.39c60.61 94.55 143.88 153.57 221.57 159.71 77.7 6.15 140.45-65.34 57.32-114.43-83.14-49.09-230.83-99.19-298.8-282.78l-54.54 21.11"
         id="path22"
         fill="#26b6a6" /><path
         d="m3765.5 1376.8-54.54 21.11s13.84 121.83 74.45 216.39c60.61 94.55 143.88 153.57 221.57 159.71 3.16 0.25 6.3 0.37 9.39 0.37 47.59 0 87.28-28.64 87.29-61.62 0-17.73-11.48-36.71-39.36-53.18-83.14-49.09-230.83-99.19-298.8-282.78"
         id="path24"
         fill="#1db3a0"
         style="fill:#352ea0;fill-opacity:1" /><path
         d="m3733.8 1429.5-0.82 0.24c-2.12 0.86-3.14 3.28-2.27 5.4 81.98 201.93 238.07 286.25 309.17 302.62 2.21 0.53 4.45-0.89 4.97-3.11 0.51-2.24-0.88-4.47-3.12-4.98-69.63-16.03-222.64-98.89-303.34-297.65-0.75-1.86-2.69-2.87-4.59-2.52"
         id="path26"
         fill="#fff" /><path
         d="m4148.8 1427.1c-7.03-15.86-24.35-24.12-40.46-30.61-16.02-6.43-33.58-13.46-42.29-28.46-17.54-30.28 11.26-72.87-7.57-102.37-7.9-12.37-22.6-18.88-37.04-21.47-12.01-2.25-24.23-2.23-36.4-3.25-5.86 0.12-11.65 0.54-17.3 1.34-16.7 2.42-34.82 3.21-50.12-5.34-24.07-13.53-31.48-43.93-46.1-67.37-17.52-28.07-48.52-46.44-81.09-50.87-10.82-1.43-30.95-3.38-41.96 2.77l-2.28 1.45-0.2 0.19c-1.52 1.71-3.42 3.88-4.23 5.07l-0.43 0.71c-4.27 15.71 2.7 32.06 2.98 48.28 0.03 1.03 0.05 1.98-0.02 2.94-0.68 18.86-1.2 37.61-1.64 56.43-0.88 34.62-1.27 69.3-1.04 103.96 0.24 22.5-2.47 47.13 7.05 68.33 10.55 23.31 36.76 23.82 46.67 46.7 3.97 9.12 6.08 18.89 9.92 28.11 11.46 27.04 39.24 46.48 68.64 47.92 45.76 2.32 86.83-34.74 132.55-31.37 11.84 0.93 23.38 4.53 35.05 6.68 37.07 6.94 79.91-3.62 100.76-34.98 8.71-13.11 12.93-30.4 6.55-44.79"
         id="path28"
         fill="#26b6a6"
         style="fill:#2644a6;fill-opacity:1" /><path
         d="m3737.6 1201-0.31 0.08c-2.08 0.55-3.32 2.69-2.77 4.78 63.24 237.26 313.23 271.55 371.71 267.33 2.12-0.17 3.76-2.02 3.62-4.18-0.15-2.15-2.03-3.77-4.17-3.61-57.22 4.12-301.74-29.42-363.62-261.56-0.53-1.98-2.49-3.2-4.46-2.84"
         id="path30"
         fill="#fff" /><path
         d="m4015.4 1321.2-2.07 1.09c-0.62 0.64-64.37 63.49-170.11 47.93-2.13-0.29-4.13 1.15-4.45 3.29-0.31 2.14 1.17 4.12 3.3 4.44 109.83 16.14 176.16-49.5 176.82-50.16 1.51-1.53 1.49-4-0.03-5.52-0.95-0.93-2.25-1.29-3.46-1.07"
         id="path32"
         fill="#fff" /><path
         d="m658.75 652.22-37.937 21.91c-11.958 6.902-21.653 23.691-21.653 37.5l-0.012 2811.2c0 13.8 9.692 30.59 21.649 37.5l1744 1006.9c11.96 6.9 31.34 6.9 43.3 0l37.96-21.91c11.95-6.9 21.65-23.69 21.65-37.5v-2811.2c0-13.8-9.7-30.6-21.65-37.5l-1744-1006.9c-11.953-6.899-31.34-6.899-43.301 0"
         id="path34"
         fill="#26b6a6"
         style="fill:#5353c9;fill-opacity:1" /><path
         d="m605.5 3544.2-0.059 0.03c4 6.8 9.301 12.61 15.297 16.11l791.84 457.16c0-0.01-0.01-0.03-0.01-0.03l-791.77-457.13c-5.973-3.45-11.379-9.36-15.293-16.14m928.03 543.11c0.01 0.01 0.02 0.03 0.03 0.04l61.5 35.51c0-0.01 0-0.02 0.01-0.03l-61.54-35.52m144.44 83.39v0.02l1.04 0.61c-0.04-0.04-0.08-0.07-0.11-0.1l-0.93-0.53m49.07 28.36 637.71 368.18c6 3.44 13.85 5.17 21.68 5.17 2.96 0 5.91-0.24 8.76-0.73-2.85 0.49-5.8 0.73-8.75 0.73-7.84 0-15.67-1.73-21.65-5.18l-637.65-368.15c-0.04 0-0.07-0.02-0.1-0.02m724.5 342.28c-1.75 1.54-3.6 2.89-5.49 3.98l-16.86 9.73 16.86-9.71c1.89-1.1 3.73-2.45 5.49-4"
         id="path36"
         fill="#fff" /><path
         d="m686.74 3497.3-81.238 46.87c3.914 6.78 9.32 12.69 15.293 16.14l791.77 457.13c-1.08-2.99-2.18-5.92-3.32-8.81-0.01-0.03-0.03-0.07-0.04-0.11-0.02-0.05-0.04-0.09-0.05-0.13-0.02-0.05-0.04-0.09-0.06-0.14-0.02-0.04-0.03-0.08-0.05-0.11-0.02-0.06-0.04-0.11-0.06-0.17-0.01-0.03-0.03-0.07-0.04-0.1-0.04-0.09-0.07-0.18-0.11-0.26-0.55-1.4-1.11-2.78-1.68-4.14-3.64-8.79-7.45-16.89-11.37-24.43l0.01-0.01c-30.53-58.75-67.84-81.69-89.45-111.91l-0.01-0.02c-0.03-0.04-0.06-0.08-0.09-0.13-0.01-0.01-0.02-0.03-0.04-0.05-0.02-0.03-0.04-0.05-0.06-0.08-0.03-0.04-0.06-0.09-0.09-0.13 0 0-0.01-0.01-0.01-0.02-0.02-0.02-0.04-0.05-0.07-0.09 0 0-0.01-0.01-0.01-0.02-1.81-2.51-3.49-4.98-5.08-7.43l-598.84-345.74c-6-3.41-11.305-9.3-15.305-16.11m822.62 482.21c-0.47 4.62-0.72 9.49-0.72 14.59 0 31.99 9.74 66.07 24.89 93.18l61.54 35.52c2.2-8.79 3.37-18.87 3.37-30.09 0-12.48-1.47-25.26-4.17-37.83-5.14-11.25-9.72-22.71-13.62-34.21l-71.29-41.16m210.41 147.31c6.81 9.58 11.78 15.35 13.74 15.35 0.12 0 0.23-0.02 0.33-0.07 5.2-2.37 9.45-6.46 12.59-12.09-4.73-0.34-9.82-1.06-15.13-1.79-3.75-0.51-7.6-1.02-11.53-1.4m90.41 26.37c-0.68 11.03-0.99 18.31-1.03 19.32v0.1l-1.8 0.99-39.31 22.61c-6.5 3.8-14.09 5.69-22.39 5.69-5.78 0-11.96-0.93-18.51-2.85l637.65 368.15c5.98 3.45 13.81 5.18 21.65 5.18 2.95 0 5.9-0.24 8.75-0.73 4.71-0.82 9.15-2.3 12.86-4.44l21.14-12.19 16.86-9.73c1.89-1.09 3.74-2.44 5.49-3.98 8.34-7.37 14.75-19.26 15.9-30.01-1.01 7.63-5.56 11.97-11.77 11.97-2.91 0-6.18-0.96-9.62-2.96l-635.87-367.12m-132.14 17.29c-0.02 0.07-0.04 0.13-0.07 0.19l0.93 0.53c-0.28-0.23-0.57-0.48-0.86-0.72"
         id="path38"
         fill="#5cc8bc"
         style="fill:#5a70c9;fill-opacity:1" /><path
         d="m689.84 647.89h-0.028c0.075 0.019 0.145 0.031 0.219 0.05-0.062-0.019-0.129-0.031-0.191-0.05"
         id="path40"
         fill="#b4b6b4" /><path
         d="m599.15 714.18v96.711c0 7e-3 8e-3 7e-3 0.012 7e-3v-96.707l-0.012-0.011"
         id="path42"
         fill="#c7c9c7" /><path
         d="m659.7 651.7c-0.324 0.16-0.64 0.332-0.953 0.5l-38.004 21.903c-11.898 6.988-21.594 23.699-21.594 37.5v2.578l0.012 0.011v-2.562c0-13.809 9.695-30.598 21.653-37.5l37.937-21.91c0.313-0.18 0.629-0.348 0.949-0.52"
         id="path44"
         fill="#b4b6b4" /><path
         d="m599.15 810.89v65.121l0.012-0.02v-65.094c-4e-3 0-0.012 0-0.012-7e-3"
         id="path46"
         fill="#29444e" /><path
         d="m599.15 1891.1v1631.7l8e-3 -1631.7h-8e-3"
         id="path48"
         fill="#d2d4d1" /><path
         d="m599.16 1334.3c-8e-3 0.02-8e-3 0.02-0.012 0.04v556.78h8e-3l4e-3 -556.82"
         id="path50"
         fill="#c7c9c7" /><path
         d="m599.16 1189.4c-8e-3 0.01-8e-3 0.01-0.012 0.01v144.86c4e-3 -0.02 4e-3 -0.02 0.012-0.04v-144.83"
         id="path52"
         fill="#1f3239" /><path
         d="m599.16 896.44-0.012 0.02v292.98c4e-3 0 4e-3 0 0.012-0.01v-292.99"
         id="path54"
         fill="#29444e" /><path
         d="m599.15 3522.8c0 6.9 2.395 14.6 6.297 21.39l0.059-0.03c-3.93-6.79-6.356-14.45-6.356-21.36"
         id="path56"
         fill="#d2d4d1" /><path
         d="m599.16 875.99-0.012 0.02v20.449l0.012-0.02v-20.449"
         id="path58"
         fill="#d2d4d1" /><path
         d="m680.16 647.06c-5.805 0-11.59 0.98-16.613 2.929-1.344 0.481-2.629 1.082-3.848 1.711-0.32 0.172-0.636 0.34-0.949 0.52l-37.937 21.91c-11.958 6.902-21.653 23.691-21.653 37.5v622.63l-4e-3 556.82-8e-3 1631.7c0 6.91 2.426 14.57 6.356 21.36l81.238-46.87c-3.996-6.79-6.394-14.49-6.394-21.39v-2811.2c0-4.91 1.195-8.801 3.297-11.398 2.125-2.602 5.117-4.02 8.632-4.02 0.953 0 1.946 0.098 2.969 0.309 0.848 0.172 1.695 0.422 2.539 0.73l-0.84-0.332-2.199-0.797-0.902-0.3c-1.239-0.379-2.481-0.672-3.809-0.95-0.074-0.019-0.144-0.031-0.219-0.05h-0.468c-2.993-0.551-6.094-0.832-9.188-0.832m17.625 3.261 0.457 0.18c-0.152-0.059-0.304-0.121-0.457-0.18"
         id="path60"
         fill="#19b19d"
         style="fill:#4532c9;fill-opacity:1" /><path
         d="m1816.5 3940.5c-9.49-5.5-17.19 1.9-17.19 16.5 0 14.69 7.7 31 17.19 36.5 9.6 5.49 17.3-1.91 17.3-16.61 0-14.6-7.7-30.89-17.3-36.39m-242.7-9.11c-23.99-13.89-45-6-56.29 17.2-28.31-5.5-49.4 21.91-49.4 68.91 0 55.39 29.2 117.09 65.2 137.89 24 13.91 45 6 56.2-17.19 28.4 5.59 49.4-21.71 49.4-68.9 0-55.41-29.11-117.1-65.11-137.91m-321.09-316.5c-9.51-5.39-17.3 1.91-17.3 16.6 0 14.6 7.79 31.11 17.3 36.6 9.5 5.5 17.2-2 17.2-16.7 0-14.59-7.7-31-17.2-36.5m670.2 434.7c-1.01 0.61-2.1 1.21-3.2 1.9l-36 20.71c-8.4 5.29-21.6 10.4-42.01 14.89-6.2 1.41-11.79 3.01-16.69 4.6-6.1 2.1-11.3 4.21-15.9 6.51l2.7 3.29v0.1l-40.71 23.51v-0.11c-3.19 1.81-6.59 3.31-10.69 4.31-8 1.93-18.08 0.42-29.15-1.09-10.1-1.38-21.03-2.76-31.95-1.51-14.51 1.6-29 7.89-41.5 24.69-13.9 18.71-22.31 51.5-34.61 78.61l10.71 15.8c-1.1 0.69-2.21 1.29-3.41 1.9l-37.3 21.6c-5.99 3.5-12.89 5.6-20.79 5.6-10.91 0-23.7-3.81-39.1-12.7-89.31-51.61-92.3-174.11-124.51-254.6-32.19-80.71-77.7-105.8-102.5-140.51-25-34.59-26.49-60.29-81.39-136-54.9-75.7-57.1-94.2-57.1-108.49v-112.81l40.59-23.39 730.91 422.1-16.4 141.09"
         id="path62"
         fill="#33535f" /><path
         d="m1208.4 3486.4-40.59 23.39v112.81c0 4.72 0.28 9.95 2.58 17.5l40.54-23.4c-2.3-7.58-2.53-12.77-2.53-17.51v-112.79"
         id="path64"
         fill="#2d4853" /><path
         d="m1208.4 3486.4 40.59 23.44v-0.01l-40.59-23.43"
         id="path66"
         fill="#13a091" /><path
         d="m1256.5 3778-0.02 0.01c22.83 37.38 29.59 58.25 44.43 81.09-14.83-22.84-21.56-43.69-44.41-81.1"
         id="path68"
         fill="#13a091" /><path
         d="m1300.9 3859.1c1.59 2.45 3.27 4.92 5.08 7.43-1.81-2.51-3.49-4.98-5.08-7.43m5.09 7.45c0.03 0.04 0.05 0.07 0.07 0.09-0.02-0.03-0.04-0.05-0.07-0.09m0.08 0.11c0.03 0.04 0.06 0.09 0.09 0.13-0.03-0.04-0.06-0.08-0.09-0.13m0.15 0.21c0.02 0.02 0.03 0.04 0.04 0.05-0.01-0.01-0.03-0.03-0.04-0.05m0.13 0.18 0.01 0.02s0-0.01-0.01-0.02"
         id="path70"
         fill="#3da195" /><path
         d="m1297 3754.6-40.53 23.4c22.85 37.41 29.58 58.26 44.41 81.1 1.59 2.45 3.27 4.92 5.08 7.43 0 0.01 0.01 0.02 0.01 0.02 0.03 0.04 0.05 0.06 0.07 0.09 0 0.01 0.01 0.02 0.01 0.02 0.03 0.05 0.06 0.09 0.09 0.13 0.02 0.03 0.04 0.05 0.06 0.08 0.01 0.02 0.03 0.04 0.04 0.05 0.03 0.04 0.06 0.09 0.09 0.13 0.01 0.01 0.01 0.02 0.01 0.02l40.32-23.65c-18.82-26.13-24.25-47.25-49.66-88.82"
         id="path72"
         fill="#2d4853" /><path
         d="m1395.8 3979-0.01 0.01c3.92 7.54 7.73 15.64 11.37 24.43-3.64-8.79-7.44-16.91-11.36-24.44m13.04 28.58c0.04 0.08 0.07 0.17 0.11 0.26-0.04-0.09-0.07-0.18-0.11-0.26m0.15 0.36c0.02 0.06 0.04 0.11 0.06 0.17-0.02-0.07-0.04-0.11-0.06-0.17m0.11 0.28c0.02 0.05 0.04 0.09 0.06 0.14-0.02-0.05-0.04-0.09-0.06-0.14m0.11 0.27c0.01 0.04 0.03 0.08 0.04 0.11-0.01-0.03-0.03-0.07-0.04-0.11"
         id="path74"
         fill="#3da195" /><path
         d="m1436.3 3955.6-40.51 23.38c3.92 7.53 7.72 15.65 11.36 24.44 0.57 1.36 1.13 2.74 1.68 4.14 0.04 0.08 0.07 0.17 0.11 0.26 0.01 0.03 0.02 0.07 0.04 0.1 0.02 0.06 0.04 0.1 0.06 0.17 0.02 0.03 0.03 0.07 0.05 0.11 0.02 0.05 0.04 0.09 0.06 0.14 0.01 0.05 0.03 0.08 0.05 0.13 0.01 0.04 0.03 0.08 0.04 0.11 19.32 48.87 28.23 112.85 52.07 167.13l40.42-23.33c-24.01-54.66-32.79-119.22-52.39-168.22-4.15-10.4-8.52-19.87-13.04-28.56"
         id="path76"
         fill="#2d4853" /><path
         d="m1857.1 3917.1c-9.59-5.49-17.3 1.9-17.3 16.5 0 14.71 7.71 31 17.3 36.51 9.51 5.49 17.21-1.9 17.21-16.6 0-14.61-7.7-30.9-17.21-36.41m-283.3 14.3c-23.99-13.89-45-6-56.29 17.2-5.7 11.61-8.91 27-8.91 45.5 0 55.41 29.21 117.11 65.2 137.91 5.4 3.1 10.71 5.2 15.71 6.2 28.4 5.59 49.4-21.71 49.4-68.9 0-55.41-29.11-117.1-65.11-137.91m-280.6-339.9c-9.49-5.49-17.19 1.91-17.19 16.6 0 14.61 7.7 31.1 17.19 36.61 9.61 5.5 17.21-2 17.21-16.7 0-14.6-7.6-31-17.21-36.51m629.71 458.1c-1.01 0.61-2.1 1.21-3.2 1.9-8.41 4.3-20.4 8.4-37.5 12.21-32.41 7.3-46.2 18.7-57.2 27.99-4.51 3.81-8.51 7.2-13.2 9.8-3.21 1.91-6.7 3.41-10.91 4.41-7.95 1.9-18 0.4-29.06-1.11-23.17-3.16-50.74-6.32-72.53 21.91l-1 1.3c-22.5 30.3-30.7 97.9-64.4 117.8-1.1 0.69-2.21 1.29-3.41 1.9-13.89 6.5-31.99 5.3-56.7-8.91-89.29-51.59-92.3-174.09-124.49-254.59-32.21-80.7-77.7-105.8-102.5-140.5-25-34.61-26.4-60.3-81.4-136-54.91-75.7-57.01-94.2-57.01-108.51v-112.79l730.91 422.1v112.7c0 9.3-0.91 19.19-16.4 28.39"
         id="path78"
         fill="#273e47" /><path
         d="m1639 4069.3c0-55.41-29.11-117.1-65.11-137.91-23.99-13.89-45-6-56.29 17.2 5.1 1 10.3 3.01 15.8 6.2 36 20.8 65.09 82.5 65.09 137.91 0 18.5-3.2 33.89-8.89 45.5 28.4 5.59 49.4-21.71 49.4-68.9"
         id="path80"
         fill="#17282f" /><path
         d="m1293.3 3591.5c-9.52-5.5-17.28 1.89-17.28 16.53 0 14.66 7.76 31.09 17.28 36.59 9.51 5.5 17.21-2.02 17.21-16.67s-7.7-30.95-17.21-36.45"
         id="path82"
         fill="#17282f" /><path
         d="m1857.1 3917c-9.53-5.49-17.29 1.89-17.29 16.54s7.76 31.09 17.29 36.58c9.51 5.5 17.21-2.01 17.21-16.66s-7.7-30.96-17.21-36.46"
         id="path84"
         fill="#17282f" /><path
         d="m815.2 3250.4 1517.6 876.18c7.18 4.14 18.81 4.14 25.99 0.01l14.63-8.45c7.18-4.14 13-14.22 13-22.5v-2315.2c0-8.28-5.82-18.36-13-22.5l-1517.6-876.19c-7.18-4.141-18.809-4.141-25.981 0l-14.676 8.469c-7.172 4.14-12.984 14.222-12.984 22.5v2315.2c0 8.28 5.812 18.36 12.984 22.5"
         id="path86"
         fill="#f3f2f1" /><path
         d="m2386 4099.6c-1.6 5.31-6.6 7.01-12.5 3.61l-1517.6-876.2c-3.602-2.1-6.903-5.6-9.2-9.71l-40.601 23.41c2.301 4.09 5.601 7.7 9.199 9.69l1517.6 876.2c7.1 4.21 18.8 4.21 25.9 0l14.71-8.39c6.09-3.61 11.2-11.31 12.5-18.61"
         id="path88"
         fill="#fafaf9" /><path
         d="m852.75 880.39c-1.5-0.602-3.101-1-4.801-1.289l-2.5-0.313c-2.597-0.199-5.297-0.09-7.898 0.313-1.699 0.289-3.301 0.687-4.801 1.289-1 0.398-2.004 0.898-2.902 1.41l-14.598 8.39c-7.203 4.2-13 14.2-13 22.5v2315.2c0 4.2 1.399 8.8 3.801 12.81l40.601-23.41c-2.3-4.09-3.8-8.7-3.8-12.79v-2315.2c0-7.102 4.199-10.602 9.898-8.91"
         id="path90"
         fill="#dadbd8" /><path
         d="m1791.3 4054.6c-9.4-53-47.59-112.09-85.6-131.99-26.19-13.71-45.29-5.21-51.7 18.89-11.59-3.6-21.39-2.1-28.69 3.71-12.2 9.59 99.4 201.09 108.49 196.89 8.11-3.69 13.91-11.59 16.81-22.89 31.29 9.5 49.1-17 40.69-64.61m253.21-255.89-40.4 23.39c-10.4 6-24.1 6.11-40.6-1.19-47.21-20.8-67.61-30.2-92.01-40.4-5.6-2.3-11.29-4.6-17.59-7.1-9.51-3.81-28.6-0.6-22.7 32.69l62.7 168.91-0.91 0.5-39.69 23c-1.81 1.09-4 1.89-6.61 2.29-1.29 0.21-2.79 0.41-4.4 0.41-25.69 0.6-32.99 166.2-33.19 171.3v0.1l-1.8 0.99-39.31 22.61c-6.5 3.8-14.09 5.69-22.39 5.69-11.01 0-23.5-3.39-37.21-10.5-61.7-32.4-124-128.39-139.2-214.59-9.59-54.41-64.29-138.1-95.89-168.91-31.7-31-33.8-56.6-33.8-56.6l-24.6-139.4-7.9-44.6c-5.8-33.3-39.9-65.49-39.9-65.49l-127.3-95.41c-79.7-66.2-102.2-132.99-117.5-215.69l-0.1-0.6c-0.51-2.9 0.1-4.91 1.39-5.71l1.4-0.09v0.09h0.21l16.29 9.31 875.8 505.09c3.51 1.8 7.1 7.41 8.01 12.21l0.19 0.39v0.3c5 30.2 19.61 86.71 19.61 86.71l-0.6 0.3"
         id="path92"
         fill="#33535f" /><path
         d="m1125 3184.3-1.4 0.09c-0.98 0.61-1.56 1.91-1.57 3.76 0.01-1.85 0.59-3.15 1.57-3.76l1.4-0.09v0.09h0.21l0.18 0.11-0.18-0.11h-0.21v-0.09"
         id="path94"
         fill="#86969a" /><path
         d="m1125 3184.3-1.4 0.09c-0.98 0.61-1.56 1.91-1.57 3.76 0 0.59 0.06 1.24 0.18 1.95l0.1 0.6c11 59.47 25.85 110.7 62.9 159.42l63.79-36.83-73.28-88.92-50.33-39.87-0.18-0.11h-0.21v-0.09"
         id="path96"
         fill="#2d4853" /><path
         d="m1402.9 3552.8-0.04 0.03c1.83 4.65 3.32 9.4 4.18 14.19-0.86-4.8-2.3-9.57-4.14-14.22m4.15 14.27c0.01 0.07 0.02 0.14 0.04 0.21-0.02-0.07-0.03-0.14-0.04-0.21"
         id="path98"
         fill="#88999c" /><path
         d="m1492.8 3500.9-89.9 51.9c1.84 4.65 3.28 9.42 4.14 14.22 0 0.02 0.01 0.03 0.01 0.05 0.01 0.07 0.02 0.14 0.04 0.21l7.9 44.6 24.6 139.4s1.08 12.68 12.72 30.97l81.11-46.83-40.62-234.52"
         id="path100"
         fill="#2d4853" /><path
         d="m1537.5 3897.2h-0.02c5.02 9.05 9.72 18.22 13.92 27.27h0.02c-4.2-9.06-8.9-18.22-13.92-27.27m104.69 42.3c-6.43 0-12.04 1.91-16.66 5.53 4.58-3.59 10.15-5.45 16.53-5.45 3.43 0 7.09 0.54 10.96 1.64l-0.05-0.11c-3.8-1.08-7.4-1.61-10.78-1.61m-16.8 5.65c-0.01 0-0.03 0.01-0.04 0.02 0.01-0.01 0.03-0.02 0.04-0.02m-0.05 0.03c-0.01 0.01-0.01 0.02-0.02 0.02 0.01 0 0.01-0.01 0.02-0.02m-0.03 0.04c-0.01 0-0.02 0.01-0.03 0.02 0.01-0.01 0.02-0.02 0.03-0.02m-0.04 0.03c-0.01 0-0.01 0.01-0.02 0.02 0.01-0.01 0.01-0.02 0.02-0.02m-0.03 0.03c-0.01 0.01-0.02 0.01-0.02 0.02 0-0.01 0.01-0.01 0.02-0.02m-0.04 0.03c0 0.01-0.01 0.02-0.02 0.02 0.01 0 0.02-0.01 0.02-0.02m-0.03 0.04l-0.02 0.02c0.01-0.01 0.02-0.01 0.02-0.02m-0.03 0.03c-0.01 0.01-0.01 0.02-0.02 0.03 0.01-0.01 0.01-0.02 0.02-0.03m-0.03 0.04l-0.02 0.02 0.02-0.02m-0.03 0.04l-0.02 0.02 0.02-0.02m-0.03 0.04l-0.02 0.02 0.02-0.02m-0.03 0.04l-0.01 0.02c0-0.01 0.01-0.01 0.01-0.02m-0.03 0.04c0 0.01-0.01 0.01-0.01 0.02 0-0.01 0.01-0.01 0.01-0.02m-0.02 0.04c-0.01 0.01-0.01 0.02-0.02 0.03 0.01-0.01 0.01-0.02 0.02-0.03m-0.03 0.04c0 0.01-0.01 0.02-0.01 0.03 0-0.01 0.01-0.02 0.01-0.03m-0.02 0.05c-0.01 0.01-0.01 0.01-0.02 0.03 0.01-0.01 0.01-0.02 0.02-0.03m-0.03 0.04c0 0.01-0.01 0.02-0.01 0.03 0-0.01 0.01-0.02 0.01-0.03m-0.02 0.05c-0.01 0.01-0.01 0.02-0.02 0.03 0.01-0.01 0.01-0.02 0.02-0.03m-0.03 0.04c0 0.02-0.01 0.03-0.01 0.04 0-0.01 0.01-0.02 0.01-0.04m-0.02 0.06c0 0.01-0.01 0.01-0.01 0.03 0-0.02 0.01-0.03 0.01-0.03m-0.02 0.04c-0.01 0.01-0.01 0.03-0.02 0.04 0.01-0.01 0.01-0.03 0.02-0.04m-0.02 0.05c-0.01 0.01-0.01 0.03-0.02 0.04 0.01-0.01 0.01-0.03 0.02-0.04m-0.02 0.05c-0.01 0.02-0.01 0.04-0.02 0.05 0.01-0.02 0.01-0.03 0.02-0.05m-0.02 0.06c-0.01 0.01-0.02 0.03-0.02 0.05 0-0.02 0.01-0.04 0.02-0.05m-0.02 0.05c-0.02 0.05-0.04 0.11-0.06 0.17 0.02-0.06 0.04-0.12 0.06-0.17m-0.06 0.18c0 0.01-0.01 0.03-0.01 0.05 0-0.02 0.01-0.04 0.01-0.05m-0.02 0.05c0 0.02 0 0.04-0.01 0.05 0.01-0.01 0.01-0.03 0.01-0.05m-0.01 0.07c-0.01 0.02-0.01 0.03-0.01 0.04 0-0.01 0-0.02 0.01-0.04m-0.02 0.06c0 0.01 0 0.03-0.01 0.04 0.01-0.01 0.01-0.03 0.01-0.04m-0.01 0.07c0 0.01-0.01 0.02-0.01 0.04 0-0.02 0-0.03 0.01-0.04m-0.02 0.05v0.05-0.05m-0.01 0.07c0 0.01 0 0.03-0.01 0.04 0.01-0.01 0.01-0.03 0.01-0.04m-0.01 0.06c0 0.01-0.01 0.03-0.01 0.05 0-0.02 0.01-0.03 0.01-0.05m-0.01 0.07c0 0.01-0.01 0.03-0.01 0.04 0-0.01 0.01-0.03 0.01-0.04m-0.01 0.06c0 0.02-0.01 0.03-0.01 0.05 0-0.02 0.01-0.03 0.01-0.05m-0.01 0.07c0 0.01-0.01 0.03-0.01 0.05 0-0.02 0.01-0.04 0.01-0.05m-0.01 0.07c0 0.01-0.01 0.03-0.01 0.05 0-0.02 0.01-0.04 0.01-0.05m-0.01 0.06c0 0.02 0 0.04-0.01 0.06 0.01-0.02 0.01-0.04 0.01-0.06m-0.01 0.07v0.06-0.06m-0.01 0.08v0.05-0.05m0 0.07c0 0.02-0.01 0.03-0.01 0.06 0-0.03 0.01-0.04 0.01-0.06m-0.01 0.07v0.06-0.06m0 0.07c-0.01 0.02-0.01 0.05-0.01 0.07 0-0.02 0-0.05 0.01-0.07m-0.01 0.08c-0.69 11.85 23.6 59.96 49.53 105.37h0.01c-25.93-45.41-50.23-93.52-49.54-105.37"
         id="path102"
         fill="#273e47" /><path
         d="m1551.4 3924.5c8.31 17.9 14.67 35.36 17.58 50.63-2.91-15.27-9.25-32.73-17.56-50.63h-0.02m17.58 50.63c0.02 0.09 0.04 0.18 0.05 0.27-0.01-0.09-0.03-0.19-0.05-0.27m0.06 0.28c0.01 0.09 0.03 0.18 0.04 0.27-0.01-0.09-0.03-0.18-0.04-0.27m0.05 0.28c0.01 0.09 0.03 0.17 0.04 0.25-0.01-0.08-0.03-0.17-0.04-0.25m0.05 0.27c0.01 0.08 0.03 0.16 0.04 0.24-0.01-0.08-0.03-0.16-0.04-0.24m0.05 0.29c0.02 0.08 0.03 0.16 0.04 0.24-0.01-0.08-0.03-0.16-0.04-0.24m0.05 0.28c0.02 0.08 0.03 0.16 0.04 0.25-0.01-0.09-0.02-0.17-0.04-0.25m0.12 0.65c0 0.02 0 0.04 0.01 0.06-0.01-0.02-0.01-0.04-0.01-0.06m0.08 0.44c0 0.02 0 0.05 0.01 0.07-0.01-0.02-0.01-0.05-0.01-0.07m0.08 0.47v0.02-0.02m0.16 0.88v0.01-0.01"
         id="path104"
         fill="#1f323a" /><path
         d="m1614.6 3852.7-77.17 44.55c5.02 9.05 9.72 18.21 13.92 27.27 8.31 17.9 14.65 35.36 17.56 50.63 0.02 0.08 0.04 0.18 0.05 0.27 0 0 0 0.01 0.01 0.01 0.01 0.09 0.03 0.18 0.04 0.27 0.01 0 0.01 0.01 0.01 0.01 0.01 0.08 0.03 0.17 0.04 0.25 0 0 0.01 0.01 0.01 0.02 0.01 0.08 0.03 0.16 0.04 0.24 0 0.02 0.01 0.04 0.01 0.05 0.01 0.08 0.03 0.16 0.04 0.24 0.01 0.01 0.01 0.03 0.01 0.04 0.02 0.08 0.03 0.16 0.04 0.25 0.03 0.13 0.05 0.27 0.08 0.4 0 0.02 0 0.04 0.01 0.06 0.02 0.13 0.04 0.26 0.07 0.38 0 0.02 0 0.05 0.01 0.07 0.02 0.13 0.04 0.26 0.07 0.4v0.02c0.06 0.29 0.11 0.57 0.16 0.86v0.01c6.83 36.82 22.15 75.32 42.26 109.79l62.06-35.84c-25.93-45.41-50.22-93.52-49.53-105.37v-0.01c0-0.02 0-0.05 0.01-0.07v-0.01-0.06-0.01c0-0.03 0.01-0.04 0.01-0.06v-0.02-0.05c0-0.01 0.01-0.02 0.01-0.02v-0.06-0.01c0.01-0.02 0.01-0.04 0.01-0.06v-0.01c0-0.02 0.01-0.04 0.01-0.05v-0.02c0-0.02 0.01-0.04 0.01-0.05v-0.02c0-0.02 0.01-0.03 0.01-0.05v-0.02c0-0.01 0.01-0.03 0.01-0.04v-0.02c0-0.02 0.01-0.04 0.01-0.05v-0.02c0.01-0.01 0.01-0.03 0.01-0.04s0-0.02 0.01-0.02v-0.05c0.01 0 0.01-0.01 0.01-0.01 0-0.02 0.01-0.03 0.01-0.04v-0.03c0.01-0.01 0.01-0.03 0.01-0.04s0.01-0.01 0.01-0.02 0-0.02 0.01-0.04v-0.02c0.01-0.01 0.01-0.03 0.01-0.05h0.01c0-0.02 0.01-0.04 0.01-0.05v-0.01c0.02-0.06 0.04-0.12 0.06-0.17 0-0.02 0.01-0.04 0.02-0.05v-0.01c0.01-0.01 0.01-0.03 0.02-0.05v-0.01c0.01-0.01 0.01-0.03 0.02-0.04v-0.01c0.01-0.01 0.01-0.03 0.02-0.04 0 0 0-0.01 0.01-0.01 0-0.02 0.01-0.02 0.01-0.03s0.01-0.02 0.01-0.02c0-0.01 0.01-0.02 0.01-0.04 0.01 0 0.01-0.01 0.01-0.01 0.01-0.01 0.01-0.02 0.02-0.03 0-0.01 0-0.01 0.01-0.02 0-0.01 0.01-0.02 0.01-0.03l0.01-0.01c0.01-0.02 0.01-0.02 0.02-0.03 0-0.01 0-0.01 0.01-0.02 0-0.01 0.01-0.02 0.01-0.03 0.01 0 0.01-0.01 0.01-0.01 0.01-0.01 0.01-0.02 0.02-0.03 0-0.01 0-0.01 0.01-0.02 0-0.01 0.01-0.01 0.01-0.02 0.01 0 0.01-0.01 0.02-0.02l0.01-0.02c0.01-0.01 0.01-0.01 0.01-0.02l0.02-0.02c0-0.01 0.01-0.01 0.01-0.02l0.02-0.02c0-0.01 0.01-0.01 0.01-0.02l0.02-0.02c0-0.01 0.01-0.01 0.01-0.01 0.01-0.01 0.01-0.02 0.02-0.03 0 0 0.01 0 0.01-0.01l0.02-0.02c0.01-0.01 0.01-0.01 0.01-0.02 0.01 0 0.02-0.01 0.02-0.02 0.01 0 0.01 0 0.02-0.01 0-0.01 0.01-0.01 0.02-0.02 0-0.01 0-0.01 0.01-0.01 0.01-0.01 0.01-0.02 0.02-0.02 0-0.01 0.01-0.01 0.01-0.01 0.01-0.01 0.02-0.02 0.03-0.02 0-0.01 0-0.01 0.01-0.02 0.01 0 0.01-0.01 0.02-0.02 0.01 0 0.01 0 0.01-0.01 0.01-0.01 0.03-0.02 0.04-0.02 0.05-0.04 0.09-0.08 0.14-0.12 4.62-3.62 10.23-5.53 16.66-5.53 3.38 0 6.98 0.53 10.78 1.61l-38.3-88.46"
         id="path106"
         fill="#2d4853" /><path
         d="m1791.3 4054.6c-9.4-53-47.59-112.09-85.6-131.99-26.19-13.71-45.29-5.21-51.7 18.89-2.7 10.8-2.99 24.71-0.09 41.11 9.4 52.99 47.7 112.1 85.69 131.9 3.8 1.99 7.5 3.59 11.01 4.7 31.29 9.5 49.1-17 40.69-64.61zm253.81-256.19-0.6 0.3c-10.4 5.89-24.01 5.89-40.4-1.31-57.9-25.5-75.4-33.89-109.71-47.5-9.19-3.69-27.7-0.7-22.9 30.61l0.31 2.1 7.9 44.6 21.9 121.5s5 19.1-7.7 26.3l-0.91 0.5c-2.59 1.3-5.9 2.1-10.09 2.2-12.21 0.3-26.01 8.69-36.21 23.1-11.69 16.4-18.7 40.59-13.59 69.5 9.2 52.09-0.9 88.59-24 102.2l-1.8 1.09c-14.9 7.9-34.9 6.61-58.31-5.7-61.69-32.39-123.99-128.39-139.19-214.59-9.6-54.41-64.31-138.1-95.9-168.91-31.7-30.99-33.8-56.59-33.8-56.59l-24.61-139.4-7.89-44.61c-5.8-33.29-40-65.5-40-65.5l-127.2-95.4c-59.8-49.69-88.2-101.8-104.71-158.5 0 0-47.7-36.99-50.69-40v-0.09h0.1l0.1 0.09 16.29 9.31 878.31 504.89s10.1 5.5 12.29 6.91c2.21 1.3 37.61 34.8 37.61 34.8-1.51 28.79-9.9 49.29-24.6 58.1"
         id="path108"
         fill="#273e47" /><path
         d="m1791.3 4054.6c-9.4-53-47.59-112.09-85.6-131.99-26.19-13.71-45.29-5.21-51.7 18.89 3.51 1.11 7.21 2.6 11.11 4.6 38 19.91 76.3 79.01 85.59 132 2.9 16.41 2.7 30.31-0.09 41.11 31.29 9.5 49.1-17 40.69-64.61"
         id="path110"
         fill="#17282f" /><path
         d="m1754.7 4119.4c-1.29 0-2.64-0.07-4.04-0.21-3.51-1.11-7.21-2.71-11.01-4.7-37.99-19.8-76.29-78.91-85.69-131.9-2.9-16.4-2.61-30.31 0.09-41.11 0 0 11.63-17.63 28.77-18.44l0.35-0.01c17.59 0 76.85 60.03 86.34 86.55 9.3 25.95 29.98 109.82-14.81 109.82zm0.01-2.5c8.12 0 14.11-2.9 18.31-8.86 15.74-22.36 0.66-79.4-5.86-97.62-9.09-25.39-67.96-84.89-84.22-84.88-14.39 0.68-24.9 14.64-26.57 16.99-2.63 10.89-2.61 24.57 0.05 39.62 9.28 52.34 47.14 110.71 84.4 130.13 3.66 1.92 7.14 3.42 10.34 4.44 1.23 0.12 2.41 0.18 3.55 0.18"
         id="path112"
         fill="#17282f" /><path
         d="m1125.2 3184.3 894.65 514.29s10.14 5.55 12.32 6.87c2.18 1.33 37.6 34.88 37.6 34.88l-893.97-515.96s-54.16-41.95-50.6-40.08"
         id="path114"
         fill="#17282f" /><path
         d="m966.42 2950.4 242.02 141.72-0.03-281.44-241.99-141.7v281.42"
         id="path116"
         fill="#fafaf9" /><path
         d="m966.42 2659c-1.719 0-3.43 0.44-4.973 1.33-3.113 1.78-5.027 5.09-5.027 8.67v281.43c0 3.55 1.883 6.84 4.949 8.63l242.03 141.72c3.09 1.8 6.93 1.83 10.02 0.05 3.11-1.78 5.03-5.09 5.03-8.68l-0.03-281.44c0-3.55-1.89-6.83-4.95-8.63l-242-141.7c-1.551-0.92-3.301-1.38-5.047-1.38zm10 285.7v-258.25l222 129.99 0.03 258.27-222.03-130.01"
         id="path118"
         fill="#33535f" /><path
         d="m1330.3 3152.6v-20.35c0-11.05 7.75-15.53 17.32-10l859.01 495.87c9.56 5.52 17.32 18.95 17.32 30v20.42c0 11.05-7.76 15.52-17.32 10l-859.01-495.94c-9.57-5.53-17.32-18.95-17.32-30"
         id="path120"
         fill="#dadbd8" /><path
         d="m1330.3 3029.7v-20.36c0-11.04 7.75-15.52 17.32-10l859.01 495.87c9.56 5.53 17.32 18.95 17.32 30v20.43c0 11.04-7.76 15.52-17.32 10l-859.01-495.94c-9.57-5.53-17.32-18.96-17.32-30"
         id="path122"
         fill="#dadbd8" /><path
         d="m1330.3 2907.4v-20.36c0-11.04 7.75-15.52 17.32-10l859.01 495.88c9.56 5.52 17.32 18.95 17.32 30v20.42c0 11.05-7.76 15.53-17.32 10l-859.01-495.94c-9.57-5.53-17.32-18.95-17.32-30"
         id="path124"
         fill="#dadbd8" /><path
         d="m1091.5 2806.5-56.29 54.17 24.23 51.33 32.06-30.85 133.3 282.19 24.24-23.33-157.54-333.51"
         id="path126"
         fill="#26b6a6"
         style="fill:#5353c9;fill-opacity:1" /><path
         d="m966.42 2434.4 242.02 141.72-0.03-281.44-241.99-141.71v281.43"
         id="path128"
         fill="#fafaf9" /><path
         d="m966.42 2143c-1.719 0-3.43 0.44-4.973 1.32-3.113 1.79-5.027 5.1-5.027 8.68v281.43c0 3.55 1.883 6.83 4.949 8.63l242.03 141.72c3.09 1.8 6.93 1.82 10.02 0.05 3.11-1.78 5.03-5.1 5.03-8.68l-0.03-281.44c0-3.55-1.89-6.84-4.95-8.63l-242-141.71c-1.551-0.91-3.301-1.37-5.047-1.37zm10 285.69v-258.24l222 129.99 0.03 258.26-222.03-130.01"
         id="path130"
         fill="#33535f" /><path
         d="m1330.3 2636.6v-20.35c0-11.05 7.75-15.52 17.32-10l859.01 495.87c9.56 5.53 17.32 18.96 17.32 30v20.43c0 11.04-7.76 15.52-17.32 10l-859.01-495.95c-9.57-5.52-17.32-18.95-17.32-30"
         id="path132"
         fill="#dadbd8" /><path
         d="m1330.3 2513.7v-20.35c0-11.05 7.75-15.53 17.32-10.01l859.01 495.88c9.56 5.53 17.32 18.95 17.32 30v20.42c0 11.05-7.76 15.53-17.32 10l-859.01-495.94c-9.57-5.52-17.32-18.95-17.32-30"
         id="path134"
         fill="#dadbd8" /><path
         d="m1330.3 2391.4v-20.35c0-11.05 7.75-15.52 17.32-10l859.01 495.87c9.56 5.53 17.32 18.96 17.32 30v20.43c0 11.05-7.76 15.52-17.32 10l-859.01-495.95c-9.57-5.52-17.32-18.95-17.32-30"
         id="path136"
         fill="#dadbd8" /><path
         d="m1091.5 2290.6-56.29 54.17 24.23 51.32 32.06-30.84 133.3 282.19 24.24-23.33-157.54-333.51"
         id="path138"
         fill="#26b6a6"
         style="fill:#5353c9;fill-opacity:1" /><path
         d="m966.42 1918.5 242.02 141.71-0.03-281.43-241.99-141.71v281.43"
         id="path140"
         fill="#fafaf9" /><path
         d="m966.42 1627c-1.719 0-3.43 0.44-4.973 1.32-3.113 1.79-5.027 5.1-5.027 8.68v281.43c0 3.55 1.883 6.83 4.949 8.62l242.03 141.73c3.09 1.8 6.93 1.82 10.02 0.05 3.11-1.79 5.03-5.1 5.03-8.68l-0.03-281.44c0-3.55-1.89-6.84-4.95-8.63l-242-141.71c-1.551-0.91-3.301-1.37-5.047-1.37zm10 285.69v-258.24l222 129.99 0.03 258.26-222.03-130.01"
         id="path142"
         fill="#33535f" /><path
         d="m1330.3 2120.6v-20.35c0-11.05 7.75-15.53 17.32-10l859.01 495.87c9.56 5.52 17.32 18.96 17.32 30v20.43c0 11.04-7.76 15.52-17.32 10l-859.01-495.95c-9.57-5.52-17.32-18.95-17.32-30"
         id="path144"
         fill="#dadbd8" /><path
         d="m1330.3 1997.7v-20.36c0-11.04 7.75-15.52 17.32-10l859.01 495.88c9.56 5.52 17.32 18.95 17.32 30v20.42c0 11.05-7.76 15.52-17.32 10l-859.01-495.94c-9.57-5.52-17.32-18.96-17.32-30"
         id="path146"
         fill="#dadbd8" /><path
         d="m1330.3 1875.5v-20.35c0-11.05 7.75-15.53 17.32-10l859.01 495.87c9.56 5.52 17.32 18.95 17.32 30v20.42c0 11.05-7.76 15.53-17.32 10l-859.01-495.94c-9.57-5.52-17.32-18.95-17.32-30"
         id="path148"
         fill="#dadbd8" /><path
         d="m966.42 1402.5 242.02 141.72-0.03-281.44-241.99-141.7v281.42"
         id="path150"
         fill="#fafaf9" /><path
         d="m966.42 1111.1c-1.719 0-3.43 0.44-4.973 1.33-3.113 1.78-5.027 5.09-5.027 8.67v281.43c0 3.55 1.883 6.83 4.949 8.63l242.03 141.72c3.09 1.8 6.93 1.83 10.02 0.05 3.11-1.78 5.03-5.09 5.03-8.68l-0.03-281.44c0-3.55-1.89-6.83-4.95-8.63l-242-141.71c-1.551-0.91-3.301-1.37-5.047-1.37zm10 285.7v-258.25l222 129.99 0.03 258.27-222.03-130.01"
         id="path152"
         fill="#33535f" /><path
         d="m1330.3 1604.7v-20.36c0-11.04 7.75-15.52 17.32-10l859.01 495.88c9.56 5.52 17.32 18.95 17.32 30v20.42c0 11.05-7.76 15.53-17.32 10l-859.01-495.94c-9.57-5.53-17.32-18.95-17.32-30"
         id="path154"
         fill="#dadbd8" /><path
         d="m1330.3 1481.8v-20.36c0-11.05 7.75-15.52 17.32-10l859.01 495.87c9.56 5.53 17.32 18.96 17.32 30v20.43c0 11.04-7.76 15.52-17.32 10l-859.01-495.94c-9.57-5.53-17.32-18.96-17.32-30"
         id="path156"
         fill="#dadbd8" /><path
         d="m1330.3 1359.5v-20.36c0-11.04 7.75-15.52 17.32-10l859.01 495.88c9.56 5.52 17.32 18.95 17.32 30v20.42c0 11.05-7.76 15.53-17.32 10l-859.01-495.94c-9.57-5.52-17.32-18.95-17.32-30"
         id="path158"
         fill="#dadbd8" /><path
         d="m3600 3089.1c0-59.9-48.55-108.46-108.46-108.46-59.9 0-108.45 48.56-108.45 108.46s48.55 108.46 108.45 108.46c59.91 0 108.46-48.56 108.46-108.46"
         id="path160"
         fill="#17282f" /><path
         d="m3362.4 2750.4-154.75-180.4-207.9 90.19-4.09-112.57s170.27-79.55 196.39-84.93 51.42-11.19 74.29 6.29c26.61 20.34 122.11 130.6 122.11 130.6l-26.05 150.82"
         id="path162"
         fill="#f6879f" /><path
         d="m3503 2842.8c-61.67 4.01-110.56-42.87-146.23-84.84-35.68-41.95-81.92-108.01-81.92-108.01s24.92-72.69 90.53-94.7l113.05 134.37 24.57 153.18"
         id="path164"
         fill="#dadbd8" /><path
         d="m3751.3 1123.1h-76.4v130.79h76.4v-130.79"
         id="path166"
         fill="#f6879f" /><path
         d="m3486.4 1214.6-76.36-2.62-3.82 138.41 76.35 2.62 3.83-138.41"
         id="path168"
         fill="#f6879f" /><path
         d="m3746.3 2290.6c0-72.95 9.43-515.05 9.43-515.05 1.78-21 21.46-59.7 17.2-140.33-5.79-109.52-15.25-394.25-15.25-394.25s-35.82-35.52-86.4 0c0 0-69.18 393.88-82.87 502.42-11.94 94.72-32.22 352.06-32.22 352.06l-42.37-357.17s12.46-71.2 15.19-121.46c2.74-50.25-41.38-305.33-41.38-305.33s-38.83-26.84-83.13-3.17c0 0-32.97 388.92-40.84 434.31-7.88 45.39 25.31 547.97 25.31 547.97h357.33"
         id="path170"
         fill="#273e47" /><path
         d="m3672.9 2818.4c33.28-5.91 59.84-31.13 67.12-64.15 3.62-16.39 6.28-35.93 6.28-58v-405.61c-53.57-58.28-240.35-85.43-357.33 0 0 0 2.29 358.26 11.05 417.12 15.23 102.26 64.18 138.73 113.34 134.92l117.92-16.88 41.62-7.4"
         id="path172"
         fill="#ededeb" /><path
         d="m3679.1 3012s-17.56-82.58-24.62-96.15c-7.05-13.56-21.61-17.42-21.61-17.42l1.23 58.09 45 55.48"
         id="path174"
         fill="#17282f" /><path
         d="m3657 3130.3s18.93 3.24 33.68-11.85c14.47-14.79 6.39-61.1-11.63-106.44l-33.1-3.81 11.05 122.1"
         id="path176"
         fill="#17282f" /><path
         d="m3636 3008.2c6.63-3.97 16.1 8.78 24.28 17.35 8.2 8.57 34.92 20.27 48.25-7.82 13.58-28.63-11.77-66.46-32.81-73.06-36.26-11.38-41.7 11.88-41.7 11.88l-2.77-130.79s-23.74-58.09-88.03-66.81c-64.29-8.71-51.05 44.29-29.94 70.26l0.1 39.81s-32.85-4.99-48.88-2.51c-26.67 4.12-43.44 25.16-51.53 54.03-12.99 46.36-17.92 83.79-6.91 174.97 12.09 99.94 128.33 100.98 191.1 61.47s38.84-148.78 38.84-148.78"
         id="path178"
         fill="#f6879f" /><path
         d="m3636 2997c3.34-0.07 16.03 21 24.29 28.52 11.46 10.42-3.31 104.77-3.31 104.77s11 23.44-11.05 47.72c-15.69 17.26-41.9 19.18-86.66 26.21-23.49 3.69-59.08 10.26-82.53 14.63-28 5.2-51.18 10.71-70.95-6.47-15.39-13.37-22.01-37-13.73-55.63 1.94-4.37 4.76-8.31 7.95-11.87 5.67-6.3 12.08-11.26 20.16-13.88 0 0 12.2-10.83 54.68-16 42.47-5.18 108.64 0.99 117.68 2.23 12.31 1.69 14.94-10.25 21.58-42.87 5.83-28.62 10.67-77.14 21.89-77.36"
         id="path180"
         fill="#17282f" /><path
         d="m3656.9 3122.9 40.14 21.55c-5.69 11.5-19.3 16-30.38 10.05-11.08-5.96-15.45-20.1-9.76-31.6"
         id="path182"
         fill="#17282f" /><path
         d="m3513.4 2869s59.53 11.99 80.34 23.06c13.93 7.4 25.4 20.23 28.76 28.46 0 0-3.9-17.66-16.34-33.57-15.22-19.46-92.76-33.79-92.76-33.79v15.84"
         id="path184"
         fill="#f47089" /><path
         d="m3527.7 3023c0-6.84 5.34-12.38 11.93-12.36 6.58 0.01 11.92 5.58 11.92 12.42 0 6.85-5.34 12.38-11.92 12.37-6.59-0.02-11.93-5.59-11.93-12.43"
         id="path186"
         fill="#17282f" /><path
         d="m3540.4 3068.1 25.52-14.09c3.76 7.33 1.09 16.43-5.95 20.32-7.05 3.89-15.81 1.09-19.57-6.23"
         id="path188"
         fill="#17282f" /><path
         d="m3518.8 2940.6-27.23-10.22c2.7-7.8 10.98-11.85 18.5-9.02 7.52 2.82 11.43 11.43 8.73 19.24"
         id="path190"
         fill="#f47089" /><path
         d="m3421.4 3058.1 23.27 17.92c-4.76 6.67-13.81 8.06-20.23 3.11-6.43-4.95-7.79-14.36-3.04-21.03"
         id="path192"
         fill="#17282f" /><path
         d="m3428.5 3026.4c0-6.84 5.34-12.37 11.93-12.35 6.58 0.02 11.92 5.58 11.92 12.42s-5.34 12.38-11.92 12.36c-6.59-0.02-11.93-5.58-11.93-12.43"
         id="path194"
         fill="#17282f" /><path
         d="m3489.3 3037.7-3.93-71.74-37.45 12.77z"
         id="path196"
         fill="#f47089" /><path
         d="m3674.9 1160.8v10.93c-7.31-3.18-24.29-67.98-54.61-95.63-24.1-21.98-56.97-47.37-65.33-71.87-8.7-25.49 45.78-39.56 68.29-35.572 26.17 4.633 71.51 23.051 82.88 40.122 11.39 17.08 16.71 42.27 25.97 54.78 9.25 12.52 30.57 26.49 35.57 40.97 2.74 7.96-0.52 25.39-4.38 40.11-3.53 13.5-7.38 28.36-11.99 27.09-0.01-1.65 0-8.33 0-8.33-5.55-6.15-20.89-12.24-38.19-12.91-11.19-0.43-38.29 1.79-38.21 10.31"
         id="path198"
         fill="#17282f" /><path
         d="m3409.3 1235.5c-3.97-0.14-7.2-5.74-15.95-15.21-10.57-11.44-27.87-23.79-44.94-32.33-28.6-14.32-84.22-36.35-109.39-47.69-15.73-7.08-14.99-26.08 1.27-36.89 16.25-10.81 55.49-18.6 102.61-8.06 25.68 5.74 59.09 29.45 80.25 28.17 21.15-1.27 60.73-0.97 76.33 9.79 15.62 10.76 9.37 33.74 4.96 53.5-4.81 21.55-11.7 54.53-18.84 53.06l0.23-6.79c-9.19-13.9-55.95-19.58-76.12-9.34l-0.41 11.79"
         id="path200"
         fill="#17282f" /><path
         d="m3556.2 2095.4s-61.06 17.21-106.38 61c0 0 20.52-38.43 81.57-74.21l-17.56-343.96 42.37 357.17"
         id="path202"
         fill="#17282f" /><path
         d="m3231.8 1565.9-128.62-375.28c-3.74-10.91-19.19-10.86-22.87 0.07l-126.95 378.27 278.44-3.06"
         id="path204"
         fill="#f6879f" /><path
         d="m3080.3 1190.6c3.68-10.93 19.13-10.98 22.87-0.07l25.11 73.27c-22.07-11.84-48.9-10.35-69.53 3.86l-5.6 3.86 27.15-80.92"
         id="path206"
         fill="#17282f" /><path
         d="m2958.2 3242.4-0.07-36.72-0.29-44.31-4.53-1592.4c29.42-33.64 73.02-50.72 117.24-55.17 67.33-7 136.37 15.06 161.04 52.09l4.49 1591.5 0.23 84.7c-3.19-54.83-280.56-54.67-278.11 0.37"
         id="path208"
         fill="#26b6a6"
         style="fill:#5364c9;fill-opacity:1" /><path
         d="m2957.4 3102.6-0.08-82c-0.81-23.77 49.82-39.12 108.27-44.5 77.62-7.35 169 13.68 170.14 45.18l0.17 60.44-0.31 21.61c-1.14-31.49-92.53-52.59-170.16-45.24-56 5.23-105.01 19.78-107.8 41.95l-0.01 0.24-0.22 2.32"
         id="path210"
         fill="#e7e8e5" /><path
         d="m2957.5 3082.1c-2-55.19 276.23-54.49 278.22 0.7l0.35 82.08c-2-55.2-280.19-55.89-278.19-0.69l-0.38-82.09"
         id="path212"
         fill="#26b6a6"
         style="fill:#5364c9;fill-opacity:1" /><path
         d="m2958.2 3242.4-0.36-81.03c-2.36-54.18 266.12-55.78 278.24-4.04 0.33 0.87 0.42 1.97 0.49 3.08l-0.26 81.62c-3.19-54.83-280.56-54.67-278.11 0.37"
         id="path214"
         fill="#e7e8e5" /><path
         d="m3104.7 1256.4 5.93 256.1v0.45c53.01 3.21 101.22 23.27 120.98 52.92h0.19l-103.52-302.02c-7.46-4-15.46-6.47-23.58-7.45"
         id="path216"
         fill="#f57c8d" /><path
         d="m3103.2 1190.6 1.52 65.81c8.12 0.98 16.12 3.45 23.58 7.45l-25.1-73.26"
         id="path218"
         fill="#142228" /><path
         d="m3110.6 1512.9 3.9 1462.1c62.53 2.87 120.19 21.24 121.18 46.2l-4.1-1455.4-0.01-0.01h0.01c-19.76-29.65-67.97-49.71-120.98-52.92m125.15 1533.3 0.1 35.51-0.09 5.95 0.3 69.63c0 0.01 0 0.02 0.01 0.02l-0.32-111.11"
         id="path220"
         fill="#1db3a0"
         style="fill:#5353c9;fill-opacity:1" /><path
         d="m3114.5 2975 0.17 66.48c62.56 2.5 120.17 16.32 121.07 41.33l0.02 4.84 0.09-5.95-0.1-35.51-0.07-24.99c-0.99-24.96-58.65-43.33-121.18-46.2"
         id="path222"
         fill="#cccdcb" /><path
         d="m3114.7 3041.5 0.21 78.4c60.15 2.05 115.8 14.49 121.18 37.4l-0.3-69.63-0.02-4.84c-0.9-25.01-58.51-38.83-121.07-41.33"
         id="path224"
         fill="#1db3a0"
         style="fill:#5353c9;fill-opacity:1" /><path
         d="m3236.3 3241.7v0.01-0.01m0 0.07v0.02-0.02m0.01 0.07v0.03-0.03m0 0.08c0 0.01 0 0.02 0.01 0.03-0.01-0.01-0.01-0.02-0.01-0.03"
         id="path226"
         fill="#e0e1de" /><path
         d="m3114.9 3119.9 0.21 76.61c62.7 2.27 119.26 20.56 121.19 45.18v0.01 0.06 0.02c0.01 0.02 0.01 0.04 0.01 0.05v0.03 0.05c0 0.01 0 0.02 0.01 0.03v0.08l-0.23-84.7c-0.01 0-0.01-0.01-0.01-0.02-5.38-22.91-61.03-35.35-121.18-37.4"
         id="path228"
         fill="#cccdcb" /><path
         d="m2959.6 3586.2-1.34-343.81c-1.06-23.54 48.97-39.03 106.94-44.67 77.63-7.6 169.41 12.9 171.17 44.3l0.11 0.37 1.22 344.95c0 68.63-139.17 85.85-222.3 57.26-31.17-10.48-53.34-29.55-55.8-58.4"
         id="path230"
         fill="#f47089" /><path
         d="m3862.6 2176.5c-3.37-33.12-7.18-77.83-13.77-103.25-22.86-88.25-52.2-114.69-91.26-117.3-62.34-4.17-62.74 19.17-34.76 59.34 20.66 29.63 27.83 57.37 27.83 57.37-12.27-9.21-22.13-16.25-29.95-19.29-15.53-6.06-25.47 2.23-28.09 7.62-2.03 4.19 8.76 8.41 20.71 22.98 15.26 18.61 23.06 33.41 44.03 48.84 7.81 5.75 10.25 16.34 12.63 25.75 3.17 12.55 5.34 212.65-5.96 254.09l-53.63 192.44c-43.61 29.95-90.08 178.06-23.76 209.56 62.27-7.01 107.63-88.41 175.49-339.78 12.02-44.51 7.47-229.92 0.49-298.37"
         id="path232"
         fill="#f6879f" /><path
         d="m3672.9 2818.4s-25.17-18.48-26.94-60.42c-1.76-41.93 17.9-102.3 29.8-140.13s36.63-106.25 36.63-106.25 102.45 11.74 125.79 71.88c0 0-48.01 155.27-94.17 205.82-31.62 34.61-71.11 29.1-71.11 29.1"
         id="path234"
         fill="#dadbd8" /><path
         d="m3016.8 2780.7s24.98 19.87 72.46 12.07c22.98-3.78 14.19-90.75-59.74-114.97-48.09-15.76-57.87-7.65-73.39-47.22 0 0-29.03 6.03-21.96 50.27 7.06 44.23 26.37 84.56 58.6 122.62 21.21 25.02 22.62 46.08 33.02 38.95 11.76-8.05 4.56-28.72 4.56-28.72l-13.55-33"
         id="path236"
         fill="#f6879f" /></g></g></svg>